<svg width="64" height="64" fill="none" xmlns="http://www.w3.org/2000/svg"><g clip-path="url(#clip0)" fill="#F9A34F"><path d="M61.387 36.097a3.617 3.617 0 00-3.613 3.613v7.258a3.112 3.112 0 01-2.659 3.065l-.648.093a6.16 6.16 0 001.243-3.707 6.2 6.2 0 00-6.194-6.193 6.2 6.2 0 00-6.194 6.193 6.16 6.16 0 001.243 3.707l-.648-.093a3.112 3.112 0 01-2.659-3.066V39.71a3.617 3.617 0 00-3.613-3.613 3.617 3.617 0 00-3.613 3.613v8.148a9.304 9.304 0 007.534 9.123l.724.14V65h14.452v-7.88l.725-.139A9.304 9.304 0 0065 47.858V39.71a3.617 3.617 0 00-3.613-3.613zm-11.87 6.193a4.133 4.133 0 014.128 4.13 4.133 4.133 0 01-4.129 4.128 4.133 4.133 0 01-4.129-4.129 4.133 4.133 0 014.13-4.129zm13.418 5.568a7.238 7.238 0 01-5.86 7.096l-2.398.462v7.52H44.355v-7.52l-2.398-.463a7.236 7.236 0 01-5.86-7.095V39.71a1.55 1.55 0 011.548-1.549 1.55 1.55 0 011.548 1.549v7.258a5.188 5.188 0 004.432 5.11l3.68.525 2.105.005c.036 0 .07.005.106.005h1.032v-.003l1.033.003 3.826-.537a5.188 5.188 0 004.432-5.11V39.71a1.55 1.55 0 011.548-1.549 1.55 1.55 0 011.548 1.549v8.148z"/><path d="M56.742 21.645V1h-2.246l-14.31 5.204 14.491 4.83v10.611h-12.72l-11.112 8.002a5.122 5.122 0 00-1.42-2.715l-2.619-2.617V18.36a12.818 12.818 0 008.707-7.161l2.326-5.105c.214-.47.322-.97.322-1.502C38.161 2.612 36.55 1 34.517 1a3.47 3.47 0 00-3.122 1.93l-2.198 4.398a7.195 7.195 0 01-3.463 3.344 6.156 6.156 0 001.072-3.478A6.2 6.2 0 0020.614 1a6.2 6.2 0 00-6.194 6.194 6.16 6.16 0 001.626 4.168c-3.382.199-6.438 2.23-7.881 5.322L3.398 26.897a3.566 3.566 0 00-.333 1.512c0 1.962 1.596 3.559 3.61 3.559a3.466 3.466 0 003.14-2.01l4.604-9.978v20.607c-2.402.853-4.129 3.141-4.129 5.832a6.16 6.16 0 001.243 3.707l-.648-.093a3.112 3.112 0 01-2.66-3.066V39.71a3.617 3.617 0 00-3.612-3.613A3.617 3.617 0 001 39.71v8.148a9.304 9.304 0 007.533 9.123l.725.14V65H23.71v-7.88l.724-.139a9.304 9.304 0 007.534-9.123V39.71a3.617 3.617 0 00-3.613-3.613 3.617 3.617 0 00-3.613 3.613v7.258a3.112 3.112 0 01-2.66 3.065l-.647.093a6.16 6.16 0 001.242-3.707 6.201 6.201 0 00-3.716-5.673L42.623 23.71H65v-2.065h-8.258zM46.46 6.12l8.217-2.988V8.86L46.46 6.12zM20.613 3.065a4.133 4.133 0 014.129 4.129 4.133 4.133 0 01-4.13 4.129 4.133 4.133 0 01-4.128-4.13 4.133 4.133 0 014.129-4.128zm-6.854 13.419L7.94 29.094c-.227.491-.725.81-1.317.81a1.498 1.498 0 01-1.356-2.134l4.766-10.213a7.253 7.253 0 016.548-4.17h6.153a9.238 9.238 0 008.309-5.136l2.198-4.398c.242-.486.73-.788 1.327-.788a1.533 1.533 0 011.39 2.173l-2.326 5.105a10.754 10.754 0 01-8.028 6.155l-.863.144-.001 8.527 3.223 3.223c.577.576.907 1.374.907 2.19v.486l-3.097 2.23v-2.79l-3.701-3.701H19.58v10.95l-3.097 2.23V16.483h-2.725zm9.95 18.3l-2.064 1.486v-6.972l2.065 2.065v3.42zm-1.334 17.292a5.188 5.188 0 004.431-5.11V39.71a1.55 1.55 0 011.549-1.549 1.55 1.55 0 011.548 1.549v8.148a7.238 7.238 0 01-5.86 7.096l-2.398.462v7.52H11.323v-7.52l-2.398-.463a7.236 7.236 0 01-5.86-7.095V39.71a1.55 1.55 0 011.548-1.549A1.55 1.55 0 016.16 39.71v7.258a5.188 5.188 0 004.432 5.11l3.68.525 2.105.005c.036 0 .07.005.106.005h1.032v-.003l1.032.003 3.827-.537zm-1.762-5.657a4.133 4.133 0 01-4.13 4.13 4.133 4.133 0 01-4.128-4.13 4.133 4.133 0 014.129-4.129 4.133 4.133 0 014.129 4.13z"/><path d="M44.355 25.774h2.065v2.065h-2.065v-2.065zm4.129 0h2.064v2.065h-2.064v-2.065zm4.129 0h2.064v2.065h-2.064v-2.065z"/></g><defs><clipPath id="clip0"><path fill="#fff" d="M0 0h64v64H0z"/></clipPath></defs></svg>