<svg width="64" height="64" fill="none" xmlns="http://www.w3.org/2000/svg"><path d="M55 20h-2c-1.654 0-3 1.346-3 3v.171A3.006 3.006 0 0048 26v1.171c0 .801.312 1.555.88 2.122l1.07 1.071-1.078 9.163a20.966 20.966 0 00-13.104-9.385l-.447-1.342a5.002 5.002 0 003.255-2.8H39c2.206 0 4-1.794 4-4v-5c1.103 0 2-.897 2-2v-2c0-1.103-.897-2-2-2h-.174C41.87 5.24 36.943 1 31 1c-5.943 0-10.87 4.24-11.826 10H19c-1.103 0-2 .897-2 2v2c0 1.103.897 2 2 2v5c0 2.206 1.794 4 4 4h.424a5.004 5.004 0 003.255 2.8l-.448 1.343a18.413 18.413 0 00-6.32 2.79l-1.97-6.117c-.007-.033-.006-.066-.013-.099-.502-2.107-3.483-3.209-6.803-2.505-2.06.437-3.783 1.476-4.607 2.777-.47.744-.625 1.536-.445 2.292.103.434.316.823.611 1.164l6.852 10.263A18.161 18.161 0 0012 48c0 4.264 2.444 7.961 6 9.786V59c0 2.206 1.794 4 4 4h22V49.907A7.736 7.736 0 0050.201 53c4.3 0 7.8-3.499 7.8-7.798V23c0-1.654-1.347-3-3-3zm-5 6c0-.551.448-1 1-1h1v-2c0-.551.448-1 1-1h2c.552 0 1 .449 1 1v6h-4.586l-1.12-1.121a.996.996 0 01-.294-.708V26zM34 59v2h-2.556A3.959 3.959 0 0032 59h2zm1-2h-6v-4.586l1.121-1.121a1.01 1.01 0 01.707-.293H32c.552 0 1 .449 1 1v1h2c.552 0 1 .449 1 1v2c0 .551-.448 1-1 1zm-1.72-28l.6 1.8L31 34.399l-2.88-3.6.6-1.8h4.56V29zm-5.15 5.013c-.044-.001-.086-.013-.13-.013h-6c-.01 0-.019.003-.029.003a16.351 16.351 0 014.647-1.88l1.512 1.89zM22 36h2.537A3.97 3.97 0 0024 38v1h2v-1c0-1.103.897-2 2-2s2 .897 2 2-.897 2-2 2h-6c-1.103 0-2-.897-2-2s.897-2 2-2zm-2 5.444A3.959 3.959 0 0022 42h6c.732 0 1.41-.212 2-.556v7.686a2.97 2.97 0 00-1.293.749L27.587 51H24c-1.4 0-2.769-.334-4-.945v-8.611zm14 8.331A2.983 2.983 0 0032 49V38c0-.472-.097-.919-.248-1.34L34 33.851v15.924zM39 24v-4c1.103 0 2 .897 2 2s-.897 2-2 2zm2-5.444A3.959 3.959 0 0039 18v-1h2v1.556zM40.796 11H34V3.458A9.912 9.912 0 0140.796 11zM32 3.05V11h-2V3.05c.33-.032.662-.05 1-.05.338 0 .671.018 1 .05zm-4 .408V11h-6.796A9.912 9.912 0 0128 3.458zM19 13h24v2H19v-2zm4 4v1c-.732 0-1.409.212-2 .556V17h2zm-2 5c0-1.103.897-2 2-2v4c-1.103 0-2-.897-2-2zm4 2v-7h12v7c0 1.654-1.346 3-3 3h-6c-1.654 0-3-1.346-3-3zM8.207 28.06c.526-.83 1.834-1.572 3.334-1.891a7.694 7.694 0 011.591-.174c1.415 0 2.423.448 2.751.96l.098.304c.024.205-.029.431-.188.682-.526.83-1.834 1.572-3.334 1.891-2.064.437-3.623-.018-4.202-.629l-.196-.294c-.012-.03-.036-.058-.044-.088-.052-.224.012-.479.19-.761zm2.698 3.939c.63 0 1.293-.068 1.97-.212 1.607-.341 3.002-1.05 3.932-1.962l1.903 5.909A3.97 3.97 0 0018 38v5.794l-7.904-11.838a8.2 8.2 0 00.81.043zM14 48c0-1.819.295-3.589.876-5.282L18 47.397v1.291a8.943 8.943 0 01-1.2-1.288l-1.6 1.2A11.052 11.052 0 0024 53h3v4h-4c-4.963 0-9-4.038-9-9zm11 13h-3c-1.103 0-2-.897-2-2v-.426c.955.271 1.96.426 3 .426h7c0 1.103-.897 2-2 2h-3zm25.201-10a5.767 5.767 0 01-5.186-3.205L44 45.764V42h-2v19h-6v-2.184A2.996 2.996 0 0038 56v-2a2.996 2.996 0 00-2-2.816v-18.92a18.964 18.964 0 0112.31 10.435l.151.331-.453 3.854 1.986.233L51.89 31H56v14.202A5.805 5.805 0 0150.201 51z" fill="#F9A34F"/></svg>