<svg width="64" height="64" fill="none" xmlns="http://www.w3.org/2000/svg"><path d="M1.765 26.438c.888.284 1.63.9 2.072 1.721a.75.75 0 00.663.399c.016 0 .033 0 .05-.002a.75.75 0 00.653-.487 3.669 3.669 0 011.837-2.005.75.75 0 00-.097-1.384 3.595 3.595 0 01-2.073-1.721.75.75 0 00-1.365.09 3.667 3.667 0 01-1.836 2.004.75.75 0 00.097 1.385zm2.537-1.712c.272.292.578.55.91.77a5.149 5.149 0 00-.807.898 5.064 5.064 0 00-.91-.77c.303-.267.574-.569.807-.899zm48.384-10.341a3.666 3.666 0 011.836 2.004.75.75 0 001.366.09 3.595 3.595 0 012.072-1.72.75.75 0 00.097-1.385 3.668 3.668 0 01-1.836-2.004.75.75 0 00-1.365-.09A3.595 3.595 0 0152.783 13a.75.75 0 00-.097 1.385zm2.737-1.34c.233.33.504.632.808.898-.333.22-.639.479-.91.77a5.136 5.136 0 00-.809-.897c.333-.22.639-.479.91-.77h.001zM22.419 33.236a9.87 9.87 0 109.87 9.87 9.881 9.881 0 00-9.87-9.87zm.75 1.535a8.332 8.332 0 014.61 1.913l-1.094 1.094a6.796 6.796 0 00-3.516-1.46V34.77zm-1.5 0v1.547a6.797 6.797 0 00-3.517 1.46l-1.095-1.094a8.331 8.331 0 014.612-1.913zm-5.672 2.974l1.094 1.094a6.796 6.796 0 00-1.46 3.517h-1.547a8.331 8.331 0 011.913-4.611zm-1.913 6.11h1.547a6.796 6.796 0 001.46 3.518l-1.094 1.094a8.33 8.33 0 01-1.913-4.611zm7.585 7.586a8.33 8.33 0 01-4.611-1.913l1.094-1.094a6.796 6.796 0 003.517 1.46v1.547zm-4.58-8.335a5.33 5.33 0 1110.662 0 5.33 5.33 0 01-10.663 0h.001zm6.08 8.334v-1.546a6.796 6.796 0 003.517-1.46l1.094 1.094a8.331 8.331 0 01-4.611 1.913zm5.672-2.973l-1.094-1.094a6.798 6.798 0 001.46-3.517h1.547a8.333 8.333 0 01-1.914 4.61zm.366-6.111a6.798 6.798 0 00-1.46-3.517l1.094-1.094a8.332 8.332 0 011.912 4.61h-1.546z" fill="#F9A34F"/><path d="M22.483 42.394a.836.836 0 010-1.673.814.814 0 01.654.328.75.75 0 001.196-.906 2.31 2.31 0 00-1.144-.812v-.175a.75.75 0 10-1.5 0v.209a2.337 2.337 0 00.794 4.53.837.837 0 010 1.672.815.815 0 01-.654-.327.748.748 0 00-1.245.074.748.748 0 00.05.831c.278.37.66.649 1.1.798v.084a.75.75 0 101.5 0v-.087a2.338 2.338 0 00-.75-4.546zm15.564-12.359a.342.342 0 010 .683.317.317 0 01-.254-.13.75.75 0 10-1.2.9c.185.247.43.442.71.569a.748.748 0 001.486 0 1.843 1.843 0 00-.743-3.522.342.342 0 010-.682.316.316 0 01.254.13.75.75 0 001.2-.9 1.816 1.816 0 00-.71-.568.75.75 0 00-1.487 0 1.843 1.843 0 00.744 3.52zM9.01 43.563a.75.75 0 00-1.491.166c.263 2.347.862 4.904 1.782 7.598a.75.75 0 001.42-.484c-.873-2.556-1.465-5.073-1.711-7.28zm-.889-1.499h.005a.75.75 0 00.746-.754c-.002-.18 0-.358.004-.536a.75.75 0 00-1.5-.035 22.16 22.16 0 00-.005.58.75.75 0 00.75.745z" fill="#F9A34F"/><path d="M62 42.896h-1.82v-6.648a.75.75 0 00-.75-.75h-5.128c1.51-6.404.617-10.284-.594-12.535a6.506 6.506 0 011.396-.64.75.75 0 00.105-1.385 6.317 6.317 0 01-3.14-3.473.75.75 0 00-1.365-.099c-.21.39-.463.754-.753 1.088a16.691 16.691 0 00-5.866-3.791 1.777 1.777 0 00-.997-1.455 6.931 6.931 0 001.952-2.3l2.058-3.91a.75.75 0 00-1.015-1.013c-1.056.56-2.418-.04-3.375-.641a7.022 7.022 0 00-6.318-.611c-1.619.647-2.435 1.675-2.746 2.155-2.998 1.295-4.688-.628-4.768-.72a.75.75 0 00-1.266.774l1.48 3.467a6.913 6.913 0 002.542 3.049 1.76 1.76 0 00-.62 1.294c-1.695.71-3.57 1.94-5.22 3.422a6.005 6.005 0 00-2.457-1.761 7.022 7.022 0 00-6.318.611c-.957.601-2.32 1.2-3.376.641a.751.751 0 00-1.015 1.012l2.058 3.912a6.937 6.937 0 001.953 2.3 1.777 1.777 0 00-.997 1.454 16.693 16.693 0 00-5.866 3.791 6.028 6.028 0 01-.753-1.087.75.75 0 00-1.365.098 6.315 6.315 0 01-3.14 3.474.75.75 0 00.105 1.384 6.57 6.57 0 011.395.64c-1.459 2.686-1.778 6.334-.946 10.863.731 3.98 2.142 7.457 2.714 8.768a.812.812 0 01-.038.72 6.013 6.013 0 00-.74 2.892 1.889 1.889 0 001.905 1.864 6.323 6.323 0 004.437-1.788l.01-.009a3.148 3.148 0 012.18-.877h13.76c.813 0 1.595.314 2.18.877l.012.01a6.322 6.322 0 004.436 1.787 1.843 1.843 0 001.225-.476h23.447a.75.75 0 00.75-.75v-6.648H62a.75.75 0 00.75-.75v-7.48a.75.75 0 00-.75-.75zm-3.32-5.898v.978h-8.183v-.978h8.183zm-8.183 3.433v-.955h8.183v.955h-8.183zm8.183 1.5v.965h-8.183v-.965h8.183zm-7.426-22.693a7.785 7.785 0 002.009 2.25 7.667 7.667 0 00-2.301 1.914 7.785 7.785 0 00-2.01-2.25 7.667 7.667 0 002.302-1.915zM41.91 6.615c1.113.7 2.166 1.066 3.12 1.093l-1.318 2.502a5.521 5.521 0 01-4.031 2.865l1.09-5.56a.75.75 0 00-.277-.738c-.066-.05-1.095-.822-2.906-.86a5.557 5.557 0 014.322.698zm.682 8.183a.335.335 0 01-.31.277h-9.464a.279.279 0 110-.555h1.42c.453.087.913.131 1.374.131h3.142a7.4 7.4 0 001.377-.13h2.151a.295.295 0 01.31.277zM30.47 9.82l-.537-1.258c1.065.357 2.628.502 4.555-.407 2.409-1.137 4.018-.712 4.708-.403l-1.058 5.398h-2.525a5.552 5.552 0 01-5.143-3.33zm1.15 6.303c.331.29.758.451 1.2.45h9.463a1.82 1.82 0 001.259-.514 15.083 15.083 0 015.296 3.4c-.53.37-1.11.659-1.725.857a.75.75 0 00-.106 1.384 6.316 6.316 0 013.14 3.474.75.75 0 001.365.099 6.029 6.029 0 011.001-1.359c1.683 3.364 1.128 7.998.247 11.583h-7.282a10.074 10.074 0 002.144-6.105c0-5.387-4.346-9.771-9.687-9.771-2.064 0-4.153.737-5.883 2.077a10.515 10.515 0 00-3.36 4.491 1.767 1.767 0 00-.598-1.051 6.913 6.913 0 002.543-3.049l1.479-3.467a.75.75 0 00-1.266-.775c-.062.074-1.342 1.539-3.641 1.08 1.43-1.22 2.998-2.219 4.41-2.804zm17.378 20.874v5.898h-2.94v-5.898h2.94zM36.373 40.43v-.955h8.184v.955h-8.184zm8.184 1.5v.965h-8.184v-.965h8.184zm-8.184-3.955v-.978h8.184v.978h-8.184zM32.74 23.084a8.31 8.31 0 014.4-1.918l.03 1.481a6.235 6.235 0 00-3.386 1.49l-1.044-1.053zm.02 2.151a6.796 6.796 0 00-1.208 2.68 16.532 16.532 0 00-1.565-.91 9.193 9.193 0 011.683-2.87l1.09 1.1zm5.038-1.122c2.647 0 4.8 2.253 4.8 5.022 0 2.77-2.154 5.022-4.8 5.022a4.8 4.8 0 01-.395-.018 19.41 19.41 0 00-4.477-5.22c.175-2.638 2.333-4.806 4.871-4.806zm4.172.141a6.187 6.187 0 00-3.299-1.577l-.031-1.523a8.106 8.106 0 014.532 1.887l-1.202 1.213zm2.257-.147a8.28 8.28 0 011.86 4.536h-2.01a6.626 6.626 0 00-1.124-3.25l1.274-1.286zm-1.3 11.39h-3.75a6.189 6.189 0 002.518-1.243l1.232 1.244zm1.293-.825l-1.482-1.497a6.607 6.607 0 001.284-3.033h2.061a8.653 8.653 0 01-1.863 4.53zM25.237 19.836c1.801.85 3.362.797 4.557.404l-.538 1.261a5.55 5.55 0 01-5.144 3.33h-2.525l-1.057-5.397c.695-.312 2.303-.733 4.707.401zm1.979 6.642a.295.295 0 01-.31.277h-9.464a.334.334 0 01-.31-.277.295.295 0 01.31-.278h2.152c.454.087.915.131 1.377.131h3.141a7.37 7.37 0 001.375-.13h1.42a.295.295 0 01.309.276zM16.012 21.89l-1.317-2.503c.953-.027 2.007-.393 3.12-1.092a5.557 5.557 0 014.322-.698c-1.811.038-2.84.809-2.906.86a.75.75 0 00-.277.737l1.09 5.56a5.523 5.523 0 01-4.032-2.864zM8.47 30.917a7.67 7.67 0 002.301 1.915 7.78 7.78 0 00-2.009 2.25 7.667 7.667 0 00-2.3-1.915 7.781 7.781 0 002.008-2.25zm28.972 19.459h-.652a.75.75 0 00-.75.75v7.102a.364.364 0 01-.115.022 4.83 4.83 0 01-3.39-1.362l-.01-.01a4.597 4.597 0 00-3.228-1.302h-13.76a4.598 4.598 0 00-3.228 1.303l-.01.009A4.83 4.83 0 018.91 58.25a.383.383 0 01-.405-.366c0-.758.19-1.505.555-2.17a2.301 2.301 0 00.098-2.041c-.552-1.263-1.91-4.613-2.614-8.439-.743-4.046-.516-7.28.668-9.638.396.404.732.86 1 1.357a.75.75 0 00.66.395c.019 0 .037 0 .055-.002a.75.75 0 00.65-.491 6.315 6.315 0 013.14-3.474.75.75 0 00-.105-1.384 6.453 6.453 0 01-1.725-.858 15.081 15.081 0 015.296-3.398 1.82 1.82 0 001.258.514h9.464a1.82 1.82 0 001.204-.454c3.41 1.357 6.384 4.109 8.34 7.697h-.827a.75.75 0 00-.75.75v7.398a.75.75 0 00.75.75h1.82v5.98zm8.282 7.398H37.54v-.965h8.184v.965zm0-2.465H37.54v-.955h8.184v.955zm0-2.455H37.54v-.978h8.184v.978zm1.402-2.478h-8.184v-1.047h8.184v1.047zm0-2.547h-8.184v-.954h8.184v.954zm0-2.455h-8.184v-.978h8.184v.978zm3.038 12.4h-2.94v-5.898h2.94v5.898zm1.401-7.398h-2.94v-5.98h2.94v5.98zm8.283 7.398h-8.184v-.965h8.184v.965zm0-2.465h-8.184v-.954h8.184v.954zm0-2.454h-8.184v-.979h8.184v.979zm1.4-2.48h-8.183V49.33h8.184v1.047zm0-2.546h-8.183v-.954h8.184v.954zm0-2.454h-8.183v-.978h8.184v.978z" fill="#F9A34F"/></svg>