<svg width="240" height="287" fill="none" xmlns="http://www.w3.org/2000/svg"><path d="M129.777 79.63V0h-19.966v79.796H9.405l-8.497-8.5-.908.908 9.405 9.407v14.276h220.86V81.859L240 72.12l-1.238-1.237-8.745 8.747h-100.24zm-.045 95.613V95.887h-19.959v79.521H9.403l-8.496-8.471-.907.905 9.402 9.375v14.226h220.784v-13.98l9.731-9.703-1.237-1.234-8.742 8.717H129.732z" fill="#1B232A"/><path d="M129.777 191.443v79.301h100.24l8.745-8.747 1.238 1.238-9.735 9.737V287H9.405v-14.276L0 263.317l.908-.908 8.497 8.5h100.406v-79.466h19.966z" fill="#1B232A"/></svg>