<svg width="64" height="64" fill="none" xmlns="http://www.w3.org/2000/svg"><path d="M44.28 44.89a.935.935 0 00.934-.936v-7.372a.935.935 0 00-.935-.935h-1.576a.935.935 0 100 1.87h.64v6.437c0 .517.42.936.936.936zm-23.503-1.684a.935.935 0 001.12 1.499 3.63 3.63 0 00.18-.145c1.74-1.475 3.45-4.37 2.697-6.729a3.013 3.013 0 00-.746-1.198 3.082 3.082 0 00-2.175-.907 3.07 3.07 0 00-3.067 3.067 3.07 3.07 0 003.067 3.067c.04 0 .08-.001.119-.003-.579.868-1.173 1.333-1.195 1.35zm1.076-3.216a1.198 1.198 0 010-2.394 1.198 1.198 0 010 2.394zm4.529-1.577v3.41a3.07 3.07 0 003.067 3.067 3.07 3.07 0 003.067-3.068v-3.409a3.07 3.07 0 00-3.067-3.067 3.07 3.07 0 00-3.067 3.067zm4.263 0v3.41a1.197 1.197 0 01-2.393-.001v-3.409a1.198 1.198 0 012.393 0zm3.415 0v3.41a3.07 3.07 0 003.067 3.067 3.07 3.07 0 003.067-3.068v-3.409a3.07 3.07 0 00-3.067-3.067 3.07 3.07 0 00-3.067 3.067zm4.263 0v3.41a1.197 1.197 0 01-2.393-.001v-3.409a1.198 1.198 0 012.393 0z" fill="#F9A34F"/><path d="M60.665 38.34A7.697 7.697 0 0064 32a7.697 7.697 0 00-3.335-6.34 1.987 1.987 0 01-.67-2.502A7.697 7.697 0 0059.712 16a7.698 7.698 0 00-6.059-3.823 1.987 1.987 0 01-1.831-1.831 7.809 7.809 0 00-.046-.428.936.936 0 00-1.854.25c.015.11.027.22.035.326a3.85 3.85 0 003.549 3.548 5.826 5.826 0 014.586 2.893 5.827 5.827 0 01.212 5.42 3.85 3.85 0 001.3 4.846A5.827 5.827 0 0162.13 32a5.83 5.83 0 01-2.526 4.799 3.85 3.85 0 00-1.298 4.847 5.827 5.827 0 01-.213 5.419 5.827 5.827 0 01-4.587 2.893 3.85 3.85 0 00-3.548 3.548 5.827 5.827 0 01-2.893 4.587 5.827 5.827 0 01-5.419.212 3.85 3.85 0 00-4.847 1.3A5.827 5.827 0 0132 62.13a5.827 5.827 0 01-4.799-2.526 3.85 3.85 0 00-4.847-1.299 5.826 5.826 0 01-5.418-.212 5.827 5.827 0 01-2.894-4.587 3.85 3.85 0 00-3.548-3.548 5.826 5.826 0 01-4.587-2.893 5.827 5.827 0 01-.212-5.42A3.85 3.85 0 004.396 36.8 5.826 5.826 0 011.871 32c0-1.916.944-3.71 2.525-4.799a3.85 3.85 0 001.299-4.847 5.827 5.827 0 01.212-5.419 5.827 5.827 0 014.587-2.893 3.85 3.85 0 003.548-3.548 5.827 5.827 0 012.894-4.587 5.827 5.827 0 015.418-.212 3.85 3.85 0 004.847-1.299 5.827 5.827 0 014.8-2.525c1.916 0 3.71.944 4.798 2.525a3.85 3.85 0 004.847 1.299 5.826 5.826 0 016.71 1.222.935.935 0 001.349-1.296 7.697 7.697 0 00-8.863-1.615 1.987 1.987 0 01-2.502-.67A7.697 7.697 0 0032 0a7.697 7.697 0 00-6.34 3.335 1.988 1.988 0 01-2.502.67A7.697 7.697 0 0016 4.288a7.697 7.697 0 00-3.823 6.059 1.987 1.987 0 01-1.831 1.831A7.698 7.698 0 004.287 16a7.697 7.697 0 00-.281 7.158c.423.89.142 1.943-.67 2.502A7.697 7.697 0 000 32a7.697 7.697 0 003.335 6.34 1.987 1.987 0 01.67 2.502A7.697 7.697 0 004.288 48a7.697 7.697 0 006.058 3.823 1.987 1.987 0 011.832 1.831 7.696 7.696 0 0010.98 6.34 1.988 1.988 0 012.503.67A7.697 7.697 0 0032 64a7.697 7.697 0 006.34-3.335 1.988 1.988 0 012.502-.67A7.697 7.697 0 0048 59.712a7.697 7.697 0 003.823-6.059 1.987 1.987 0 011.831-1.831A7.697 7.697 0 0059.713 48a7.697 7.697 0 00.281-7.158 1.988 1.988 0 01.67-2.502z" fill="#F9A34F"/><path d="M11.763 39.58a.935.935 0 00-.493 1.228A22.51 22.51 0 0032 54.5c12.423 0 22.53-10.107 22.53-22.53C54.53 19.547 44.423 9.44 32 9.44c-12.423 0-22.53 10.107-22.53 22.53a22.7 22.7 0 00.454 4.52.935.935 0 001.833-.374 20.814 20.814 0 01-.416-4.146c0-11.391 9.268-20.659 20.66-20.659 11.39 0 20.658 9.268 20.658 20.66 0 11.39-9.267 20.658-20.659 20.658a20.641 20.641 0 01-19.01-12.556.936.936 0 00-1.227-.493z" fill="#F9A34F"/><path d="M21.509 29.428v-9.44a.935.935 0 10-1.87 0v9.44a.935.935 0 001.87 0zm6.375-.936c-1.006 0-1.977-.408-2.597-1.092a.935.935 0 00-1.386 1.257c.968 1.068 2.457 1.706 3.983 1.706 1.84 0 3.444-1.21 3.731-2.817.218-1.218-.348-2.815-2.588-3.641a50.546 50.546 0 01-2.611-1.056.893.893 0 01-.348-.861c.064-.444.409-.801.923-.956 1.464-.441 2.794.622 2.823.645a.935.935 0 001.2-1.435c-.085-.071-2.11-1.74-4.563-1.001-1.21.364-2.067 1.315-2.235 2.48a2.758 2.758 0 001.23 2.731.94.94 0 00.13.07c.054.025 1.347.6 2.804 1.138.997.367 1.505.935 1.394 1.557-.112.627-.85 1.276-1.89 1.276zm16.478-3.784a5.662 5.662 0 00-5.655-5.655 5.662 5.662 0 00-5.656 5.655 5.662 5.662 0 005.656 5.655 5.662 5.662 0 005.655-5.655zm-9.44 0a3.789 3.789 0 013.785-3.785 3.789 3.789 0 013.784 3.785 3.789 3.789 0 01-3.784 3.785 3.789 3.789 0 01-3.785-3.785zm-19.725 8.098c0 .517.419.936.936.936h31.735a.935.935 0 100-1.87H16.133a.935.935 0 00-.936.934z" fill="#F9A34F"/></svg>