<svg height="512" width="512" xmlns="http://www.w3.org/2000/svg"><path d="M354.233 359.117a7.482 7.482 0 007.482-7.482v-58.978a7.482 7.482 0 00-7.482-7.482h-12.606a7.482 7.482 0 100 14.964h5.124v51.496a7.482 7.482 0 007.482 7.482zm-188.014-13.466a7.483 7.483 0 008.956 11.988c.494-.367.966-.764 1.435-1.161 13.927-11.797 27.601-34.964 21.583-53.828-1.163-3.644-3.283-6.883-5.969-9.588-4.579-4.611-10.902-7.255-17.402-7.255-13.531 0-24.538 11.007-24.538 24.538s11.007 24.538 24.538 24.538c.319 0 .635-.012.951-.024-4.629 6.941-9.384 10.66-9.554 10.792zm8.603-25.734c-5.279 0-9.573-4.294-9.573-9.573s4.295-9.573 9.573-9.573 9.572 4.294 9.572 9.573-4.293 9.573-9.572 9.573zm36.236-12.613v27.275c0 13.53 11.007 24.538 24.537 24.538s24.537-11.007 24.537-24.538v-27.275c0-13.53-11.007-24.538-24.537-24.538s-24.537 11.008-24.537 24.538zm34.109 0v27.275c0 5.279-4.294 9.573-9.572 9.573s-9.572-4.294-9.572-9.573v-27.275c0-5.279 4.294-9.573 9.572-9.573s9.572 4.295 9.572 9.573zm27.309 0v27.275c0 13.53 11.007 24.538 24.537 24.538 13.531 0 24.538-11.007 24.538-24.538v-27.275c0-13.53-11.007-24.538-24.538-24.538-13.53.001-24.537 11.008-24.537 24.538zm34.11 0v27.275c0 5.279-4.295 9.573-9.573 9.573-5.279 0-9.572-4.294-9.572-9.573v-27.275c0-5.279 4.294-9.573 9.572-9.573 5.279.001 9.573 4.295 9.573 9.573z"/><path d="M485.317 306.719C502.025 295.219 512 276.258 512 256s-9.975-39.219-26.682-50.719a15.898 15.898 0 01-5.363-20.016A61.574 61.574 0 00477.703 128a61.581 61.581 0 00-48.467-30.583 15.897 15.897 0 01-14.652-14.651 62.84 62.84 0 00-.368-3.425 7.483 7.483 0 00-14.831 2.008c.119.876.213 1.75.281 2.601 1.21 15.237 13.148 27.176 28.386 28.386 15.309 1.216 29.026 9.869 36.692 23.147s8.301 29.484 1.7 43.35c-6.571 13.801-2.201 30.109 10.39 38.775 12.65 8.707 20.203 23.06 20.203 38.392s-7.553 29.685-20.204 38.392c-12.59 8.666-16.959 24.974-10.389 38.775a46.617 46.617 0 01-1.7 43.35 46.613 46.613 0 01-36.692 23.147c-15.239 1.211-27.176 13.149-28.386 28.386-1.217 15.31-9.87 29.027-23.148 36.692a46.611 46.611 0 01-43.349 1.701c-13.8-6.573-30.108-2.2-38.775 10.39-8.708 12.65-23.06 20.203-38.392 20.203s-29.684-7.553-38.392-20.203c-8.666-12.59-24.973-16.96-38.775-10.39a46.606 46.606 0 01-43.349-1.701 46.613 46.613 0 01-23.148-36.691c-1.21-15.237-13.147-27.176-28.386-28.387-15.309-1.216-29.026-9.869-36.692-23.147s-8.301-29.484-1.7-43.35c6.571-13.801 2.201-30.109-10.39-38.775-12.65-8.707-20.203-23.06-20.203-38.392s7.553-29.685 20.204-38.392c12.59-8.666 16.959-24.974 10.389-38.775a46.617 46.617 0 011.7-43.35 46.613 46.613 0 0136.692-23.147c15.238-1.21 27.176-13.148 28.386-28.385 1.217-15.31 9.87-29.027 23.148-36.693a46.611 46.611 0 0143.349-1.7c13.803 6.57 30.109 2.2 38.775-10.39 8.708-12.65 23.06-20.203 38.392-20.203s29.684 7.553 38.392 20.203c8.666 12.589 24.973 16.96 38.775 10.39a46.609 46.609 0 0143.349 1.7 46.661 46.661 0 0110.326 8.076 7.484 7.484 0 0010.793-10.367A61.572 61.572 0 00384 34.297a61.575 61.575 0 00-57.264-2.252 15.897 15.897 0 01-20.016-5.363C295.219 9.975 276.257 0 256 0s-39.219 9.975-50.719 26.682a15.902 15.902 0 01-20.016 5.363c-18.312-8.717-39.719-7.877-57.264 2.252-17.543 10.128-28.976 28.246-30.583 48.468a15.898 15.898 0 01-14.652 14.652c-20.22 1.607-38.339 13.04-48.469 30.583-10.129 17.544-10.97 38.952-2.252 57.265a15.9 15.9 0 01-5.362 20.016C9.975 216.781 0 235.742 0 256s9.975 39.219 26.682 50.719a15.898 15.898 0 015.363 20.016A61.574 61.574 0 0034.297 384c10.13 17.544 28.248 28.976 48.467 30.583a15.897 15.897 0 0114.652 14.653c1.608 20.221 13.041 38.339 30.583 48.466 17.543 10.13 38.952 10.971 57.264 2.252a15.9 15.9 0 0120.016 5.363C216.781 502.025 235.743 512 256 512s39.219-9.975 50.719-26.682a15.902 15.902 0 0120.016-5.363 61.577 61.577 0 0057.264-2.252c17.543-10.128 28.976-28.246 30.583-48.468a15.898 15.898 0 0114.652-14.652c20.219-1.606 38.338-13.039 48.467-30.583s10.97-38.952 2.252-57.265a15.9 15.9 0 015.364-20.016z"/><path d="M94.104 316.644a7.482 7.482 0 00-3.945 9.819A180.074 180.074 0 00256 436.004c99.382 0 180.235-80.853 180.235-180.235S355.382 75.534 256 75.534 75.765 156.387 75.765 255.769c0 12.169 1.221 24.334 3.628 36.155a7.483 7.483 0 0014.665-2.986 166.487 166.487 0 01-3.328-33.169c0-91.13 74.14-165.27 165.271-165.27s165.271 74.14 165.271 165.27S347.131 421.04 256 421.04a165.13 165.13 0 01-152.077-100.45 7.484 7.484 0 00-9.819-3.946z"/><path d="M172.071 235.423v-75.519a7.482 7.482 0 00-14.965 0v75.519a7.482 7.482 0 0014.965 0zm50.997-7.483c-8.048 0-15.813-3.266-20.772-8.737a7.482 7.482 0 00-10.569-.519 7.483 7.483 0 00-.52 10.569c7.747 8.548 19.658 13.652 31.861 13.652 14.724 0 27.557-9.688 29.852-22.535 1.74-9.749-2.785-22.522-20.704-29.132-9.593-3.539-18.501-7.399-20.889-8.447-2.141-1.605-3.177-4.144-2.782-6.89.51-3.55 3.268-6.408 7.379-7.647 11.716-3.528 22.352 4.974 22.589 5.166a7.483 7.483 0 009.599-11.481c-.68-.571-16.879-13.928-36.504-8.014-9.688 2.918-16.538 10.525-17.877 19.85-1.249 8.702 2.521 17.072 9.839 21.842.33.215.677.404 1.038.565a408.81 408.81 0 0022.429 9.096c7.976 2.942 12.04 7.484 11.152 12.461-.896 5.015-6.796 10.201-15.121 10.201zm131.826-30.277c0-24.946-20.295-45.242-45.242-45.242s-45.243 20.296-45.243 45.242 20.296 45.242 45.243 45.242 45.242-20.295 45.242-45.242zm-75.519 0c0-16.695 13.582-30.277 30.278-30.277 16.694 0 30.277 13.582 30.277 30.277s-13.582 30.277-30.277 30.277c-16.696 0-30.278-13.582-30.278-30.277zm-157.798 64.788a7.482 7.482 0 007.482 7.482H382.94c4.133 0 7.482-3.35 7.482-7.482s-3.349-7.482-7.482-7.482H129.06a7.482 7.482 0 00-7.483 7.482z"/></svg>