<svg width="131" height="785" fill="none" xmlns="http://www.w3.org/2000/svg"><g opacity=".5"><mask id="a" maskUnits="userSpaceOnUse" x="11.703" y="62.447" width="120" height="87" fill="#000"><path fill="#fff" d="M11.703 62.447h120v87h-120z"/><path d="M15.703 119.332V76.447l1.675 2.61.745 1.679.372 1.678v33.562l.186 3.356.93 2.238 1.676 3.17 1.302 2.237 1.675 2.051 2.234 2.424 2.233 1.678 2.047 1.305 1.862.933 2.047.932 2.42.559 2.977.187 3.536-.187h2.792l2.42-.746 1.489-.745 2.605-1.306 1.861-.932 2.234-1.678 1.303-1.305 1.302-1.492 1.303-1.491 1.861-2.611.745-1.678.744-1.865.372-2.051.559-1.678.744-1.864.559-.933 1.488-.932 1.675-.559h1.303l1.303.373 1.489 1.118.93 1.492.373 1.678.186 2.051.186 2.051.186 2.424.558 2.238.745 1.864 1.117 2.238 1.675 2.424 1.489 1.678 1.303 1.491 2.233 1.865 1.861 1.492 2.42 1.305 2.791.932 2.978.746 2.42.186h3.164l3.35-.559 2.419-.559 2.978-1.305 2.233-1.306 2.792-2.051 2.606-2.424 1.675-2.61 1.116-1.678 1.117-2.424.745-1.865.558-2.424.744-2.237.745-2.61.372-1.865.372-1.678.373-1.492.558-1.119.558-.372.745.186.558.746v1.305l-.186 1.119-.558 2.61-.931 3.356-.931 3.916-.93 2.983-1.303 2.984-1.861 2.796-1.861 2.424-2.42 2.424-2.419 1.678-3.35 2.051-2.792 1.306-2.792 1.118-2.792.373h-3.536l-2.42-.186-2.419-.373-2.42-.559-2.046-.746-1.49-.56-1.675-.932-1.674-.932-1.303-.746-1.117-.932-1.489-1.492-1.489-1.678-1.303-1.865-1.302-1.864-.931-1.492-.745-1.864-.744-1.679-.558-1.678-.372-1.305-.187-2.051-.186-1.864-.186-2.051-.372-1.306-.93-1.118-1.303-.187-.745.373-.93 1.119-.373 1.305-.558 2.424-.745 2.051-1.488 3.17-2.048 3.169-2.605 2.984-3.35 2.797-4.281 2.61-4.095 1.492-4.28.746h-4.095l-5.397-.746-5.397-2.424-4.467-2.984-3.536-3.729-3.537-5.593-2.047-5.408z"/></mask><path d="M15.703 119.332V76.447l1.675 2.61.745 1.679.372 1.678v33.562l.186 3.356.93 2.238 1.676 3.17 1.302 2.237 1.675 2.051 2.234 2.424 2.233 1.678 2.047 1.305 1.862.933 2.047.932 2.42.559 2.977.187 3.536-.187h2.792l2.42-.746 1.489-.745 2.605-1.306 1.861-.932 2.234-1.678 1.303-1.305 1.302-1.492 1.303-1.491 1.861-2.611.745-1.678.744-1.865.372-2.051.559-1.678.744-1.864.559-.933 1.488-.932 1.675-.559h1.303l1.303.373 1.489 1.118.93 1.492.373 1.678.186 2.051.186 2.051.186 2.424.558 2.238.745 1.864 1.117 2.238 1.675 2.424 1.489 1.678 1.303 1.491 2.233 1.865 1.861 1.492 2.42 1.305 2.791.932 2.978.746 2.42.186h3.164l3.35-.559 2.419-.559 2.978-1.305 2.233-1.306 2.792-2.051 2.606-2.424 1.675-2.61 1.116-1.678 1.117-2.424.745-1.865.558-2.424.744-2.237.745-2.61.372-1.865.372-1.678.373-1.492.558-1.119.558-.372.745.186.558.746v1.305l-.186 1.119-.558 2.61-.931 3.356-.931 3.916-.93 2.983-1.303 2.984-1.861 2.796-1.861 2.424-2.42 2.424-2.419 1.678-3.35 2.051-2.792 1.306-2.792 1.118-2.792.373h-3.536l-2.42-.186-2.419-.373-2.42-.559-2.046-.746-1.49-.56-1.675-.932-1.674-.932-1.303-.746-1.117-.932-1.489-1.492-1.489-1.678-1.303-1.865-1.302-1.864-.931-1.492-.745-1.864-.744-1.679-.558-1.678-.372-1.305-.187-2.051-.186-1.864-.186-2.051-.372-1.306-.93-1.118-1.303-.187-.745.373-.93 1.119-.373 1.305-.558 2.424-.745 2.051-1.488 3.17-2.048 3.169-2.605 2.984-3.35 2.797-4.281 2.61-4.095 1.492-4.28.746h-4.095l-5.397-.746-5.397-2.424-4.467-2.984-3.536-3.729-3.537-5.593-2.047-5.408z" stroke="#39424A" stroke-width="8" mask="url(#a)"/></g><g opacity=".5"><mask id="b" maskUnits="userSpaceOnUse" x="11.703" y="152.692" width="120" height="87" fill="#000"><path fill="#fff" d="M11.703 152.692h120v87h-120z"/><path d="M15.703 209.577v-42.885l1.675 2.611.745 1.678.372 1.678v33.562l.186 3.356.93 2.238 1.676 3.17 1.302 2.237 1.675 2.051 2.234 2.424 2.233 1.678 2.047 1.305 1.862.933 2.047.932 2.42.559 2.977.187 3.536-.187h2.792l2.42-.745 1.489-.746 2.605-1.305 1.861-.933 2.234-1.678 1.303-1.305 1.302-1.492 1.303-1.491 1.861-2.611.745-1.678.744-1.864.372-2.051.559-1.679.744-1.864.559-.932 1.488-.933 1.675-.559h1.303l1.303.373 1.489 1.119.93 1.491.373 1.678.186 2.051.186 2.051.186 2.424.558 2.238.745 1.864 1.117 2.238 1.675 2.424 1.489 1.678 1.303 1.492 2.233 1.864 1.861 1.492 2.42 1.305 2.791.932 2.978.746 2.42.187h3.164l3.35-.56 2.419-.559 2.978-1.305 2.233-1.306 2.792-2.051 2.606-2.424 1.675-2.61 1.116-1.678 1.117-2.424.745-1.865.558-2.423.744-2.238.745-2.61.372-1.865.372-1.678.373-1.492.558-1.118.558-.373.745.186.558.746v1.305l-.186 1.119-.558 2.61-.931 3.356-.931 3.916-.93 2.983-1.303 2.984-1.861 2.797-1.861 2.423-2.42 2.424-2.419 1.679-3.35 2.051-2.792 1.305-2.792 1.119-2.792.372h-3.536l-2.42-.186-2.419-.373-2.42-.559-2.046-.746-1.49-.56-1.675-.932-1.674-.932-1.303-.746-1.117-.932-1.489-1.492-1.489-1.678-1.303-1.865-1.302-1.864-.931-1.492-.745-1.864-.744-1.678-.558-1.679-.372-1.305-.187-2.051-.186-1.864-.186-2.051-.372-1.306-.93-1.118-1.303-.187-.745.373-.93 1.119-.373 1.305-.558 2.424-.745 2.051-1.488 3.17-2.048 3.17-2.605 2.983-3.35 2.797-4.281 2.61-4.095 1.492-4.28.746h-4.095l-5.397-.746-5.397-2.424-4.467-2.983-3.536-3.73-3.537-5.593-2.047-5.408z"/></mask><path d="M15.703 209.577v-42.885l1.675 2.611.745 1.678.372 1.678v33.562l.186 3.356.93 2.238 1.676 3.17 1.302 2.237 1.675 2.051 2.234 2.424 2.233 1.678 2.047 1.305 1.862.933 2.047.932 2.42.559 2.977.187 3.536-.187h2.792l2.42-.745 1.489-.746 2.605-1.305 1.861-.933 2.234-1.678 1.303-1.305 1.302-1.492 1.303-1.491 1.861-2.611.745-1.678.744-1.864.372-2.051.559-1.679.744-1.864.559-.932 1.488-.933 1.675-.559h1.303l1.303.373 1.489 1.119.93 1.491.373 1.678.186 2.051.186 2.051.186 2.424.558 2.238.745 1.864 1.117 2.238 1.675 2.424 1.489 1.678 1.303 1.492 2.233 1.864 1.861 1.492 2.42 1.305 2.791.932 2.978.746 2.42.187h3.164l3.35-.56 2.419-.559 2.978-1.305 2.233-1.306 2.792-2.051 2.606-2.424 1.675-2.61 1.116-1.678 1.117-2.424.745-1.865.558-2.423.744-2.238.745-2.61.372-1.865.372-1.678.373-1.492.558-1.118.558-.373.745.186.558.746v1.305l-.186 1.119-.558 2.61-.931 3.356-.931 3.916-.93 2.983-1.303 2.984-1.861 2.797-1.861 2.423-2.42 2.424-2.419 1.679-3.35 2.051-2.792 1.305-2.792 1.119-2.792.372h-3.536l-2.42-.186-2.419-.373-2.42-.559-2.046-.746-1.49-.56-1.675-.932-1.674-.932-1.303-.746-1.117-.932-1.489-1.492-1.489-1.678-1.303-1.865-1.302-1.864-.931-1.492-.745-1.864-.744-1.678-.558-1.679-.372-1.305-.187-2.051-.186-1.864-.186-2.051-.372-1.306-.93-1.118-1.303-.187-.745.373-.93 1.119-.373 1.305-.558 2.424-.745 2.051-1.488 3.17-2.048 3.17-2.605 2.983-3.35 2.797-4.281 2.61-4.095 1.492-4.28.746h-4.095l-5.397-.746-5.397-2.424-4.467-2.983-3.536-3.73-3.537-5.593-2.047-5.408z" stroke="#39424A" stroke-width="8" mask="url(#b)"/></g><g opacity=".5"><mask id="c" maskUnits="userSpaceOnUse" x="11.331" y="244.802" width="120" height="87" fill="#000"><path fill="#fff" d="M11.331 244.802h120v87h-120z"/><path d="M15.33 301.687v-42.885l1.676 2.611.744 1.678.373 1.678v33.562l.186 3.356.93 2.238 1.675 3.17 1.303 2.237 1.675 2.051 2.234 2.424 2.233 1.678 2.047 1.305 1.861.933 2.048.932 2.42.559 2.977.187 3.536-.187h2.792l2.42-.746 1.488-.745 2.606-1.306 1.861-.932 2.233-1.678 1.303-1.305 1.303-1.492 1.303-1.492 1.861-2.61.745-1.678.744-1.865.372-2.051.559-1.678.744-1.864.558-.933 1.49-.932 1.674-.559h1.303l1.303.373 1.489 1.118.93 1.492.373 1.678.186 2.051.186 2.051.186 2.424.558 2.238.745 1.864 1.117 2.238 1.674 2.424 1.49 1.678 1.302 1.491 2.234 1.865 1.86 1.492 2.42 1.305 2.792.932 2.978.746 2.42.186h3.163l3.35-.559 2.42-.559 2.978-1.306 2.233-1.305 2.792-2.051 2.605-2.424 1.675-2.61 1.117-1.678 1.117-2.424.744-1.865.559-2.424.744-2.237.745-2.611.372-1.864.372-1.678.372-1.492.559-1.119.558-.373.744.187.559.746v1.305l-.186 1.119-.559 2.61-.93 3.356-.931 3.916-.93 2.983-1.303 2.984-1.861 2.796-1.862 2.424-2.419 2.424-2.42 1.678-3.35 2.051-2.791 1.306-2.792 1.118-2.792.373h-3.536l-2.42-.186-2.419-.373-2.42-.559-2.047-.746-1.489-.56-1.675-.932-1.675-.932-1.302-.746-1.117-.932-1.49-1.492-1.488-1.678-1.303-1.865-1.303-1.864-.93-1.492-.745-1.864-.744-1.679-.558-1.678-.373-1.305-.186-2.051-.186-1.864-.186-2.052-.372-1.305-.93-1.118-1.304-.187-.744.373-.93 1.119-.373 1.305-.558 2.424-.745 2.051-1.489 3.17-2.047 3.169-2.606 2.984-3.35 2.797-4.28 2.61-4.095 1.492-4.28.745h-4.095l-5.397-.745-5.398-2.424-4.466-2.984-3.537-3.729-3.536-5.593-2.047-5.408z"/></mask><path d="M15.33 301.687v-42.885l1.676 2.611.744 1.678.373 1.678v33.562l.186 3.356.93 2.238 1.675 3.17 1.303 2.237 1.675 2.051 2.234 2.424 2.233 1.678 2.047 1.305 1.861.933 2.048.932 2.42.559 2.977.187 3.536-.187h2.792l2.42-.746 1.488-.745 2.606-1.306 1.861-.932 2.233-1.678 1.303-1.305 1.303-1.492 1.303-1.492 1.861-2.61.745-1.678.744-1.865.372-2.051.559-1.678.744-1.864.558-.933 1.49-.932 1.674-.559h1.303l1.303.373 1.489 1.118.93 1.492.373 1.678.186 2.051.186 2.051.186 2.424.558 2.238.745 1.864 1.117 2.238 1.674 2.424 1.49 1.678 1.302 1.491 2.234 1.865 1.86 1.492 2.42 1.305 2.792.932 2.978.746 2.42.186h3.163l3.35-.559 2.42-.559 2.978-1.306 2.233-1.305 2.792-2.051 2.605-2.424 1.675-2.61 1.117-1.678 1.117-2.424.744-1.865.559-2.424.744-2.237.745-2.611.372-1.864.372-1.678.372-1.492.559-1.119.558-.373.744.187.559.746v1.305l-.186 1.119-.559 2.61-.93 3.356-.931 3.916-.93 2.983-1.303 2.984-1.861 2.796-1.862 2.424-2.419 2.424-2.42 1.678-3.35 2.051-2.791 1.306-2.792 1.118-2.792.373h-3.536l-2.42-.186-2.419-.373-2.42-.559-2.047-.746-1.489-.56-1.675-.932-1.675-.932-1.302-.746-1.117-.932-1.49-1.492-1.488-1.678-1.303-1.865-1.303-1.864-.93-1.492-.745-1.864-.744-1.679-.558-1.678-.373-1.305-.186-2.051-.186-1.864-.186-2.052-.372-1.305-.93-1.118-1.304-.187-.744.373-.93 1.119-.373 1.305-.558 2.424-.745 2.051-1.489 3.17-2.047 3.169-2.606 2.984-3.35 2.797-4.28 2.61-4.095 1.492-4.28.745h-4.095l-5.397-.745-5.398-2.424-4.466-2.984-3.537-3.729-3.536-5.593-2.047-5.408z" stroke="#39424A" stroke-width="8" mask="url(#c)"/></g><g opacity=".5"><mask id="d" maskUnits="userSpaceOnUse" x="11.517" y="335.42" width="120" height="87" fill="#000"><path fill="#fff" d="M11.517 335.42h120v87h-120z"/><path d="M15.517 392.305V349.42l1.675 2.61.744 1.678.373 1.679v33.562l.186 3.356.93 2.237 1.675 3.17 1.303 2.238 1.675 2.051 2.234 2.424 2.233 1.678 2.047 1.305 1.861.932 2.048.933 2.42.559 2.977.186 3.536-.186h2.792l2.42-.746 1.488-.746 2.606-1.305 1.861-.932 2.234-1.678 1.302-1.305 1.303-1.492 1.303-1.492 1.861-2.61.745-1.678.744-1.865.372-2.051.559-1.678.744-1.865.558-.932 1.49-.932 1.674-.56h1.303l1.303.373 1.489 1.119.93 1.492.373 1.678.186 2.051.186 2.051.186 2.424.558 2.237.745 1.865 1.117 2.237 1.675 2.424 1.489 1.678 1.302 1.492 2.234 1.865 1.86 1.491 2.42 1.306 2.792.932 2.978.746 2.42.186h3.163l3.35-.559 2.42-.56 2.978-1.305 2.233-1.305 2.792-2.051 2.606-2.424 1.675-2.61 1.116-1.678 1.117-2.424.744-1.865.559-2.424.744-2.237.745-2.611.372-1.864.372-1.679.372-1.491.559-1.119.558-.373.745.187.558.745v1.306l-.186 1.118-.559 2.611-.93 3.356-.931 3.916-.93 2.983-1.303 2.983-1.861 2.797-1.861 2.424-2.42 2.424-2.419 1.678-3.35 2.051-2.792 1.305-2.792 1.119-2.792.373h-3.536l-2.42-.186-2.419-.373-2.42-.56-2.047-.746-1.489-.559-1.675-.932-1.675-.933-1.302-.745-1.117-.933-1.489-1.491-1.489-1.678-1.303-1.865-1.303-1.865-.93-1.491-.745-1.865-.744-1.678-.558-1.678-.373-1.305-.186-2.051-.186-1.865-.186-2.051-.372-1.305-.93-1.119-1.304-.186-.744.373-.93 1.118-.373 1.306-.558 2.424-.745 2.051-1.489 3.169-2.047 3.17L60 405.543l-3.35 2.797-4.281 2.611-4.095 1.491-4.28.746h-4.095l-5.397-.746-5.398-2.424-4.466-2.983-3.537-3.729-3.536-5.594-2.047-5.407z"/></mask><path d="M15.517 392.305V349.42l1.675 2.61.744 1.678.373 1.679v33.562l.186 3.356.93 2.237 1.675 3.17 1.303 2.238 1.675 2.051 2.234 2.424 2.233 1.678 2.047 1.305 1.861.932 2.048.933 2.42.559 2.977.186 3.536-.186h2.792l2.42-.746 1.488-.746 2.606-1.305 1.861-.932 2.234-1.678 1.302-1.305 1.303-1.492 1.303-1.492 1.861-2.61.745-1.678.744-1.865.372-2.051.559-1.678.744-1.865.558-.932 1.49-.932 1.674-.56h1.303l1.303.373 1.489 1.119.93 1.492.373 1.678.186 2.051.186 2.051.186 2.424.558 2.237.745 1.865 1.117 2.237 1.675 2.424 1.489 1.678 1.302 1.492 2.234 1.865 1.86 1.491 2.42 1.306 2.792.932 2.978.746 2.42.186h3.163l3.35-.559 2.42-.56 2.978-1.305 2.233-1.305 2.792-2.051 2.606-2.424 1.675-2.61 1.116-1.678 1.117-2.424.744-1.865.559-2.424.744-2.237.745-2.611.372-1.864.372-1.679.372-1.491.559-1.119.558-.373.745.187.558.745v1.306l-.186 1.118-.559 2.611-.93 3.356-.931 3.916-.93 2.983-1.303 2.983-1.861 2.797-1.861 2.424-2.42 2.424-2.419 1.678-3.35 2.051-2.792 1.305-2.792 1.119-2.792.373h-3.536l-2.42-.186-2.419-.373-2.42-.56-2.047-.746-1.489-.559-1.675-.932-1.675-.933-1.302-.745-1.117-.933-1.489-1.491-1.489-1.678-1.303-1.865-1.303-1.865-.93-1.491-.745-1.865-.744-1.678-.558-1.678-.373-1.305-.186-2.051-.186-1.865-.186-2.051-.372-1.305-.93-1.119-1.304-.186-.744.373-.93 1.118-.373 1.306-.558 2.424-.745 2.051-1.489 3.169-2.047 3.17L60 405.543l-3.35 2.797-4.281 2.611-4.095 1.491-4.28.746h-4.095l-5.397-.746-5.398-2.424-4.466-2.983-3.537-3.729-3.536-5.594-2.047-5.407z" stroke="#39424A" stroke-width="8" mask="url(#d)"/></g><g opacity=".5"><mask id="e" maskUnits="userSpaceOnUse" x="11.517" y="426.038" width="120" height="87" fill="#000"><path fill="#fff" d="M11.517 426.038h120v87h-120z"/><path d="M15.517 482.923v-42.885l1.675 2.61.744 1.679.373 1.678v33.562l.186 3.356.93 2.238 1.675 3.169 1.303 2.238 1.675 2.051 2.234 2.424 2.233 1.678 2.047 1.305 1.861.932 2.048.933 2.42.559 2.977.187 3.536-.187h2.792l2.42-.746 1.488-.746 2.606-1.305 1.861-.932 2.234-1.678 1.302-1.305 1.303-1.492 1.303-1.492 1.861-2.61.745-1.678.744-1.865.372-2.051.559-1.678.744-1.864.558-.933 1.49-.932 1.674-.559h1.303l1.303.373 1.489 1.118.93 1.492.373 1.678.186 2.051.186 2.051.186 2.424.558 2.238.745 1.864 1.117 2.238 1.675 2.424 1.489 1.678 1.302 1.491 2.234 1.865 1.86 1.492 2.42 1.305 2.792.932 2.978.746 2.42.186h3.163l3.35-.559 2.42-.559 2.978-1.306 2.233-1.305 2.792-2.051 2.606-2.424 1.675-2.61 1.116-1.678 1.117-2.424.744-1.865.559-2.424.744-2.237.745-2.611.372-1.864.372-1.678.372-1.492.559-1.119.558-.373.745.187.558.746v1.305l-.186 1.119-.559 2.61-.93 3.356-.931 3.916-.93 2.983-1.303 2.983-1.861 2.797-1.861 2.424-2.42 2.424-2.419 1.678-3.35 2.051-2.792 1.305-2.792 1.119-2.792.373h-3.536l-2.42-.186-2.419-.373-2.42-.56-2.047-.745-1.489-.56-1.675-.932-1.675-.932-1.302-.746-1.117-.932-1.489-1.492-1.489-1.678-1.303-1.865-1.303-1.864-.93-1.492-.745-1.865-.744-1.678-.558-1.678-.373-1.305-.186-2.051-.186-1.865-.186-2.051-.372-1.305-.93-1.119-1.304-.186-.744.373-.93 1.119-.373 1.305-.558 2.424-.745 2.051-1.489 3.17-2.047 3.169L60 496.162l-3.35 2.796-4.281 2.611-4.095 1.492-4.28.745h-4.095l-5.397-.745-5.398-2.424-4.466-2.984-3.537-3.729-3.536-5.594-2.047-5.407z"/></mask><path d="M15.517 482.923v-42.885l1.675 2.61.744 1.679.373 1.678v33.562l.186 3.356.93 2.238 1.675 3.169 1.303 2.238 1.675 2.051 2.234 2.424 2.233 1.678 2.047 1.305 1.861.932 2.048.933 2.42.559 2.977.187 3.536-.187h2.792l2.42-.746 1.488-.746 2.606-1.305 1.861-.932 2.234-1.678 1.302-1.305 1.303-1.492 1.303-1.492 1.861-2.61.745-1.678.744-1.865.372-2.051.559-1.678.744-1.864.558-.933 1.49-.932 1.674-.559h1.303l1.303.373 1.489 1.118.93 1.492.373 1.678.186 2.051.186 2.051.186 2.424.558 2.238.745 1.864 1.117 2.238 1.675 2.424 1.489 1.678 1.302 1.491 2.234 1.865 1.86 1.492 2.42 1.305 2.792.932 2.978.746 2.42.186h3.163l3.35-.559 2.42-.559 2.978-1.306 2.233-1.305 2.792-2.051 2.606-2.424 1.675-2.61 1.116-1.678 1.117-2.424.744-1.865.559-2.424.744-2.237.745-2.611.372-1.864.372-1.678.372-1.492.559-1.119.558-.373.745.187.558.746v1.305l-.186 1.119-.559 2.61-.93 3.356-.931 3.916-.93 2.983-1.303 2.983-1.861 2.797-1.861 2.424-2.42 2.424-2.419 1.678-3.35 2.051-2.792 1.305-2.792 1.119-2.792.373h-3.536l-2.42-.186-2.419-.373-2.42-.56-2.047-.745-1.489-.56-1.675-.932-1.675-.932-1.302-.746-1.117-.932-1.489-1.492-1.489-1.678-1.303-1.865-1.303-1.864-.93-1.492-.745-1.865-.744-1.678-.558-1.678-.373-1.305-.186-2.051-.186-1.865-.186-2.051-.372-1.305-.93-1.119-1.304-.186-.744.373-.93 1.119-.373 1.305-.558 2.424-.745 2.051-1.489 3.17-2.047 3.169L60 496.162l-3.35 2.796-4.281 2.611-4.095 1.492-4.28.745h-4.095l-5.397-.745-5.398-2.424-4.466-2.984-3.537-3.729-3.536-5.594-2.047-5.407z" stroke="#39424A" stroke-width="8" mask="url(#e)"/></g><g opacity=".5"><mask id="f" maskUnits="userSpaceOnUse" x="11.517" y="516.656" width="120" height="87" fill="#000"><path fill="#fff" d="M11.517 516.656h120v87h-120z"/><path d="M15.517 573.541v-42.885l1.675 2.611.744 1.678.373 1.678v33.562l.186 3.356.93 2.238 1.675 3.17 1.303 2.237 1.675 2.051 2.234 2.424 2.233 1.678 2.047 1.305 1.861.933 2.048.932 2.42.559 2.977.187 3.536-.187h2.792l2.42-.746 1.488-.745 2.606-1.306 1.861-.932 2.234-1.678 1.302-1.305 1.303-1.492 1.303-1.492 1.861-2.61.745-1.678.744-1.865.372-2.051.559-1.678.744-1.864.558-.933 1.49-.932 1.674-.559h1.303l1.303.373 1.489 1.118.93 1.492.373 1.678.186 2.051.186 2.051.186 2.424.558 2.238.745 1.864 1.117 2.238 1.675 2.424 1.489 1.678 1.302 1.491 2.234 1.865 1.86 1.492 2.42 1.305 2.792.932 2.978.746 2.42.186h3.163l3.35-.559 2.42-.559 2.978-1.306 2.233-1.305 2.792-2.051 2.606-2.424 1.675-2.61 1.116-1.678 1.117-2.424.744-1.865.559-2.424.744-2.237.745-2.611.372-1.864.372-1.678.372-1.492.559-1.119.558-.373.745.187.558.746v1.305l-.186 1.119-.559 2.61-.93 3.356-.931 3.916-.93 2.983-1.303 2.984-1.861 2.796-1.861 2.424-2.42 2.424-2.419 1.678-3.35 2.051-2.792 1.306-2.792 1.118-2.792.373h-3.536l-2.42-.186-2.419-.373-2.42-.559-2.047-.746-1.489-.56-1.675-.932-1.675-.932-1.302-.746-1.117-.932-1.489-1.492-1.489-1.678-1.303-1.865-1.303-1.864-.93-1.492-.745-1.864-.744-1.679-.558-1.678-.373-1.305-.186-2.051-.186-1.864-.186-2.052-.372-1.305-.93-1.118-1.304-.187-.744.373-.93 1.119-.373 1.305-.558 2.424-.745 2.051-1.489 3.17-2.047 3.169L60 586.78l-3.35 2.797-4.281 2.61-4.095 1.492-4.28.745h-4.095l-5.397-.745-5.398-2.424-4.466-2.984-3.537-3.729-3.536-5.593-2.047-5.408z"/></mask><path d="M15.517 573.541v-42.885l1.675 2.611.744 1.678.373 1.678v33.562l.186 3.356.93 2.238 1.675 3.17 1.303 2.237 1.675 2.051 2.234 2.424 2.233 1.678 2.047 1.305 1.861.933 2.048.932 2.42.559 2.977.187 3.536-.187h2.792l2.42-.746 1.488-.745 2.606-1.306 1.861-.932 2.234-1.678 1.302-1.305 1.303-1.492 1.303-1.492 1.861-2.61.745-1.678.744-1.865.372-2.051.559-1.678.744-1.864.558-.933 1.49-.932 1.674-.559h1.303l1.303.373 1.489 1.118.93 1.492.373 1.678.186 2.051.186 2.051.186 2.424.558 2.238.745 1.864 1.117 2.238 1.675 2.424 1.489 1.678 1.302 1.491 2.234 1.865 1.86 1.492 2.42 1.305 2.792.932 2.978.746 2.42.186h3.163l3.35-.559 2.42-.559 2.978-1.306 2.233-1.305 2.792-2.051 2.606-2.424 1.675-2.61 1.116-1.678 1.117-2.424.744-1.865.559-2.424.744-2.237.745-2.611.372-1.864.372-1.678.372-1.492.559-1.119.558-.373.745.187.558.746v1.305l-.186 1.119-.559 2.61-.93 3.356-.931 3.916-.93 2.983-1.303 2.984-1.861 2.796-1.861 2.424-2.42 2.424-2.419 1.678-3.35 2.051-2.792 1.306-2.792 1.118-2.792.373h-3.536l-2.42-.186-2.419-.373-2.42-.559-2.047-.746-1.489-.56-1.675-.932-1.675-.932-1.302-.746-1.117-.932-1.489-1.492-1.489-1.678-1.303-1.865-1.303-1.864-.93-1.492-.745-1.864-.744-1.679-.558-1.678-.373-1.305-.186-2.051-.186-1.864-.186-2.052-.372-1.305-.93-1.118-1.304-.187-.744.373-.93 1.119-.373 1.305-.558 2.424-.745 2.051-1.489 3.17-2.047 3.169L60 586.78l-3.35 2.797-4.281 2.61-4.095 1.492-4.28.745h-4.095l-5.397-.745-5.398-2.424-4.466-2.984-3.537-3.729-3.536-5.593-2.047-5.408z" stroke="#39424A" stroke-width="8" mask="url(#f)"/></g><g opacity=".5"><mask id="g" maskUnits="userSpaceOnUse" x="11.517" y="607.274" width="120" height="87" fill="#000"><path fill="#fff" d="M11.517 607.274h120v87h-120z"/><path d="M15.517 664.16v-42.886l1.675 2.611.744 1.678.373 1.678v33.562l.186 3.357.93 2.237 1.675 3.17 1.303 2.237 1.675 2.051 2.234 2.424 2.233 1.678 2.047 1.306 1.861.932 2.048.932 2.42.559 2.977.187 3.536-.187h2.792l2.42-.745 1.488-.746 2.606-1.305 1.861-.933 2.234-1.678 1.302-1.305 1.303-1.492 1.303-1.491 1.861-2.611.745-1.678.744-1.864.372-2.051.559-1.679.744-1.864.558-.932 1.49-.933 1.674-.559h1.303l1.303.373 1.489 1.119.93 1.491.373 1.678.186 2.051.186 2.051.186 2.424.558 2.238.745 1.864 1.117 2.238 1.675 2.424 1.489 1.678 1.302 1.492 2.234 1.864 1.86 1.492 2.42 1.305 2.792.932 2.978.746 2.42.187h3.163l3.35-.56 2.42-.559 2.978-1.305 2.233-1.306 2.792-2.051 2.606-2.423 1.675-2.611 1.116-1.678 1.117-2.424.744-1.864.559-2.424.744-2.238.745-2.61.372-1.865.372-1.678.372-1.492.559-1.118.558-.373.745.186.558.746v1.305l-.186 1.119-.559 2.61-.93 3.357-.931 3.915-.93 2.983-1.303 2.984-1.861 2.797-1.861 2.424-2.42 2.423-2.419 1.679-3.35 2.051-2.792 1.305-2.792 1.119-2.792.372h-3.536l-2.42-.186-2.419-.373-2.42-.559-2.047-.746-1.489-.559-1.675-.933-1.675-.932-1.302-.746-1.117-.932-1.489-1.492-1.489-1.678-1.303-1.864-1.303-1.865-.93-1.492-.745-1.864-.744-1.678-.558-1.678-.373-1.306-.186-2.051-.186-1.864-.186-2.051-.372-1.306-.93-1.118-1.304-.187-.744.373-.93 1.119-.373 1.305-.558 2.424-.745 2.051-1.489 3.17-2.047 3.17L60 677.398l-3.35 2.797-4.281 2.61-4.095 1.492-4.28.746h-4.095l-5.397-.746-5.398-2.424-4.466-2.983-3.537-3.73-3.536-5.593-2.047-5.407z"/></mask><path d="M15.517 664.16v-42.886l1.675 2.611.744 1.678.373 1.678v33.562l.186 3.357.93 2.237 1.675 3.17 1.303 2.237 1.675 2.051 2.234 2.424 2.233 1.678 2.047 1.306 1.861.932 2.048.932 2.42.559 2.977.187 3.536-.187h2.792l2.42-.745 1.488-.746 2.606-1.305 1.861-.933 2.234-1.678 1.302-1.305 1.303-1.492 1.303-1.491 1.861-2.611.745-1.678.744-1.864.372-2.051.559-1.679.744-1.864.558-.932 1.49-.933 1.674-.559h1.303l1.303.373 1.489 1.119.93 1.491.373 1.678.186 2.051.186 2.051.186 2.424.558 2.238.745 1.864 1.117 2.238 1.675 2.424 1.489 1.678 1.302 1.492 2.234 1.864 1.86 1.492 2.42 1.305 2.792.932 2.978.746 2.42.187h3.163l3.35-.56 2.42-.559 2.978-1.305 2.233-1.306 2.792-2.051 2.606-2.423 1.675-2.611 1.116-1.678 1.117-2.424.744-1.864.559-2.424.744-2.238.745-2.61.372-1.865.372-1.678.372-1.492.559-1.118.558-.373.745.186.558.746v1.305l-.186 1.119-.559 2.61-.93 3.357-.931 3.915-.93 2.983-1.303 2.984-1.861 2.797-1.861 2.424-2.42 2.423-2.419 1.679-3.35 2.051-2.792 1.305-2.792 1.119-2.792.372h-3.536l-2.42-.186-2.419-.373-2.42-.559-2.047-.746-1.489-.559-1.675-.933-1.675-.932-1.302-.746-1.117-.932-1.489-1.492-1.489-1.678-1.303-1.864-1.303-1.865-.93-1.492-.745-1.864-.744-1.678-.558-1.678-.373-1.306-.186-2.051-.186-1.864-.186-2.051-.372-1.306-.93-1.118-1.304-.187-.744.373-.93 1.119-.373 1.305-.558 2.424-.745 2.051-1.489 3.17-2.047 3.17L60 677.398l-3.35 2.797-4.281 2.61-4.095 1.492-4.28.746h-4.095l-5.397-.746-5.398-2.424-4.466-2.983-3.537-3.73-3.536-5.593-2.047-5.407z" stroke="#39424A" stroke-width="8" mask="url(#g)"/></g><g opacity=".5"><mask id="h" maskUnits="userSpaceOnUse" x="11.517" y="697.892" width="120" height="87" fill="#000"><path fill="#fff" d="M11.517 697.892h120v87h-120z"/><path d="M15.517 754.777v-42.885l1.675 2.61.744 1.679.373 1.678v33.562l.186 3.356.93 2.238 1.675 3.169 1.303 2.238 1.675 2.051 2.234 2.424 2.233 1.678 2.047 1.305 1.861.932 2.048.933 2.42.559 2.977.187 3.536-.187h2.792l2.42-.746 1.488-.746 2.606-1.305 1.861-.932 2.234-1.678 1.302-1.305 1.303-1.492 1.303-1.492 1.861-2.61.745-1.678.744-1.865.372-2.051.559-1.678.744-1.864.558-.933 1.49-.932 1.674-.559h1.303l1.303.373 1.489 1.118.93 1.492.373 1.678.186 2.051.186 2.051.186 2.424.558 2.238.745 1.864 1.117 2.238 1.675 2.424 1.489 1.678 1.302 1.491 2.234 1.865 1.86 1.491 2.42 1.306 2.792.932 2.978.746 2.42.186h3.163l3.35-.559 2.42-.559 2.978-1.306 2.233-1.305 2.792-2.051 2.606-2.424 1.675-2.61 1.116-1.678 1.117-2.424.744-1.865.559-2.424.744-2.237.745-2.611.372-1.864.372-1.678.372-1.492.559-1.119.558-.373.745.187.558.746v1.305l-.186 1.119-.559 2.61-.93 3.356-.931 3.916-.93 2.983-1.303 2.983-1.861 2.797-1.861 2.424-2.42 2.424-2.419 1.678-3.35 2.051-2.792 1.305-2.792 1.119-2.792.373h-3.536l-2.42-.186-2.419-.373-2.42-.56-2.047-.745-1.489-.56-1.675-.932-1.675-.932-1.302-.746-1.117-.933-1.489-1.491-1.489-1.678-1.303-1.865-1.303-1.864-.93-1.492-.745-1.865-.744-1.678-.558-1.678-.373-1.305-.186-2.051-.186-1.865-.186-2.051-.372-1.305-.93-1.119-1.304-.186-.744.373-.93 1.119-.373 1.305-.558 2.424-.745 2.051-1.489 3.17-2.047 3.169L60 768.016l-3.35 2.796-4.281 2.611-4.095 1.491-4.28.746h-4.095l-5.397-.746-5.398-2.423-4.466-2.984-3.537-3.729-3.536-5.594-2.047-5.407z"/></mask><path d="M15.517 754.777v-42.885l1.675 2.61.744 1.679.373 1.678v33.562l.186 3.356.93 2.238 1.675 3.169 1.303 2.238 1.675 2.051 2.234 2.424 2.233 1.678 2.047 1.305 1.861.932 2.048.933 2.42.559 2.977.187 3.536-.187h2.792l2.42-.746 1.488-.746 2.606-1.305 1.861-.932 2.234-1.678 1.302-1.305 1.303-1.492 1.303-1.492 1.861-2.61.745-1.678.744-1.865.372-2.051.559-1.678.744-1.864.558-.933 1.49-.932 1.674-.559h1.303l1.303.373 1.489 1.118.93 1.492.373 1.678.186 2.051.186 2.051.186 2.424.558 2.238.745 1.864 1.117 2.238 1.675 2.424 1.489 1.678 1.302 1.491 2.234 1.865 1.86 1.491 2.42 1.306 2.792.932 2.978.746 2.42.186h3.163l3.35-.559 2.42-.559 2.978-1.306 2.233-1.305 2.792-2.051 2.606-2.424 1.675-2.61 1.116-1.678 1.117-2.424.744-1.865.559-2.424.744-2.237.745-2.611.372-1.864.372-1.678.372-1.492.559-1.119.558-.373.745.187.558.746v1.305l-.186 1.119-.559 2.61-.93 3.356-.931 3.916-.93 2.983-1.303 2.983-1.861 2.797-1.861 2.424-2.42 2.424-2.419 1.678-3.35 2.051-2.792 1.305-2.792 1.119-2.792.373h-3.536l-2.42-.186-2.419-.373-2.42-.56-2.047-.745-1.489-.56-1.675-.932-1.675-.932-1.302-.746-1.117-.933-1.489-1.491-1.489-1.678-1.303-1.865-1.303-1.864-.93-1.492-.745-1.865-.744-1.678-.558-1.678-.373-1.305-.186-2.051-.186-1.865-.186-2.051-.372-1.305-.93-1.119-1.304-.186-.744.373-.93 1.119-.373 1.305-.558 2.424-.745 2.051-1.489 3.17-2.047 3.169L60 768.016l-3.35 2.796-4.281 2.611-4.095 1.491-4.28.746h-4.095l-5.397-.746-5.398-2.423-4.466-2.984-3.537-3.729-3.536-5.594-2.047-5.407z" stroke="#39424A" stroke-width="8" mask="url(#h)"/></g><path stroke="#39424A" stroke-width="4" d="M2 2h11.261v778H2z"/></svg>