<svg width="64" height="64" fill="none" xmlns="http://www.w3.org/2000/svg"><path d="M20 27.988h1.847c.05.008.102.012.153.012h7.5a8.559 8.559 0 005.1-1.7 6.515 6.515 0 013.4-1.259V26a1 1 0 001 1h6a1 1 0 001-1v-4a1 1 0 10-2 0v3h-4V10h4v8a1 1 0 002 0V9a1 1 0 00-1-1h-6a1 1 0 00-1 1v14.041a8.541 8.541 0 00-4.6 1.659 6.54 6.54 0 01-3.9 1.3h-7.347a.956.956 0 00-.153-.012h-2a1 1 0 01-.028-1.994.988.988 0 00.418-.114H22a1 1 0 000-2h-2a.96.96 0 00-.283.057A.978.978 0 0119 21a1 1 0 011-1h2a1 1 0 000-2h-2a1 1 0 110-2h2a1 1 0 000-2h-2a1 1 0 110-2h7a1 1 0 00.857-1.515l-.817-1.362a4.43 4.43 0 010-4.56l6.21 7.1A1 1 0 0034 12h1a1 1 0 000-2h-.546l-6.7-7.658a1 1 0 00-.72-.342.917.917 0 00-.74.292A6.424 6.424 0 0025.235 10H20a3 3 0 00-2.234 5 2.994 2.994 0 000 4 3 3 0 00-.01 3.994A3 3 0 0020 27.988zm30.926 1.478l-.62 3.611a1 1 0 001.452 1.054L55 32.426l3.242 1.7a1 1 0 001.45-1.054l-.618-3.611 2.626-2.553a1 1 0 00-.554-1.705l-3.625-.527-1.621-3.285a1.039 1.039 0 00-1.792 0l-1.623 3.285-3.625.527a1 1 0 00-.554 1.705l2.62 2.558zm2.363-2.887a1 1 0 00.753-.547l.958-1.94.958 1.94a1 1 0 00.753.547l2.14.312L57.3 28.4a1 1 0 00-.287.885l.365 2.133-1.914-1.007a1 1 0 00-.932 0l-1.912 1.007.365-2.133a1 1 0 00-.285-.885l-1.55-1.509 2.139-.312zM4.926 29.466l-.62 3.611a1 1 0 001.452 1.054L9 32.426l3.242 1.7a1 1 0 001.45-1.054l-.618-3.611 2.626-2.553a1 1 0 00-.554-1.705l-3.625-.527L9.9 21.391a1.039 1.039 0 00-1.792 0L6.48 24.676l-3.625.524a1 1 0 00-.556 1.708l2.626 2.558zm2.363-2.887a1 1 0 00.753-.547L9 24.092l.958 1.94a1 1 0 00.753.547l2.14.312L11.3 28.4a1 1 0 00-.287.885l.365 2.133-1.912-1.007a1 1 0 00-.932 0L6.62 31.418l.365-2.133A1 1 0 006.7 28.4l-1.551-1.509 2.14-.312zm33.003 5.591a1 1 0 00-.553 1.922 27.602 27.602 0 015.574 2.3l-2.527 4.3A22.813 22.813 0 0033 38.025v-4.989a28.27 28.27 0 012.964.249 1 1 0 10.281-1.98A30.375 30.375 0 0032 31 30.034 30.034 0 002 61a1 1 0 001 1h3a1 1 0 000-2H4.018c.15-4.296 1.295-8.5 3.344-12.278l4.313 2.528A22.856 22.856 0 009 61a1 1 0 102 0 21 21 0 1142 0 1 1 0 001 1h7a1 1 0 001-1 30.125 30.125 0 00-21.708-28.83zM31 38.025a22.844 22.844 0 00-9.479 2.511l-2.476-4.351A27.793 27.793 0 0131 33.025v5zm-18.31 10.5L8.369 46a28.218 28.218 0 018.941-8.82l2.474 4.346a23.173 23.173 0 00-7.094 7.002v-.003zm31.819-6.819l2.525-4.293a28.2 28.2 0 018.774 8.94L51.487 48.8a23.176 23.176 0 00-6.978-7.091v-.003zM54.979 60a22.853 22.853 0 00-2.5-9.459l4.32-2.447A27.855 27.855 0 0159.982 60h-5.003z" fill="#F9A34F"/><path d="M39.5 43.51a2.165 2.165 0 00-2.771.535l-5.979 7.619c-.015 0-.03 0-.044.007a5 5 0 106.123 3.535c0-.015-.012-.027-.016-.042l3.608-8.987a2.162 2.162 0 00-.921-2.667zM34.6 58a3 3 0 11-5.196-3.002A3 3 0 0134.6 58zm3.967-12.568l-3.033 7.557a4.501 4.501 0 00-2.256-1.3L38.3 45.28a.157.157 0 01.2-.038.154.154 0 01.065.19h.002z" fill="#F9A34F"/><path d="M32.259 57.465a1 1 0 10-.518-1.931 1 1 0 00.518 1.931zm10.931-9.246a1 1 0 10-1.32 1.5 15.008 15.008 0 014.652 7.53 1 1 0 001.936-.5 16.993 16.993 0 00-5.268-8.53zM31.992 46c.029 0 .139.009.168.009a.967.967 0 00.959-.958 1.036 1.036 0 00-.951-1.043c-.03 0-.14-.009-.168-.009A17 17 0 0015.53 56.75a1 1 0 101.938.5A15 15 0 0131.988 46h.004z" fill="#F9A34F"/></svg>