<svg width="64" height="64" fill="none" xmlns="http://www.w3.org/2000/svg"><path d="M39.757 39.03L31.877 41H28a4.99 4.99 0 00-.746 9.925l.714 2.141a2.87 2.87 0 00-.82.736L24 58v-2a4.992 4.992 0 00-3.053-4.606 1 1 0 10-.78 1.841A3 3 0 0122 56v5a1 1 0 001.8.6l4.948-6.6a.853.853 0 011.392.985l-2.972 4.458a1 1 0 101.664 1.11L31.8 57.1c.034-.051.054-.106.084-.158a2.875 2.875 0 002.228-3.753l-.59-1.774 6.231 1.558A1 1 0 0041 52v-3a1 1 0 00-2 0v1.719l-6-1.5v-6.438l6-1.5V45a1 1 0 002 0v-5a1 1 0 00-1.243-.97zM25 46a3 3 0 013-3h3v6h-3a3 3 0 01-3-3zm4.96 6.715L29.387 51h1.891l.94 2.819a.881.881 0 01-.105.763 2.794 2.794 0 00-2.155-1.867zM17 39a1 1 0 100-2 1 1 0 000 2z" fill="#F9A34F"/><path d="M21 47a1 1 0 00-1-1 3.007 3.007 0 01-2.829-2H20c.198 0 .39-.059.555-.168l3-2a1 1 0 00.3-1.347l-.814-1.357a20.046 20.046 0 001.959-8.6V27a1 1 0 00-1-1H13A10.011 10.011 0 003 36a9.344 9.344 0 001.119 4.4 1 1 0 101.762-.946A7.344 7.344 0 015 36a8.009 8.009 0 018-8h10v2.528A18 18 0 0121.765 37L21 35.723V34a3 3 0 00-3-3h-2.754A3.249 3.249 0 0012 34.246a1.244 1.244 0 01-.944 1.209l-.6.149A3.242 3.242 0 008 38.754V51H7a5.006 5.006 0 00-5 5v5a1 1 0 102 0v-5a3 3 0 013-3h1.556A3.987 3.987 0 0012 55h4a1 1 0 001-1v-3a4 4 0 004-4zm-6 6h-3a2 2 0 01-2-2v-1.54A5.969 5.969 0 0014 51h1v2zm2-4h-3a4 4 0 01-4-4v-6.246a1.244 1.244 0 01.944-1.209l.6-.149A3.242 3.242 0 0014 34.246 1.247 1.247 0 0115.246 33H18a1 1 0 011 1v2a1 1 0 00.143.515l2.509 4.185L19.7 42H16a1 1 0 00-1 1 5.01 5.01 0 003.807 4.856A2 2 0 0117 49zm2 9a1 1 0 00-1 1v2a1 1 0 002 0v-2a1 1 0 00-1-1z" fill="#F9A34F"/><path d="M7 58a1 1 0 00-1 1v2a1 1 0 102 0v-2a1 1 0 00-1-1zm40-13h-3a1 1 0 000 2h3a1 1 0 000-2zm-3-2a.998.998 0 00.316-.05l3-1a1.001 1.001 0 10-.632-1.9l-3 1a1 1 0 00.317 1.95zm3.316 7.051l-3-1a1 1 0 10-.632 1.9l3 1a1.001 1.001 0 10.632-1.9zM60 14h-6a1 1 0 00-1 1v36a1 1 0 001 1h6a1 1 0 001-1V40a1 1 0 00-2 0v10h-4V16h4v20a1 1 0 002 0V15a1 1 0 00-1-1zm-11 5h-6a1 1 0 00-1 1v15a1 1 0 001 1h6a1 1 0 001-1v-4a1 1 0 00-2 0v3h-4V21h4v6a1 1 0 002 0v-7a1 1 0 00-1-1zm-10 9a1 1 0 000-2h-6a1 1 0 00-1 1v8a1 1 0 001 1h6a1 1 0 001-1v-4a1 1 0 00-2 0v3h-4v-6h5zM61 2h-4a1 1 0 100 2h1.442L47.609 14H45a1 1 0 000 2h3a1 1 0 00.678-.265L60 5.284V7a1 1 0 002 0V3a1 1 0 00-1-1zM41 14h-4a1 1 0 00-.707.293L29.586 21H17a1 1 0 000 2h13a1 1 0 00.707-.293L37.414 16H41a1 1 0 000-2zm-25.075-.795l-.383 2.234a1 1 0 001.451 1.055L19 15.438l2.007 1.056a1.008 1.008 0 00.887.02.998.998 0 00.564-1.075l-.383-2.234 1.625-1.582a.999.999 0 00-.554-1.706L20.9 9.59l-1-2.032a1.042 1.042 0 00-1.794 0l-1 2.032-2.244.327a1 1 0 00-.554 1.706l1.617 1.582zm1.983-1.711a1.001 1.001 0 00.753-.547l.34-.687.338.687a1 1 0 00.753.547l.76.11-.55.535a1 1 0 00-.288.885l.13.756-.679-.357a1.005 1.005 0 00-.93 0l-.679.357.13-.756a1 1 0 00-.288-.885l-.549-.535.76-.11zm10.017-3.289l-.383 2.234a1 1 0 001.451 1.055L31 10.438l2.007 1.056a1.008 1.008 0 00.887.02 1 1 0 00.564-1.075l-.383-2.234L35.7 6.623a1 1 0 00-.554-1.706L32.9 4.59l-1-2.032a1.04 1.04 0 00-1.794 0l-1 2.032-2.244.327a1 1 0 00-.562 1.706l1.625 1.582zm1.983-1.711a1 1 0 00.753-.547l.34-.687.338.687a1 1 0 00.753.547l.76.11-.55.535a1 1 0 00-.288.885l.13.756-.679-.357a1.005 1.005 0 00-.93 0l-.679.357.13-.756a1 1 0 00-.288-.885L29.15 6.6l.76-.106zM3.925 18.2l-.383 2.234a1 1 0 001.451 1.055L7 20.438l2.007 1.056a1.008 1.008 0 00.887.02 1 1 0 00.564-1.075l-.383-2.239 1.625-1.577a1 1 0 00-.554-1.706L8.9 14.59l-1-2.032a1.041 1.041 0 00-1.794 0l-1 2.032-2.244.327a1 1 0 00-.562 1.706L3.925 18.2zm1.983-1.711a1 1 0 00.753-.547l.34-.682.338.687a1 1 0 00.753.547l.76.11-.55.535a1 1 0 00-.288.885l.13.756-.679-.357a1.005 1.005 0 00-.93 0l-.679.357.13-.756a1 1 0 00-.288-.885L5.15 16.6l.76-.111z" fill="#F9A34F"/></svg>