<svg width="64" height="64" fill="none" xmlns="http://www.w3.org/2000/svg"><path d="M26.176 46.593H18.41a.937.937 0 100 1.875h7.766a.937.937 0 100-1.875zm0-3.88H18.41a.937.937 0 100 1.875h7.766a.937.937 0 100-1.875zm0-11.641H18.41a.937.937 0 100 1.875h7.766a.937.937 0 100-1.875zm0-7.76H18.41a.937.937 0 100 1.875h7.766a.937.937 0 100-1.875zm0 3.868H18.41a.937.937 0 100 1.875h7.766a.937.937 0 100-1.875zm0 7.773h-3.883a.937.937 0 100 1.875h3.883a.937.937 0 100-1.875zm0 3.88H18.41a.937.937 0 100 1.875h7.766a.937.937 0 100-1.875zM45.59 19.414H22.293a.937.937 0 100 1.875H45.59a.937.937 0 100-1.875zm0-3.883H18.41a.937.937 0 100 1.875h27.18a.937.937 0 100-1.875zm-23.297-2.007H45.59a.937.937 0 100-1.875H22.293a.937.937 0 100 1.875zm0-3.884h19.414a.937.937 0 100-1.874H22.293a.937.937 0 100 1.875z" fill="#F9A34F"/><path d="M53.365 0H17.269a3.683 3.683 0 00-3.679 3.679v50.68H6.762a.937.937 0 00-.937.938v3.883a4.825 4.825 0 004.82 4.82H45.59a4.826 4.826 0 004.82-4.82V18.379a.937.937 0 10-1.875 0V59.18a2.948 2.948 0 01-2.942 2.945h-.004a2.949 2.949 0 01-2.945-2.946v-3.882a.937.937 0 00-.938-.938H15.465V3.68c0-.995.81-1.804 1.804-1.804h32.275a4.794 4.794 0 00-1.009 2.946v9.472a.937.937 0 101.876 0V9.64h6.827c.518 0 .938-.42.938-.938V4.821A4.826 4.826 0 0053.365 0zm-42.72 62.125a2.95 2.95 0 01-2.792-2.008h33.01a4.8 4.8 0 00.913 2.008H10.645zm30.125-3.883H7.7v-2.008h33.07v2.008zM56.147 3.883h-5.583a2.95 2.95 0 012.792-2.008 2.95 2.95 0 012.79 2.008zM50.41 7.766V5.758h5.89v2.008h-5.89z" fill="#F9A34F"/><path d="M34.36 48.37l3.464-1.73 3.464 1.73c.568.284 1.356-.126 1.356-.839v-8.29A8.7 8.7 0 0046.527 32c0-4.799-3.904-8.703-8.703-8.703-4.798 0-8.702 3.904-8.702 8.703a8.7 8.7 0 003.882 7.242v8.29c.03.929.709 1.135 1.357.838zm6.41-2.355l-2.527-1.262a.937.937 0 00-.838 0l-2.526 1.262v-5.826c.92.332 1.912.514 2.946.514a8.66 8.66 0 002.944-.514v5.826zM30.996 32a6.836 6.836 0 016.828-6.828A6.835 6.835 0 0144.651 32a6.835 6.835 0 01-6.828 6.828A6.836 6.836 0 0130.998 32z" fill="#F9A34F"/><path d="M42.615 32a4.796 4.796 0 00-4.79-4.79 4.796 4.796 0 00-4.79 4.79 4.796 4.796 0 004.79 4.79 4.796 4.796 0 004.79-4.79zm-7.706 0a2.919 2.919 0 012.916-2.915A2.918 2.918 0 0140.74 32a2.918 2.918 0 01-2.915 2.915A2.919 2.919 0 0134.909 32zM18.41 13.524a.937.937 0 110-1.875.937.937 0 010 1.875zm0 7.766a.938.938 0 110-1.876.938.938 0 010 1.875zm0 15.538a.937.937 0 110-1.875.937.937 0 010 1.875z" fill="#F9A34F"/></svg>