<svg width="1920" height="772" fill="none" xmlns="http://www.w3.org/2000/svg"><path fill="#222C35" d="M0 0h1920v772H0z"/><mask id="a" maskUnits="userSpaceOnUse" x="0" y="0" width="1920" height="772"><path d="M0 0h1920v772H0V0z" fill="#222C35"/></mask><g mask="url(#a)"><path fill="#1B232A" d="M0 1h1920v771H0z"/><path opacity=".5" d="M1760 378c0 103.804-15.5 204-50 295.69C1592.83 970.047 1298.02 1178 960 1178c-335.356 0-626.574-199.347-745.5-492-37.758-92.914-54.5-201.528-54.5-308 0-98.883 17.197-194.075 50-281.5C323.767-206.708 617.055-422 960-422c343.19 0 636.41 215.451 750 519 31.5 87 49 182 50 281z" fill="#222C35"/></g><path opacity=".5" d="M211.141 100l8.692 3.55-5.683 15.044 61.009 20.622-3.009 7.945-60.507-20.961-5.015 15.89-6.686 24.003 62.179 16.903-2.674 7.607-61.51-16.397-4.513 17.242-4.68 22.313 63.181 13.353-2.006 7.776-63.014-12.847-3.009 18.087-3.677 21.974 63.182 9.635-1.17 8.114-63.015-8.79-2.674 17.411-2.675 22.989 64.352 5.578-.669 7.944-63.683-5.916-1.337 15.382-.835 26.539 64.017 1.183v8.283l-64.686-1.521v16.734l.669 24.341 64.017-2.028v7.944l-64.017 2.198 1.002 19.101 1.505 21.805 64.518-5.578v7.945l-63.85 6.085 2.508 20.284 2.841 20.622 63.182-9.635 1.17 7.776-63.182 10.311 3.176 16.227 4.346 23.834 62.513-13.522 1.671 8.113-62.011 13.692 9.193 39.723 61.677-17.072 2.006 7.775-61.678 17.749 5.015 17.918 7.187 20.622 60.34-20.622L278 639.56l-60.841 21.129 2.674 6.592-8.692 3.719-12.703-37.695-11.032-39.892-2.841-11.325-4.346-21.13-4.346-20.453-3.844-23.665-3.009-20.622-2.173-16.904-2.006-21.298-1.337-19.101-.668-13.016-.502-17.917-.334-7.945.167-31.102.836-22.989 1.671-26.877.836-11.663 2.006-18.932 1.17-10.987 2.674-17.749 1.17-7.099 1.337-8.283 1.338-8.621 3.175-17.918 3.009-14.199 2.507-11.494 4.179-16.396 4.847-18.594 10.029-33.3 8.19-23.834zm1497.719 0l-8.69 3.55 5.68 15.044-61.01 20.622 3.01 7.945 60.51-20.961 5.01 15.89 6.69 24.003-62.18 16.903 2.67 7.607 61.51-16.397 4.52 17.242 4.68 22.313-63.19 13.353 2.01 7.776 63.02-12.847 3 18.087 3.68 21.974-63.18 9.635 1.17 8.114 63.01-8.79 2.68 17.411 2.67 22.989-64.35 5.578.67 7.944 63.68-5.916 1.34 15.382.84 26.539-64.02 1.183v8.283l64.68-1.521v16.734l-.66 24.341-64.02-2.028v7.944l64.02 2.198-1.01 19.101-1.5 21.805-64.52-5.578v7.945l63.85 6.085-2.51 20.284-2.84 20.622-63.18-9.635-1.17 7.776 63.18 10.311-3.17 16.227-4.35 23.834-62.51-13.522-1.68 8.113 62.02 13.692-9.2 39.723-61.67-17.072-2.01 7.775 61.68 17.749-5.02 17.918-7.18 20.622-60.34-20.622-3.18 8.283 60.84 21.129-2.67 6.592 8.69 3.719 12.7-37.695 11.03-39.892 2.85-11.325 4.34-21.13 4.35-20.453 3.84-23.665 3.01-20.622 2.17-16.904 2.01-21.298 1.34-19.101.66-13.016.51-17.917.33-7.945-.17-31.102-.83-22.989-1.67-26.877-.84-11.663-2.01-18.932-1.17-10.987-2.67-17.749-1.17-7.099-1.34-8.283-1.33-8.621-3.18-17.918-3.01-14.199-2.51-11.494-4.17-16.396-4.85-18.594-10.03-33.3-8.19-23.834z" stroke="#39424A" stroke-width="3"/></svg>