<svg width="25" height="24" viewBox="0 0 25 24" fill="none" xmlns="http://www.w3.org/2000/svg">
<path d="M17 6V17.5C17 18.5609 16.5786 19.5783 15.8284 20.3284C15.0783 21.0786 14.0609 21.5 13 21.5C11.9391 21.5 10.9217 21.0786 10.1716 20.3284C9.42143 19.5783 9 18.5609 9 17.5V5C9 4.33696 9.26339 3.70107 9.73223 3.23223C10.2011 2.76339 10.837 2.5 11.5 2.5C12.163 2.5 12.7989 2.76339 13.2678 3.23223C13.7366 3.70107 14 4.33696 14 5V15.5C14 15.7652 13.8946 16.0196 13.7071 16.2071C13.5196 16.3946 13.2652 16.5 13 16.5C12.7348 16.5 12.4804 16.3946 12.2929 16.2071C12.1054 16.0196 12 15.7652 12 15.5V6H10.5V15.5C10.5 16.163 10.7634 16.7989 11.2322 17.2678C11.7011 17.7366 12.337 18 13 18C13.663 18 14.2989 17.7366 14.7678 17.2678C15.2366 16.7989 15.5 16.163 15.5 15.5V5C15.5 3.93913 15.0786 2.92172 14.3284 2.17157C13.5783 1.42143 12.5609 1 11.5 1C10.4391 1 9.42172 1.42143 8.67157 2.17157C7.92143 2.92172 7.5 3.93913 7.5 5V17.5C7.5 18.9587 8.07946 20.3576 9.11091 21.3891C10.1424 22.4205 11.5413 23 13 23C14.4587 23 15.8576 22.4205 16.8891 21.3891C17.9205 20.3576 18.5 18.9587 18.5 17.5V6H17Z" fill="white"/>
</svg>
