<svg width="64" height="64" viewBox="0 0 64 64" fill="none" xmlns="http://www.w3.org/2000/svg">
<g clip-path="url(#clip0)">
<path d="M61.3871 36.0968C59.3948 36.0968 57.7742 37.7174 57.7742 39.7097V46.9675C57.7742 48.4983 56.6315 49.8165 55.1151 50.0333L54.4668 50.1262C55.2431 49.0909 55.7096 47.8098 55.7096 46.4194C55.7096 43.0036 52.9318 40.2258 49.5161 40.2258C46.1004 40.2258 43.3225 43.0036 43.3225 46.4194C43.3225 47.8098 43.7891 49.0909 44.5654 50.1262L43.9171 50.0333C42.4007 49.8165 41.258 48.4983 41.258 46.9675V39.7097C41.258 37.7174 39.6374 36.0968 37.6451 36.0968C35.6529 36.0968 34.0322 37.7174 34.0322 39.7097V47.8584C34.0322 52.3033 37.2002 56.1402 41.5656 56.9814L42.2903 57.1208V65H56.7419V57.1208L57.4666 56.9814C61.832 56.1402 65 52.3033 65 47.8584V39.7097C65 37.7174 63.3793 36.0968 61.3871 36.0968ZM49.5161 42.2904C51.7933 42.2904 53.6451 44.1422 53.6451 46.4194C53.6451 48.6965 51.7933 50.5484 49.5161 50.5484C47.2389 50.5484 45.3871 48.6965 45.3871 46.4194C45.3871 44.1422 47.2389 42.2904 49.5161 42.2904ZM62.9355 47.8584C62.9355 51.3154 60.4704 54.2996 57.0753 54.9541L54.6774 55.4155V62.9355H44.3548V55.4155L41.9569 54.9531C38.5618 54.2996 36.0967 51.3154 36.0967 47.8584V39.7097C36.0967 38.856 36.7915 38.1613 37.6451 38.1613C38.4988 38.1613 39.1935 38.856 39.1935 39.7097V46.9675C39.1935 49.5193 41.0991 51.7159 43.625 52.0772L47.305 52.6026L49.4098 52.6078C49.4459 52.6078 49.48 52.6129 49.5161 52.6129H50.5484V52.6098L51.5806 52.6129L55.4072 52.0762C57.9331 51.7149 59.8387 49.5182 59.8387 46.9665V39.7097C59.8387 38.856 60.5334 38.1613 61.3871 38.1613C62.2407 38.1613 62.9355 38.856 62.9355 39.7097V47.8584Z" fill="#F9A34F"/>
<path d="M56.7419 21.6452V1H54.4957L40.1855 6.20361L54.6774 11.0346V21.6452H41.9579L30.8446 29.6472C30.6578 28.6253 30.1747 27.6828 29.4243 26.9324L26.8065 24.3146V18.3605C30.6454 17.448 33.8599 14.8219 35.5125 11.1987L37.8392 6.09419C38.0529 5.62348 38.1613 5.12387 38.1613 4.59226C38.1613 2.61239 36.5489 1 34.5174 1C33.1858 1 31.9894 1.74013 31.3948 2.93032L29.1972 7.32774C28.4395 8.8431 27.209 10.0013 25.7339 10.6723C26.4101 9.68026 26.8065 8.48284 26.8065 7.19355C26.8065 3.77781 24.0286 1 20.6129 1C17.1972 1 14.4194 3.77781 14.4194 7.19355C14.4194 8.79974 15.0387 10.2604 16.0452 11.3618C12.6635 11.561 9.60697 13.5915 8.16387 16.6841L3.39794 26.8973C3.1791 27.3639 3.06452 27.8821 3.06452 28.4085C3.06452 30.3708 4.66142 31.9677 6.67535 31.9677C8.02039 31.9677 9.2529 31.1791 9.81548 29.9579L14.4194 19.9801V40.5871C12.0173 41.4397 10.2903 43.7283 10.2903 46.4194C10.2903 47.8098 10.7569 49.0908 11.5332 50.1262L10.8849 50.0333C9.36852 49.8165 8.22581 48.4983 8.22581 46.9675V39.7097C8.22581 37.7174 6.60516 36.0968 4.6129 36.0968C2.62065 36.0968 1 37.7174 1 39.7097V47.8583C1 52.3032 4.168 56.1401 8.53342 56.9814L9.25806 57.1208V65H23.7097V57.1208L24.4343 56.9814C28.7997 56.1401 31.9677 52.3032 31.9677 47.8583V39.7097C31.9677 37.7174 30.3471 36.0968 28.3548 36.0968C26.3626 36.0968 24.7419 37.7174 24.7419 39.7097V46.9675C24.7419 48.4983 23.5992 49.8165 22.0828 50.0333L21.4346 50.1262C22.2108 49.0908 22.6774 47.8098 22.6774 46.4194C22.6774 43.8852 21.1455 41.704 18.9613 40.7461L42.6227 23.7097H65V21.6452H56.7419ZM46.4596 6.11897L54.6774 3.13058V8.85858L46.4596 6.11897ZM20.6129 3.06452C22.8901 3.06452 24.7419 4.91639 24.7419 7.19355C24.7419 9.47071 22.8901 11.3226 20.6129 11.3226C18.3357 11.3226 16.4839 9.47071 16.4839 7.19355C16.4839 4.91639 18.3357 3.06452 20.6129 3.06452V3.06452ZM13.7587 16.4839L7.9409 29.0939C7.71381 29.5853 7.21626 29.9032 6.62374 29.9032C5.79897 29.9032 5.12903 29.2333 5.12903 28.3972C5.12903 28.1814 5.17755 27.9646 5.26839 27.7695L10.0343 17.5574C11.2173 15.0243 13.7866 13.3871 16.5819 13.3871H22.7352C26.2769 13.3871 29.4604 11.4186 31.0439 8.25058L33.2415 3.85316C33.4841 3.36697 33.9724 3.06452 34.569 3.06452C35.4114 3.06452 36.0968 3.74994 36.0968 4.60774C36.0968 4.82658 36.0503 5.03819 35.9595 5.23845L33.6328 10.343C32.1443 13.608 29.1425 15.9089 25.6049 16.4983L24.7419 16.6418L24.7409 25.1693L27.9636 28.392C28.5406 28.968 28.871 29.7659 28.871 30.5814V31.0676L25.7742 33.2973V30.5081L22.0725 26.8065H19.5806V37.7566L16.4839 39.9863V16.4839H13.7587ZM23.7097 34.7837L21.6452 36.2702V29.2983L23.7097 31.3628V34.7837ZM22.375 52.0761C24.9009 51.7148 26.8065 49.5182 26.8065 46.9664V39.7097C26.8065 38.856 27.5012 38.1613 28.3548 38.1613C29.2085 38.1613 29.9032 38.856 29.9032 39.7097V47.8583C29.9032 51.3154 27.4382 54.2996 24.0431 54.9541L21.6452 55.4155V62.9355H11.3226V55.4155L8.92464 54.953C5.52955 54.2996 3.06452 51.3154 3.06452 47.8583V39.7097C3.06452 38.856 3.75923 38.1613 4.6129 38.1613C5.46658 38.1613 6.16129 38.856 6.16129 39.7097V46.9675C6.16129 49.5192 8.06684 51.7159 10.5928 52.0772L14.2728 52.6026L16.3775 52.6077C16.4137 52.6077 16.4477 52.6129 16.4839 52.6129H17.5161V52.6098L18.5484 52.6129L22.375 52.0761ZM20.6129 46.4194C20.6129 48.6965 18.761 50.5484 16.4839 50.5484C14.2067 50.5484 12.3548 48.6965 12.3548 46.4194C12.3548 44.1422 14.2067 42.2903 16.4839 42.2903C18.761 42.2903 20.6129 44.1422 20.6129 46.4194Z" fill="#F9A34F"/>
<path d="M44.355 25.7742H46.4195V27.8387H44.355V25.7742Z" fill="#F9A34F"/>
<path d="M48.4839 25.7742H50.5484V27.8387H48.4839V25.7742Z" fill="#F9A34F"/>
<path d="M52.6128 25.7742H54.6773V27.8387H52.6128V25.7742Z" fill="#F9A34F"/>
</g>
<defs>
<clipPath id="clip0">
<rect width="64" height="64" fill="white"/>
</clipPath>
</defs>
</svg>
