<svg width="64" height="64" viewBox="0 0 64 64" fill="none" xmlns="http://www.w3.org/2000/svg">
<path d="M1.76511 26.4384C2.65278 26.7218 3.39576 27.3388 3.83749 28.1592C3.90132 28.2796 3.99672 28.3802 4.11343 28.4504C4.23015 28.5206 4.36378 28.5577 4.49999 28.5577C4.51649 28.5577 4.53299 28.5577 4.54999 28.5561C4.69433 28.5465 4.83282 28.4954 4.94876 28.4089C5.06471 28.3224 5.15317 28.2042 5.20349 28.0686C5.53637 27.1901 6.19361 26.4728 7.03974 26.0645C7.17325 25.9986 7.28414 25.8945 7.35828 25.7654C7.43242 25.6363 7.46646 25.488 7.45606 25.3395C7.44566 25.191 7.39128 25.0489 7.29987 24.9314C7.20846 24.8139 7.08413 24.7262 6.94274 24.6796C6.05504 24.3963 5.31204 23.7793 4.87036 22.9589C4.80258 22.8311 4.69931 22.7257 4.57299 22.6553C4.44667 22.5849 4.3027 22.5525 4.1584 22.5621C4.01411 22.5716 3.87565 22.6226 3.7597 22.7091C3.64374 22.7955 3.55525 22.9136 3.50486 23.0491C3.17211 23.9277 2.51488 24.645 1.66874 25.0532C1.53526 25.1191 1.42441 25.2233 1.3503 25.3523C1.27619 25.4814 1.24216 25.6297 1.25257 25.7782C1.26297 25.9267 1.31732 26.0687 1.40871 26.1862C1.50009 26.3037 1.62438 26.3913 1.76574 26.438L1.76511 26.4384ZM4.30199 24.7259C4.5742 25.0176 4.87995 25.2762 5.21286 25.4962C4.90931 25.7627 4.6382 26.0639 4.40511 26.3937C4.13298 26.1019 3.82727 25.8433 3.49436 25.6232C3.79799 25.3567 4.06907 25.0551 4.30199 24.725V24.7259Z" fill="#F9A34F"/>
<path d="M52.6857 14.3851C53.5319 14.7932 54.1892 15.5105 54.5219 16.3891C54.5722 16.5247 54.6607 16.6429 54.7767 16.7294C54.8926 16.8159 55.0311 16.867 55.1754 16.8766C55.1921 16.8777 55.2086 16.8782 55.2254 16.8782C55.3616 16.8782 55.4953 16.8411 55.612 16.7709C55.7287 16.7007 55.8241 16.6 55.8879 16.4797C56.3296 15.6593 57.0725 15.0423 57.9602 14.759C58.1016 14.7124 58.2259 14.6247 58.3173 14.5072C58.4088 14.3897 58.4632 14.2477 58.4736 14.0991C58.484 13.9506 58.45 13.8024 58.3758 13.6732C58.3017 13.5441 58.1908 13.44 58.0573 13.3741C57.2111 12.9659 56.5539 12.2485 56.2211 11.37C56.1707 11.2344 56.0822 11.1163 55.9662 11.0299C55.8503 10.9435 55.7118 10.8925 55.5675 10.8829C55.4232 10.8734 55.2792 10.9058 55.1529 10.9762C55.0266 11.0466 54.9233 11.152 54.8556 11.2797C54.4137 12.1001 53.6706 12.7168 52.7828 13C52.6414 13.0466 52.5171 13.1342 52.4256 13.2517C52.3342 13.3692 52.2798 13.5113 52.2694 13.6598C52.259 13.8083 52.293 13.9566 52.3672 14.0857C52.4413 14.2148 52.5522 14.319 52.6857 14.3848V14.3851ZM55.4232 13.0455C55.6562 13.3753 55.9273 13.6765 56.2309 13.9428C55.898 14.1629 55.5922 14.4215 55.3201 14.7133C55.0871 14.3834 54.816 14.0822 54.5124 13.8158C54.8451 13.5958 55.1507 13.3372 55.4228 13.0455H55.4232Z" fill="#F9A34F"/>
<path d="M22.4185 33.2359C20.4664 33.2359 18.5581 33.8148 16.935 34.8994C15.3119 35.9839 14.0469 37.5254 13.2999 39.3289C12.5528 41.1324 12.3574 43.1169 12.7383 45.0315C13.1191 46.9461 14.0591 48.7048 15.4395 50.0851C16.8198 51.4654 18.5785 52.4054 20.4931 52.7863C22.4077 53.1671 24.3922 52.9716 26.1957 52.2246C27.9992 51.4775 29.5407 50.2125 30.6252 48.5894C31.7097 46.9663 32.2886 45.058 32.2886 43.1059C32.2856 40.4891 31.2448 37.9803 29.3944 36.13C27.544 34.2797 25.0353 33.2388 22.4185 33.2359ZM23.1685 34.7712C24.8648 34.9224 26.474 35.5899 27.7795 36.6837L26.6853 37.7779C25.6762 36.9659 24.456 36.4591 23.1685 36.3174V34.7712ZM21.6685 34.7712V36.3179C20.381 36.4597 19.1608 36.9664 18.1516 37.7784L17.0575 36.6842C18.3628 35.5902 19.9721 34.9226 21.6685 34.7712ZM15.9968 37.7448L17.091 38.839C16.279 39.8482 15.7723 41.0684 15.6306 42.3559H14.0838C14.2352 40.6594 14.9028 39.0501 15.9968 37.7448V37.7448ZM14.0843 43.8559H15.6311C15.7728 45.1434 16.2795 46.3635 17.0915 47.3727L15.9973 48.4669C14.9031 47.1616 14.2353 45.5524 14.0838 43.8559H14.0843ZM21.669 51.4405C19.9726 51.2893 18.3633 50.6219 17.058 49.528L18.1521 48.4339C19.1612 49.2459 20.3815 49.7526 21.669 49.8943V51.4405ZM17.089 43.1059C17.089 42.0517 17.4016 41.0212 17.9872 40.1447C18.5729 39.2682 19.4053 38.585 20.3793 38.1816C21.3532 37.7782 22.4249 37.6727 23.4588 37.8783C24.4927 38.084 25.4424 38.5916 26.1878 39.337C26.9333 40.0824 27.4409 41.0322 27.6465 42.0661C27.8522 43.1 27.7467 44.1717 27.3432 45.1456C26.9398 46.1195 26.2567 46.952 25.3802 47.5376C24.5036 48.1233 23.4731 48.4359 22.419 48.4359C21.0058 48.4344 19.6508 47.8724 18.6515 46.8732C17.6522 45.874 17.0901 44.5191 17.0885 43.1059H17.089ZM23.169 51.4405V49.8938C24.4565 49.7521 25.6767 49.2454 26.6858 48.4334L27.7801 49.5275C26.4746 50.6216 24.8651 51.2893 23.1685 51.4405H23.169ZM28.8407 48.4669L27.7466 47.3727C28.5585 46.3635 29.0652 45.1434 29.207 43.8559H30.7537C30.6021 45.5523 29.9343 47.1616 28.8402 48.4669H28.8407ZM29.207 42.3559C29.0652 41.0684 28.5585 39.8482 27.7466 38.839L28.8407 37.7448C29.9345 39.0503 30.6019 40.6595 30.7532 42.3559H29.207Z" fill="#F9A34F"/>
<path d="M22.4832 42.3943C22.2638 42.3905 22.0548 42.3007 21.901 42.1442C21.7472 41.9877 21.661 41.7771 21.661 41.5578C21.661 41.3384 21.7472 41.1278 21.901 40.9713C22.0548 40.8149 22.2638 40.7251 22.4832 40.7213C22.6102 40.7211 22.7355 40.7507 22.8491 40.8076C22.9627 40.8644 23.0614 40.9471 23.1373 41.0489C23.2574 41.2075 23.4356 41.3118 23.6326 41.3391C23.8297 41.3663 24.0295 41.3141 24.1881 41.194C24.3467 41.0739 24.451 40.8957 24.4783 40.6987C24.5055 40.5016 24.4533 40.3018 24.3332 40.1433C24.0454 39.7604 23.6456 39.4764 23.1893 39.3308V39.1558C23.1893 38.9568 23.1103 38.7661 22.9697 38.6254C22.829 38.4848 22.6382 38.4058 22.4393 38.4058C22.2404 38.4058 22.0496 38.4848 21.909 38.6254C21.7683 38.7661 21.6893 38.9568 21.6893 39.1558V39.3648C21.1754 39.5538 20.7441 39.9173 20.4709 40.3918C20.1976 40.8664 20.0997 41.4218 20.1943 41.9612C20.2888 42.5005 20.5698 42.9896 20.9881 43.3429C21.4065 43.6963 21.9356 43.8914 22.4832 43.8944C22.7033 43.8971 22.9135 43.9864 23.0682 44.143C23.2229 44.2996 23.3096 44.5108 23.3096 44.7309C23.3096 44.9511 23.2229 45.1623 23.0682 45.3189C22.9135 45.4755 22.7033 45.5648 22.4832 45.5675C22.3562 45.5676 22.2308 45.538 22.1173 45.4811C22.0037 45.4242 21.9049 45.3416 21.8289 45.2398C21.7695 45.1612 21.6951 45.0952 21.6101 45.0454C21.5251 44.9957 21.4312 44.9631 21.3336 44.9496C21.236 44.9362 21.1368 44.9421 21.0415 44.967C20.9462 44.9919 20.8567 45.0353 20.7782 45.0948C20.6997 45.1542 20.6337 45.2286 20.5839 45.3136C20.5341 45.3986 20.5015 45.4925 20.4881 45.5901C20.4746 45.6877 20.4805 45.7869 20.5054 45.8822C20.5303 45.9775 20.5737 46.067 20.6332 46.1455C20.9117 46.5156 21.2949 46.7936 21.7332 46.9434V47.0266C21.7332 47.2256 21.8122 47.4163 21.9529 47.557C22.0935 47.6976 22.2843 47.7766 22.4832 47.7766C22.6821 47.7766 22.8729 47.6976 23.0135 47.557C23.1542 47.4163 23.2332 47.2256 23.2332 47.0266V46.9403C23.754 46.7596 24.1942 46.4007 24.476 45.927C24.7579 45.4533 24.8633 44.8952 24.7735 44.3513C24.6838 43.8074 24.4047 43.3128 23.9857 42.9547C23.5666 42.5966 23.0344 42.3982 22.4832 42.3944V42.3943Z" fill="#F9A34F"/>
<path d="M38.0465 30.0352C38.1338 30.0399 38.216 30.078 38.2762 30.1415C38.3363 30.205 38.3699 30.2891 38.3699 30.3766C38.3699 30.4641 38.3363 30.5482 38.2762 30.6117C38.216 30.6752 38.1338 30.7132 38.0465 30.718C37.997 30.7176 37.9483 30.7057 37.9043 30.6831C37.8603 30.6606 37.8222 30.628 37.7931 30.588C37.734 30.5092 37.66 30.4428 37.5752 30.3926C37.4905 30.3424 37.3967 30.3094 37.2992 30.2955C37.2017 30.2816 37.1024 30.287 37.007 30.3114C36.9116 30.3359 36.8219 30.3789 36.7431 30.438C36.6643 30.4971 36.5979 30.5711 36.5478 30.6558C36.4976 30.7406 36.4646 30.8344 36.4506 30.9319C36.4367 31.0294 36.4421 31.1287 36.4666 31.2241C36.491 31.3195 36.534 31.4092 36.5931 31.488C36.778 31.7347 37.0226 31.9305 37.3039 32.0567C37.328 32.2365 37.4166 32.4014 37.5532 32.5208C37.6897 32.6402 37.8649 32.706 38.0463 32.706C38.2277 32.706 38.4029 32.6402 38.5394 32.5208C38.676 32.4014 38.7645 32.2365 38.7887 32.0567C39.1705 31.8832 39.4817 31.5846 39.6709 31.2104C39.8601 30.8362 39.9161 30.4086 39.8296 29.9983C39.743 29.5879 39.5192 29.2194 39.195 28.9534C38.8708 28.6874 38.4656 28.54 38.0462 28.5353C37.9589 28.5306 37.8767 28.4926 37.8165 28.4291C37.7564 28.3656 37.7228 28.2814 37.7228 28.194C37.7228 28.1065 37.7564 28.0223 37.8165 27.9588C37.8767 27.8953 37.9589 27.8573 38.0462 27.8526C38.0957 27.8529 38.1444 27.8648 38.1885 27.8874C38.2325 27.91 38.2706 27.9426 38.2997 27.9826C38.3588 28.0614 38.4329 28.1278 38.5176 28.1779C38.6024 28.2281 38.6962 28.2611 38.7937 28.275C38.8912 28.289 38.9905 28.2836 39.0859 28.2591C39.1813 28.2347 39.2709 28.1917 39.3497 28.1326C39.4285 28.0735 39.4949 27.9995 39.5451 27.9147C39.5953 27.83 39.6283 27.7362 39.6422 27.6386C39.6561 27.5411 39.6507 27.4419 39.6263 27.3464C39.6018 27.251 39.5588 27.1614 39.4997 27.0826C39.3152 26.8362 39.0712 26.6408 38.7905 26.5146C38.767 26.3339 38.6786 26.168 38.5417 26.0477C38.4049 25.9275 38.2289 25.8612 38.0467 25.8612C37.8646 25.8612 37.6886 25.9275 37.5517 26.0477C37.4149 26.168 37.3265 26.3339 37.303 26.5146C36.9215 26.6884 36.6108 26.9871 36.4219 27.3613C36.233 27.7355 36.1773 28.163 36.264 28.5731C36.3506 28.9832 36.5745 29.3516 36.8986 29.6174C37.2228 29.8832 37.6278 30.0305 38.047 30.0352H38.0465Z" fill="#F9A34F"/>
<path d="M9.00979 43.5625C8.99886 43.4646 8.96875 43.3699 8.92119 43.2836C8.87363 43.1974 8.80955 43.1213 8.73261 43.0598C8.65566 42.9983 8.56736 42.9526 8.47274 42.9253C8.37813 42.8979 8.27905 42.8895 8.18116 42.9004C8.08328 42.9113 7.98851 42.9414 7.90226 42.989C7.81601 43.0365 7.73997 43.1006 7.67849 43.1776C7.617 43.2545 7.57128 43.3428 7.54392 43.4374C7.51656 43.532 7.50811 43.6311 7.51904 43.729C7.78154 46.0761 8.38091 48.6326 9.30141 51.3274C9.36571 51.5156 9.50215 51.6706 9.68072 51.7582C9.85929 51.8459 10.0654 51.859 10.2536 51.7947C10.4418 51.7304 10.5968 51.594 10.6845 51.4154C10.7721 51.2368 10.7852 51.0307 10.7209 50.8425C9.84804 48.2875 9.25629 45.7703 9.00979 43.5625Z" fill="#F9A34F"/>
<path d="M8.12149 42.0643H8.12599C8.22448 42.0637 8.3219 42.0438 8.41267 42.0056C8.50345 41.9673 8.5858 41.9116 8.65504 41.8416C8.72428 41.7715 8.77904 41.6885 8.8162 41.5973C8.85336 41.5061 8.87219 41.4084 8.87161 41.3099C8.87045 41.1309 8.87199 40.9524 8.87624 40.7743C8.88095 40.5754 8.80644 40.3828 8.66912 40.2388C8.5318 40.0948 8.3429 40.0113 8.14399 40.0066C7.94508 40.0019 7.75244 40.0764 7.60846 40.2137C7.46448 40.351 7.38095 40.5399 7.37624 40.7388C7.37174 40.9279 7.36999 41.1231 7.37124 41.3187C7.3724 41.5169 7.45196 41.7066 7.59254 41.8463C7.73312 41.986 7.92329 42.0644 8.12149 42.0643V42.0643Z" fill="#F9A34F"/>
<path d="M61.9999 42.896H60.1804V36.2479C60.1804 36.049 60.1014 35.8582 59.9608 35.7176C59.8201 35.5769 59.6294 35.4979 59.4304 35.4979H54.3018C55.8112 29.0941 54.9193 25.2138 53.7078 22.9633C54.1463 22.6953 54.615 22.4803 55.1041 22.3226C55.2457 22.2769 55.3706 22.19 55.4627 22.073C55.5548 21.956 55.61 21.8143 55.6213 21.6658C55.6326 21.5174 55.5994 21.3689 55.5261 21.2394C55.4527 21.1098 55.3424 21.0051 55.2093 20.9384C53.7561 20.2257 52.632 18.9824 52.0688 17.465C52.0193 17.3292 51.9315 17.2106 51.8161 17.1234C51.7007 17.0363 51.5625 16.9844 51.4183 16.974C51.2741 16.9636 51.1299 16.9951 51.0032 17.0647C50.8764 17.1343 50.7725 17.2391 50.7039 17.3664C50.4937 17.7555 50.2412 18.1202 49.9509 18.4539C48.2849 16.7907 46.2858 15.4988 44.0851 14.6629C44.0598 14.3546 43.9546 14.0583 43.7797 13.8032C43.6049 13.548 43.3665 13.3429 43.0881 13.2081C43.8998 12.5941 44.5663 11.8088 45.0403 10.9081L47.0983 6.99714C47.1732 6.85531 47.2006 6.69323 47.1765 6.53468C47.1525 6.37613 47.0782 6.22946 46.9647 6.1162C46.8512 6.00294 46.7043 5.92905 46.5457 5.90537C46.3871 5.88169 46.2251 5.90948 46.0834 5.98464C45.0271 6.54452 43.6646 5.94514 42.7077 5.34389C41.7766 4.75303 40.7194 4.38978 39.6218 4.28356C38.5242 4.17735 37.4169 4.33115 36.3898 4.73252C34.7713 5.37964 33.9551 6.40752 33.6442 6.88814C30.6461 8.18327 28.9556 6.26015 28.8764 6.16715C28.7612 6.02859 28.5999 5.93616 28.4222 5.90677C28.2444 5.87737 28.0619 5.91297 27.9082 6.00706C27.7545 6.10114 27.6399 6.24743 27.5852 6.41914C27.5305 6.59085 27.5395 6.77651 27.6104 6.94214L29.0893 10.4093C29.6207 11.6523 30.5049 12.7122 31.6324 13.4579C31.4438 13.6178 31.2909 13.8157 31.1839 14.0387C31.0768 14.2616 31.018 14.5047 31.0112 14.7519C29.3166 15.4621 27.4411 16.6918 25.7926 18.1736C25.137 17.3867 24.291 16.7806 23.3351 16.4129C22.3079 16.0115 21.2007 15.8576 20.103 15.9638C19.0054 16.0701 17.9482 16.4333 17.0171 17.0243C16.0601 17.6255 14.6977 18.2243 13.6413 17.665C13.4997 17.5899 13.3376 17.5621 13.179 17.5857C13.0204 17.6094 12.8736 17.6833 12.7601 17.7966C12.6465 17.9098 12.5723 18.0565 12.5483 18.2151C12.5242 18.3736 12.5516 18.5357 12.6264 18.6775L14.6844 22.5885C15.1584 23.4892 15.825 24.2745 16.6367 24.8885C16.3583 25.0233 16.1199 25.2284 15.9451 25.4835C15.7702 25.7387 15.6649 26.035 15.6397 26.3433C13.4389 27.1791 11.4399 28.4711 9.77382 30.1344C9.48367 29.8006 9.23115 29.4359 9.02082 29.0469C8.95225 28.9196 8.84833 28.8148 8.72159 28.7452C8.59485 28.6756 8.45069 28.6441 8.30647 28.6545C8.16224 28.6649 8.02411 28.7168 7.90869 28.8039C7.79328 28.8911 7.7055 29.0097 7.65595 29.1455C7.09288 30.663 5.96869 31.9063 4.51545 32.6189C4.38233 32.6856 4.27207 32.7903 4.1987 32.9199C4.12534 33.0494 4.09219 33.1979 4.10348 33.3463C4.11476 33.4948 4.16998 33.6365 4.26209 33.7535C4.35419 33.8705 4.47903 33.9574 4.62069 34.0031C5.10945 34.1607 5.57783 34.3755 6.01607 34.6431C4.55745 37.3288 4.23832 40.9775 5.0702 45.5056C5.80132 49.4855 7.2117 52.9633 7.78407 54.2736C7.83358 54.3885 7.85588 54.5132 7.84922 54.6381C7.84257 54.763 7.80713 54.8846 7.7457 54.9935C7.25991 55.8803 7.00561 56.8753 7.00632 57.8864C7.01294 58.3857 7.21706 58.8621 7.57401 59.2114C7.93096 59.5606 8.4117 59.7543 8.91107 59.75C10.5669 59.7581 12.1599 59.1163 13.3477 57.9625L13.3572 57.9533C13.9438 57.3902 14.7255 57.076 15.5386 57.0764H29.2982C30.111 57.0759 30.8925 57.39 31.4789 57.9528L31.4899 57.9634C32.6776 59.1167 34.2702 59.7582 35.9257 59.75C36.3787 59.7474 36.8148 59.578 37.1507 59.274H60.5982C60.7971 59.274 60.9879 59.195 61.1285 59.0543C61.2692 58.9137 61.3482 58.7229 61.3482 58.524V51.8759H61.9999C62.1989 51.8759 62.3896 51.7969 62.5303 51.6562C62.6709 51.5156 62.7499 51.3248 62.7499 51.1259V43.646C62.7499 43.4471 62.6709 43.2563 62.5303 43.1157C62.3896 42.975 62.1989 42.896 61.9999 42.896V42.896ZM58.6804 36.9979V37.9763H50.4968V36.9979H58.6804ZM50.4968 40.4306V39.4763H58.6804V40.4306H50.4968ZM58.6804 41.9306V42.896H50.4968V41.9306H58.6804ZM51.2538 19.2375C51.7704 20.1113 52.4528 20.8757 53.2627 21.4875C52.3773 21.9683 51.5954 22.6189 50.9616 23.4021C50.4451 22.5283 49.7626 21.764 48.9527 21.1521C49.8381 20.6713 50.62 20.0207 51.2538 19.2375V19.2375ZM41.9097 6.61514C43.0231 7.31514 44.0762 7.68077 45.0298 7.70764L43.7124 10.2103C43.3094 10.9683 42.7351 11.6219 42.0352 12.1192C41.3353 12.6165 40.5292 12.9438 39.6807 13.075L40.7703 7.51464C40.7972 7.37817 40.7855 7.23692 40.7367 7.10668C40.6878 6.97644 40.6038 6.86234 40.4938 6.77714C40.4284 6.72652 39.3991 5.95514 37.5879 5.91789C38.318 5.73541 39.0775 5.70312 39.8204 5.82297C40.5633 5.94283 41.2741 6.21233 41.9097 6.61514V6.61514ZM42.5921 14.7976C42.5794 14.872 42.5418 14.9399 42.4856 14.9903C42.4294 15.0406 42.3578 15.0704 42.2824 15.0749H32.8184C32.7795 15.0791 32.7401 15.0751 32.7029 15.0631C32.6656 15.0511 32.6313 15.0313 32.6021 15.0052C32.573 14.979 32.5497 14.947 32.5337 14.9113C32.5178 14.8755 32.5095 14.8368 32.5095 14.7976C32.5095 14.7585 32.5178 14.7198 32.5337 14.684C32.5497 14.6482 32.573 14.6162 32.6021 14.5901C32.6313 14.5639 32.6656 14.5442 32.7029 14.5322C32.7401 14.5202 32.7795 14.5162 32.8184 14.5204H34.2374C34.6906 14.6074 35.151 14.6513 35.6124 14.6514H38.7542C39.2161 14.6513 39.6769 14.6074 40.1306 14.5204H42.2824C42.3602 14.5164 42.4363 14.5433 42.4943 14.5953C42.5523 14.6472 42.5875 14.7199 42.5921 14.7976V14.7976ZM30.4691 9.82139L29.9322 8.56252C30.9969 8.91952 32.5597 9.0649 34.4873 8.15552C36.8956 7.0194 38.5051 7.44377 39.1949 7.75289L38.1374 13.1514H35.6124C34.5229 13.1623 33.4543 12.8524 32.5397 12.2603C31.6251 11.6681 30.905 10.8199 30.4691 9.82139V9.82139ZM31.6182 16.1239C31.9502 16.4149 32.3767 16.5752 32.8182 16.5749H42.2824C42.7526 16.5724 43.2036 16.388 43.5407 16.0603C45.5253 16.8083 47.3299 17.9664 48.8366 19.4591C48.3077 19.8297 47.7262 20.1188 47.1116 20.3169C46.9699 20.3627 46.8451 20.4496 46.753 20.5665C46.6609 20.6835 46.6056 20.8252 46.5944 20.9737C46.5831 21.1221 46.6162 21.2706 46.6896 21.4001C46.7629 21.5297 46.8732 21.6345 47.0063 21.7011C48.4595 22.4139 49.5836 23.6574 50.1466 25.175C50.1961 25.3108 50.2838 25.4294 50.3991 25.5165C50.5144 25.6036 50.6524 25.6555 50.7966 25.666C50.8148 25.6674 50.8328 25.668 50.8508 25.668C50.9862 25.668 51.1191 25.6313 51.2353 25.5619C51.3515 25.4924 51.4468 25.3928 51.5109 25.2736C51.7794 24.7761 52.1166 24.3188 52.5124 23.9153C54.1951 27.2789 53.6404 31.9135 52.7593 35.4984H45.4771C46.8437 33.7545 47.5973 31.6087 47.6212 29.3933C47.6212 24.0058 43.2753 19.6215 37.9337 19.6215C35.8698 19.6215 33.7809 20.359 32.0514 21.6986C30.5449 22.8637 29.3832 24.4161 28.6902 26.19C28.6208 25.7803 28.4092 25.4081 28.0926 25.1389C29.2201 24.3932 30.1043 23.3333 30.6357 22.0903L32.1146 18.6231C32.1852 18.4576 32.1939 18.2722 32.1391 18.1008C32.0844 17.9294 31.9698 17.7833 31.8164 17.6894C31.6629 17.5954 31.4808 17.5597 31.3032 17.5889C31.1256 17.618 30.9644 17.71 30.8491 17.8481C30.7866 17.9218 29.5067 19.387 27.2079 18.9285C28.6387 17.7079 30.2058 16.7095 31.6182 16.1239V16.1239ZM48.9968 36.9979V42.896H46.0569V36.9979H48.9968ZM36.3732 40.4306V39.4763H44.5569V40.4306H36.3732ZM44.5569 41.9306V42.896H36.3732V41.9306H44.5569ZM36.3732 37.9763V36.9979H44.5569V37.9763H36.3732ZM32.7391 23.084C33.985 22.0258 35.5152 21.3586 37.1384 21.1658L37.1686 22.6473C35.9151 22.7901 34.7345 23.3097 33.7826 24.1375L32.7391 23.084ZM32.7591 25.2355C32.1656 26.03 31.7532 26.9447 31.5508 27.9155C31.0463 27.5839 30.524 27.2801 29.9862 27.0056C30.3678 25.9544 30.9381 24.9816 31.6689 24.1351L32.7591 25.2355ZM37.7966 24.1134C40.4436 24.1134 42.5966 26.3663 42.5966 29.1354C42.5966 31.9045 40.4431 34.1574 37.7966 34.1574C37.6794 34.1574 37.5421 34.1504 37.4023 34.1385C36.2324 32.1462 34.7161 30.3787 32.9249 28.9193C33.0999 26.2809 35.2584 24.1134 37.7961 24.1134H37.7966ZM41.9689 24.2543C41.0533 23.4084 39.9034 22.8588 38.6701 22.6775L38.6389 21.1536C40.3085 21.2991 41.892 21.9585 43.1713 23.0411L41.9689 24.2543ZM44.2263 24.1069C45.2901 25.3964 45.9386 26.9777 46.0866 28.6428H44.0768C43.9944 27.4793 43.6063 26.3582 42.9518 25.3928L44.2263 24.1069ZM42.9263 35.4979H39.1763C40.0998 35.2817 40.9612 34.8561 41.6941 34.254L42.9263 35.4979ZM44.2192 34.6716L42.7367 33.175C43.414 32.2887 43.8559 31.2454 44.0212 30.1423H46.0822C45.9102 31.8 45.2632 33.3728 44.2189 34.6716H44.2192ZM25.2374 19.8355C27.0383 20.6855 28.5988 20.6331 29.7938 20.2399L29.2557 21.5013C28.8198 22.4998 28.0997 23.348 27.1851 23.9401C26.2705 24.5323 25.2019 24.8422 24.1124 24.8313H21.5874L20.5296 19.4338C21.2249 19.1225 22.8329 18.7013 25.2374 19.8355ZM27.2158 26.4775C27.2112 26.5552 27.1761 26.6279 27.1181 26.6798C27.0602 26.7318 26.984 26.7587 26.9063 26.7548H17.4423C17.367 26.7503 17.2954 26.7205 17.2392 26.6701C17.183 26.6198 17.1454 26.5519 17.1327 26.4775C17.1373 26.3998 17.1724 26.3271 17.2304 26.2751C17.2884 26.2232 17.3646 26.1963 17.4423 26.2003H19.5942C20.0478 26.2873 20.5087 26.3312 20.9706 26.3313H24.1124C24.5739 26.3311 25.0343 26.2873 25.4874 26.2003H26.9064C26.9842 26.1963 27.0603 26.2233 27.1182 26.2752C27.1762 26.3271 27.2112 26.3998 27.2158 26.4775V26.4775ZM16.0118 21.89L14.6949 19.3875C15.6484 19.3605 16.7018 18.9944 17.8151 18.2949C18.4507 17.8921 19.1615 17.6226 19.9044 17.5027C20.6473 17.3828 21.4068 17.4151 22.1368 17.5975C20.3257 17.635 19.2964 18.406 19.2311 18.4568C19.1211 18.542 19.037 18.656 18.9881 18.7863C18.9393 18.9165 18.9276 19.0578 18.9544 19.1943L20.0442 24.7546C19.1958 24.6234 18.3896 24.2962 17.6897 23.799C16.9899 23.3017 16.4156 22.6481 16.0124 21.8901L16.0118 21.89ZM8.47094 30.9174C9.10482 31.7005 9.8868 32.3511 10.7722 32.8319C9.96221 33.4437 9.27976 34.208 8.76332 35.0819C8.12957 34.2987 7.34772 33.6481 6.46245 33.1673C7.27227 32.5555 7.95458 31.7912 8.47094 30.9174ZM37.4427 50.3759H36.7912C36.5923 50.3759 36.4015 50.4549 36.2609 50.5956C36.1202 50.7362 36.0412 50.927 36.0412 51.1259V58.2275C36.0042 58.2412 35.9652 58.2488 35.9258 58.25C34.6614 58.2572 33.4446 57.7683 32.5367 56.8883L32.5261 56.878C31.6624 56.0377 30.5032 55.57 29.2982 55.5758H15.5386C14.3333 55.5701 13.1739 56.0379 12.3101 56.8785L12.3009 56.8875C11.3929 57.7679 10.1758 58.2571 8.91107 58.25C8.86036 58.2529 8.80957 58.2457 8.76167 58.2288C8.71377 58.2119 8.6697 58.1857 8.63204 58.1516C8.59437 58.1175 8.56386 58.0763 8.54228 58.0303C8.5207 57.9843 8.50847 57.9345 8.50632 57.8838C8.50573 57.1256 8.69645 56.3795 9.06082 55.7146C9.23332 55.4048 9.33191 55.0594 9.34888 54.7052C9.36586 54.351 9.30077 53.9977 9.15869 53.6728C8.60707 52.4103 7.24844 49.0603 6.54544 45.234C5.80219 41.1876 6.02945 37.9535 7.21345 35.5965C7.60865 35.9997 7.94527 36.4564 8.21345 36.9533C8.27763 37.0725 8.3729 37.1721 8.48915 37.2416C8.6054 37.3111 8.73828 37.3477 8.87369 37.3478C8.89169 37.3478 8.90969 37.3478 8.92782 37.3458C9.07197 37.3352 9.21 37.2833 9.32532 37.1962C9.44063 37.109 9.52832 36.9904 9.57782 36.8546C10.1409 35.3372 11.2651 34.094 12.7183 33.3814C12.8514 33.3147 12.9617 33.2099 13.0351 33.0804C13.1084 32.9508 13.1416 32.8024 13.1303 32.6539C13.119 32.5055 13.0638 32.3638 12.9717 32.2468C12.8796 32.1298 12.7547 32.0429 12.6131 31.9971C11.9984 31.7991 11.4169 31.51 10.8881 31.1394C12.3947 29.6467 14.1992 28.4886 16.1838 27.7406C16.521 28.0683 16.9719 28.2526 17.4421 28.2551H26.9061C27.3494 28.2555 27.7776 28.0939 28.1102 27.8008C31.5196 29.1581 34.4937 31.9095 36.4497 35.4983H35.6229C35.424 35.4983 35.2333 35.5773 35.0926 35.7179C34.952 35.8586 34.8729 36.0494 34.8729 36.2483V43.6464C34.8729 43.8453 34.952 44.0361 35.0926 44.1767C35.2333 44.3174 35.424 44.3964 35.6229 44.3964H37.4424L37.4427 50.3759ZM45.7249 57.774H37.5412V56.8086H45.7249V57.774ZM45.7249 55.3086H37.5412V54.3543H45.7249V55.3086ZM45.7249 52.8543H37.5412V51.8759H45.7249V52.8543ZM47.1266 50.3759H38.9428V49.3288H47.1266V50.3759ZM47.1266 47.8288H38.9428V46.875H47.1266V47.8288ZM47.1266 45.3744H38.9428V44.396H47.1266V45.3744ZM50.1648 57.7744H47.2249V51.8759H50.1648V57.7744ZM51.5663 50.3763H48.6264V44.396H51.5662L51.5663 50.3763ZM59.8486 57.7744H51.6648V56.809H59.8486V57.7744ZM59.8486 55.309H51.6648V54.3546H59.8486V55.309ZM59.8486 52.8546H51.6648V51.8763H59.8486V52.8546ZM61.2499 50.3759H53.0662V49.3288H61.2499V50.3759ZM61.2499 47.8288H53.0662V46.875H61.2499V47.8288ZM61.2499 45.375H53.0662V44.3966H61.2499V45.375Z" fill="#F9A34F"/>
</svg>
