<svg width="64" height="64" viewBox="0 0 64 64" fill="none" xmlns="http://www.w3.org/2000/svg">
<path d="M44.2791 44.8896C44.7957 44.8896 45.2143 44.4709 45.2143 43.9544V36.5821C45.2143 36.0656 44.7956 35.6469 44.2791 35.6469H42.7033C42.1867 35.6469 41.7681 36.0656 41.7681 36.5821C41.7681 37.0986 42.1868 37.5174 42.7033 37.5174H43.3438V43.9544C43.3438 44.4709 43.7626 44.8896 44.2791 44.8896V44.8896Z" fill="#F9A34F"/>
<path d="M20.7775 43.2064C20.3659 43.5153 20.281 44.0993 20.5885 44.5126C20.772 44.7594 21.0541 44.8898 21.3396 44.8898C21.5336 44.8898 21.7294 44.8296 21.897 44.7049C21.9588 44.659 22.0178 44.6094 22.0764 44.5598C23.8173 43.0851 25.5265 40.1893 24.7743 37.8313C24.6289 37.3758 24.3639 36.9709 24.0282 36.6328C23.4558 36.0564 22.6654 35.7259 21.8529 35.7259C20.1615 35.7259 18.7856 37.1018 18.7856 38.7931C18.7856 40.4845 20.1615 41.8604 21.8529 41.8604C21.8928 41.8604 21.9323 41.8589 21.9718 41.8574C21.3931 42.725 20.7988 43.1899 20.7775 43.2064V43.2064ZM21.8529 39.9896C21.193 39.9896 20.6563 39.4529 20.6563 38.793C20.6563 38.1331 21.1931 37.5964 21.8529 37.5964C22.5127 37.5964 23.0494 38.1331 23.0494 38.793C23.0494 39.4529 22.5128 39.9896 21.8529 39.9896Z" fill="#F9A34F"/>
<path d="M26.3818 38.413V41.8224C26.3818 43.5136 27.7577 44.8896 29.449 44.8896C31.1402 44.8896 32.5161 43.5138 32.5161 41.8224V38.413C32.5161 36.7218 31.1402 35.3458 29.449 35.3458C27.7577 35.3458 26.3818 36.7218 26.3818 38.413ZM30.6455 38.413V41.8224C30.6455 42.4823 30.1087 43.019 29.449 43.019C28.7892 43.019 28.2525 42.4823 28.2525 41.8224V38.413C28.2525 37.7531 28.7892 37.2164 29.449 37.2164C30.1087 37.2164 30.6455 37.7533 30.6455 38.413Z" fill="#F9A34F"/>
<path d="M34.0596 38.413V41.8224C34.0596 43.5136 35.4354 44.8896 37.1267 44.8896C38.8181 44.8896 40.1939 43.5138 40.1939 41.8224V38.413C40.1939 36.7218 38.8181 35.3458 37.1267 35.3458C35.4354 35.3459 34.0596 36.7218 34.0596 38.413ZM38.3233 38.413V41.8224C38.3233 42.4823 37.7864 43.019 37.1267 43.019C36.4668 43.019 35.9302 42.4823 35.9302 41.8224V38.413C35.9302 37.7531 36.4669 37.2164 37.1267 37.2164C37.7866 37.2165 38.3233 37.7533 38.3233 38.413Z" fill="#F9A34F"/>
<path d="M60.6646 38.3399C62.7531 36.9024 64 34.5322 64 32C64 29.4678 62.7531 27.0976 60.6647 25.6601C59.8524 25.1009 59.5704 24.0486 59.9944 23.1581C61.0842 20.869 60.979 18.193 59.7129 16C58.4466 13.8071 56.1819 12.378 53.6545 12.1771C52.6714 12.099 51.901 11.3287 51.823 10.3457C51.8119 10.2052 51.7964 10.0613 51.777 9.91763C51.7076 9.40563 51.2352 9.0465 50.7245 9.11625C50.2126 9.1855 49.8539 9.65675 49.9231 10.1686C49.938 10.2781 49.9497 10.3874 49.9582 10.4937C50.1095 12.3984 51.6018 13.8907 53.5065 14.042C55.4201 14.194 57.1347 15.2756 58.093 16.9354C59.0512 18.5951 59.1306 20.6209 58.3055 22.3541C57.4841 24.0792 58.0304 26.1178 59.6043 27.201C61.1855 28.2894 62.1296 30.0835 62.1296 32C62.1296 33.9165 61.1855 35.7106 59.6041 36.799C58.0304 37.8822 57.4843 39.9207 58.3055 41.6459C59.1306 43.3791 59.0511 45.4049 58.093 47.0646C57.1346 48.7244 55.4201 49.806 53.5065 49.958C51.6016 50.1094 50.1095 51.6016 49.9582 53.5062C49.8061 55.42 48.7245 57.1346 47.0648 58.0928C45.4051 59.051 43.3796 59.1305 41.6461 58.3054C39.9211 57.4837 37.8826 58.0304 36.7993 59.6041C35.7108 61.1854 33.9168 62.1295 32.0003 62.1295C30.0838 62.1295 28.2898 61.1854 27.2013 59.6041C26.118 58.0304 24.0796 57.4841 22.3544 58.3054C20.6211 59.1306 18.5954 59.0511 16.9357 58.0928C15.2761 57.1346 14.1944 55.4201 14.0422 53.5064C13.891 51.6017 12.3989 50.1094 10.494 49.958C8.58038 49.806 6.86575 48.7244 5.9075 47.0646C4.94925 45.4049 4.86988 43.3791 5.695 41.6459C6.51638 39.9207 5.97012 37.8822 4.39625 36.799C2.815 35.7106 1.87088 33.9165 1.87088 32C1.87088 30.0835 2.815 28.2894 4.39638 27.201C5.97013 26.1178 6.51625 24.0792 5.695 22.3541C4.86988 20.6209 4.94937 18.5951 5.9075 16.9354C6.86587 15.2756 8.58038 14.194 10.494 14.042C12.3988 13.8907 13.891 12.3985 14.0422 10.4939C14.1944 8.58012 15.276 6.8655 16.9357 5.90725C18.5952 4.94912 20.6211 4.8695 22.3544 5.69475C24.0798 6.516 26.118 5.96975 27.2013 4.396C28.2898 2.81475 30.0838 1.87063 32.0003 1.87063C33.9168 1.87063 35.7108 2.81475 36.7993 4.396C37.8825 5.96962 39.9209 6.516 41.6461 5.69475C43.3795 4.8695 45.4051 4.949 47.0648 5.90725C47.5431 6.1835 47.9774 6.52312 48.3555 6.91675C48.7131 7.28912 49.3054 7.30125 49.678 6.94338C50.0506 6.5855 50.0625 5.9935 49.7046 5.62087C49.2045 5.10012 48.631 4.65138 48 4.28713C45.8069 3.021 43.1309 2.91587 40.842 4.00562C39.9515 4.42962 38.8993 4.14775 38.34 3.33525C36.9024 1.24687 34.5321 0 32 0C29.4679 0 27.0976 1.24687 25.6601 3.33525C25.1008 4.14762 24.0482 4.42937 23.1581 4.00562C20.8691 2.916 18.1933 3.021 16.0001 4.28713C13.8073 5.55313 12.3781 7.81787 12.1772 10.3456C12.0991 11.3287 11.3289 12.099 10.3457 12.1771C7.81825 12.378 5.55338 13.8071 4.28713 16C3.021 18.193 2.91587 20.869 4.00562 23.1581C4.4295 24.0486 4.14763 25.1009 3.33538 25.6601C1.24688 27.0976 0 29.4678 0 32C0 34.5322 1.24687 36.9024 3.33525 38.3399C4.14762 38.8991 4.42962 39.9514 4.00562 40.8419C2.91575 43.131 3.021 45.807 4.28713 48C5.55338 50.193 7.81813 51.622 10.3455 51.8229C11.3286 51.901 12.099 52.6712 12.177 53.6545C12.378 56.1821 13.8071 58.4469 15.9999 59.7127C18.1927 60.979 20.8689 61.0841 23.1579 59.9943C24.0486 59.5705 25.1006 59.8524 25.6599 60.6646C27.0976 62.7531 29.4679 64 32 64C34.5321 64 36.9024 62.7531 38.3399 60.6647C38.8992 59.8524 39.9517 59.5706 40.8419 59.9944C43.1309 61.0841 45.8069 60.9789 47.9999 59.7129C50.1927 58.4469 51.6219 56.1821 51.8228 53.6544C51.9009 52.6712 52.6711 51.901 53.6543 51.8229C56.1816 51.6221 58.4465 50.193 59.7126 48C60.9787 45.807 61.0839 43.131 59.9941 40.8419C59.5704 39.9514 59.8522 38.8991 60.6646 38.3399V38.3399Z" fill="#F9A34F"/>
<path d="M11.7631 39.5805C11.288 39.7833 11.0672 40.3328 11.27 40.8079C14.8201 49.1259 22.9571 54.5005 32.0001 54.5005C44.4228 54.5005 54.5294 44.3939 54.5294 31.9711C54.5294 19.5484 44.4228 9.44177 32.0001 9.44177C19.5773 9.44177 9.4707 19.5484 9.4707 31.9711C9.4707 33.4923 9.62333 35.0129 9.9242 36.4905C10.0273 36.9968 10.5215 37.3236 11.0275 37.2204C11.5336 37.1173 11.8603 36.6234 11.7573 36.1173C11.4812 34.762 11.3413 33.3671 11.3413 31.9711C11.3413 20.5799 20.6088 11.3124 32.0002 11.3124C43.3916 11.3124 52.6591 20.5799 52.6591 31.9711C52.6591 43.3624 43.3915 52.63 32.0001 52.63C23.7077 52.63 16.246 47.7014 12.9905 40.0738C12.7876 39.5986 12.2385 39.378 11.7631 39.5805V39.5805Z" fill="#F9A34F"/>
<path d="M21.5088 29.4279V19.988C21.5088 19.4715 21.0902 19.0527 20.5736 19.0527C20.0569 19.0527 19.6382 19.4715 19.6382 19.988V29.4279C19.6382 29.9444 20.0569 30.3631 20.5736 30.3631C21.0902 30.3631 21.5088 29.9444 21.5088 29.4279Z" fill="#F9A34F"/>
<path d="M27.8836 28.4925C26.8776 28.4925 25.9069 28.0843 25.2871 27.4004C24.9399 27.0175 24.3484 26.9887 23.9659 27.3355C23.5832 27.6824 23.5541 28.2739 23.9009 28.6567C24.8693 29.7252 26.3582 30.3632 27.8836 30.3632C29.7241 30.3632 31.3282 29.1522 31.6151 27.5463C31.8326 26.3277 31.267 24.731 29.0271 23.9048C27.8279 23.4624 26.7144 22.9799 26.4159 22.8489C26.1483 22.6483 26.0188 22.3309 26.0682 21.9877C26.1319 21.5439 26.4767 21.1867 26.9906 21.0318C28.4551 20.5908 29.7846 21.6535 29.8142 21.6775C30.2097 22.0064 30.7968 21.9544 31.1282 21.5603C31.4606 21.1649 31.4096 20.5749 31.0141 20.2424C30.9291 20.171 28.9042 18.5014 26.4511 19.2407C25.2401 19.6054 24.3838 20.5563 24.2164 21.7219C24.0603 22.8097 24.5316 23.8559 25.4463 24.4522C25.4876 24.479 25.5309 24.5027 25.5761 24.5228C25.6304 24.547 26.9232 25.1225 28.3797 25.6598C29.3767 26.0275 29.8847 26.5953 29.7737 27.2174C29.6617 27.8443 28.9242 28.4925 27.8836 28.4925V28.4925Z" fill="#F9A34F"/>
<path d="M44.3619 24.7079C44.3619 21.5896 41.825 19.0526 38.7066 19.0526C35.5883 19.0526 33.0513 21.5896 33.0513 24.7079C33.0513 27.8261 35.5883 30.3631 38.7066 30.3631C41.825 30.3631 44.3619 27.8262 44.3619 24.7079ZM34.922 24.7079C34.922 22.621 36.6198 20.9232 38.7068 20.9232C40.7935 20.9232 42.4914 22.621 42.4914 24.7079C42.4914 26.7947 40.7936 28.4925 38.7068 28.4925C36.6198 28.4925 34.922 26.7947 34.922 24.7079Z" fill="#F9A34F"/>
<path d="M15.1973 32.8063C15.1973 33.3228 15.6159 33.7416 16.1325 33.7416H47.8676C48.3843 33.7416 48.8029 33.3228 48.8029 32.8063C48.8029 32.2898 48.3843 31.8711 47.8676 31.8711H16.1326C15.616 31.8711 15.1973 32.2898 15.1973 32.8063Z" fill="#F9A34F"/>
</svg>
