<svg width="131" height="785" viewBox="0 0 131 785" fill="none" xmlns="http://www.w3.org/2000/svg">
<g opacity="0.5">
<mask id="path-1-outside-1" maskUnits="userSpaceOnUse" x="-0.703125" y="62.4473" width="120" height="87" fill="black">
<rect fill="white" x="-0.703125" y="62.4473" width="120" height="87"/>
<path d="M115.297 119.332V76.4473L113.622 79.0577L112.877 80.7358L112.505 82.4139V86.7024V105.348V112.806V115.976L112.319 119.332L111.388 121.57L109.713 124.74L108.411 126.977L106.736 129.028L104.502 131.452L102.269 133.13L100.222 134.435L98.3604 135.368L96.3131 136.3L93.8936 136.859L90.9158 137.046L87.3796 136.859H84.5879L82.1684 136.113L80.6794 135.368L78.0738 134.062L76.2127 133.13L73.9793 131.452L72.6765 130.147L71.3737 128.655L70.0709 127.164L68.2097 124.553L67.4653 122.875L66.7208 121.01L66.3486 118.959L65.7902 117.281L65.0458 115.417L64.4874 114.484L62.9985 113.552L61.3235 112.993H60.0207L58.7178 113.366L57.2289 114.484L56.2984 115.976L55.9261 117.654L55.74 119.705L55.5539 121.756L55.3678 124.18L54.8094 126.418L54.065 128.282L52.9483 130.52L51.2732 132.944L49.7843 134.622L48.4815 136.113L46.2481 137.978L44.387 139.47L41.9675 140.775L39.1758 141.707L36.1979 142.453L33.7784 142.639H30.6144L27.2644 142.08L24.8449 141.521L21.867 140.216L19.6337 138.91L16.8419 136.859L14.2363 134.435L12.5613 131.825L11.4446 130.147L10.3279 127.723L9.58343 125.858L9.02509 123.434L8.28062 121.197L7.53616 118.587L7.16393 116.722L6.7917 115.044L6.41947 113.552L5.86112 112.433L5.30278 112.061L4.55832 112.247L3.99998 112.993V114.298L4.18609 115.417L4.74443 118.027L5.67501 121.383L6.60558 125.299L7.53616 128.282L8.83897 131.266L10.7001 134.062L12.5613 136.486L14.9808 138.91L17.4003 140.588L20.7503 142.639L23.5421 143.945L26.3338 145.063L29.1255 145.436H32.6617L35.0812 145.25L37.5007 144.877L39.9202 144.318L41.9675 143.572L43.4564 143.012L45.1314 142.08L46.8065 141.148L48.1093 140.402L49.226 139.47L50.7149 137.978L52.2038 136.3L53.5066 134.435L54.8094 132.571L55.74 131.079L56.4845 129.215L57.2289 127.536L57.7873 125.858L58.1595 124.553L58.3456 122.502L58.5317 120.638L58.7178 118.587L59.0901 117.281L60.0207 116.163L61.3235 115.976L62.0679 116.349L62.9985 117.468L63.3707 118.773L63.9291 121.197L64.6735 123.248L66.1625 126.418L68.2097 129.587L70.8153 132.571L74.1654 135.368L78.4461 137.978L82.5406 139.47L86.8212 140.216H90.9158L96.3131 139.47L101.71 137.046L106.177 134.062L109.713 130.333L113.25 124.74L115.297 119.332Z"/>
</mask>
<path d="M115.297 119.332V76.4473L113.622 79.0577L112.877 80.7358L112.505 82.4139V86.7024V105.348V112.806V115.976L112.319 119.332L111.388 121.57L109.713 124.74L108.411 126.977L106.736 129.028L104.502 131.452L102.269 133.13L100.222 134.435L98.3604 135.368L96.3131 136.3L93.8936 136.859L90.9158 137.046L87.3796 136.859H84.5879L82.1684 136.113L80.6794 135.368L78.0738 134.062L76.2127 133.13L73.9793 131.452L72.6765 130.147L71.3737 128.655L70.0709 127.164L68.2097 124.553L67.4653 122.875L66.7208 121.01L66.3486 118.959L65.7902 117.281L65.0458 115.417L64.4874 114.484L62.9985 113.552L61.3235 112.993H60.0207L58.7178 113.366L57.2289 114.484L56.2984 115.976L55.9261 117.654L55.74 119.705L55.5539 121.756L55.3678 124.18L54.8094 126.418L54.065 128.282L52.9483 130.52L51.2732 132.944L49.7843 134.622L48.4815 136.113L46.2481 137.978L44.387 139.47L41.9675 140.775L39.1758 141.707L36.1979 142.453L33.7784 142.639H30.6144L27.2644 142.08L24.8449 141.521L21.867 140.216L19.6337 138.91L16.8419 136.859L14.2363 134.435L12.5613 131.825L11.4446 130.147L10.3279 127.723L9.58343 125.858L9.02509 123.434L8.28062 121.197L7.53616 118.587L7.16393 116.722L6.7917 115.044L6.41947 113.552L5.86112 112.433L5.30278 112.061L4.55832 112.247L3.99998 112.993V114.298L4.18609 115.417L4.74443 118.027L5.67501 121.383L6.60558 125.299L7.53616 128.282L8.83897 131.266L10.7001 134.062L12.5613 136.486L14.9808 138.91L17.4003 140.588L20.7503 142.639L23.5421 143.945L26.3338 145.063L29.1255 145.436H32.6617L35.0812 145.25L37.5007 144.877L39.9202 144.318L41.9675 143.572L43.4564 143.012L45.1314 142.08L46.8065 141.148L48.1093 140.402L49.226 139.47L50.7149 137.978L52.2038 136.3L53.5066 134.435L54.8094 132.571L55.74 131.079L56.4845 129.215L57.2289 127.536L57.7873 125.858L58.1595 124.553L58.3456 122.502L58.5317 120.638L58.7178 118.587L59.0901 117.281L60.0207 116.163L61.3235 115.976L62.0679 116.349L62.9985 117.468L63.3707 118.773L63.9291 121.197L64.6735 123.248L66.1625 126.418L68.2097 129.587L70.8153 132.571L74.1654 135.368L78.4461 137.978L82.5406 139.47L86.8212 140.216H90.9158L96.3131 139.47L101.71 137.046L106.177 134.062L109.713 130.333L113.25 124.74L115.297 119.332Z" stroke="#39424A" stroke-width="8" mask="url(#path-1-outside-1)"/>
</g>
<g opacity="0.5">
<mask id="path-2-outside-2" maskUnits="userSpaceOnUse" x="-0.703125" y="152.692" width="120" height="87" fill="black">
<rect fill="white" x="-0.703125" y="152.692" width="120" height="87"/>
<path d="M115.297 209.577V166.692L113.622 169.303L112.877 170.981L112.505 172.659V176.948V195.593V203.051V206.221L112.319 209.577L111.388 211.815L109.713 214.985L108.411 217.222L106.736 219.273L104.502 221.697L102.269 223.375L100.222 224.68L98.3604 225.613L96.3131 226.545L93.8936 227.104L90.9158 227.291L87.3796 227.104H84.5879L82.1684 226.359L80.6794 225.613L78.0738 224.308L76.2127 223.375L73.9793 221.697L72.6765 220.392L71.3737 218.9L70.0709 217.409L68.2097 214.798L67.4653 213.12L66.7208 211.256L66.3486 209.205L65.7902 207.526L65.0458 205.662L64.4874 204.73L62.9985 203.797L61.3235 203.238H60.0207L58.7178 203.611L57.2289 204.73L56.2984 206.221L55.9261 207.899L55.74 209.95L55.5539 212.001L55.3678 214.425L54.8094 216.663L54.065 218.527L52.9483 220.765L51.2732 223.189L49.7843 224.867L48.4815 226.359L46.2481 228.223L44.387 229.715L41.9675 231.02L39.1758 231.952L36.1979 232.698L33.7784 232.885H30.6144L27.2644 232.325L24.8449 231.766L21.867 230.461L19.6337 229.155L16.8419 227.104L14.2363 224.68L12.5613 222.07L11.4446 220.392L10.3279 217.968L9.58343 216.103L9.02509 213.68L8.28062 211.442L7.53616 208.832L7.16393 206.967L6.7917 205.289L6.41947 203.797L5.86112 202.679L5.30278 202.306L4.55832 202.492L3.99998 203.238V204.543L4.18609 205.662L4.74443 208.272L5.67501 211.628L6.60558 215.544L7.53616 218.527L8.83897 221.511L10.7001 224.308L12.5613 226.731L14.9808 229.155L17.4003 230.834L20.7503 232.885L23.5421 234.19L26.3338 235.309L29.1255 235.681H32.6617L35.0812 235.495L37.5007 235.122L39.9202 234.563L41.9675 233.817L43.4564 233.257L45.1314 232.325L46.8065 231.393L48.1093 230.647L49.226 229.715L50.7149 228.223L52.2038 226.545L53.5066 224.68L54.8094 222.816L55.74 221.324L56.4845 219.46L57.2289 217.782L57.7873 216.103L58.1595 214.798L58.3456 212.747L58.5317 210.883L58.7178 208.832L59.0901 207.526L60.0207 206.408L61.3235 206.221L62.0679 206.594L62.9985 207.713L63.3707 209.018L63.9291 211.442L64.6735 213.493L66.1625 216.663L68.2097 219.833L70.8153 222.816L74.1654 225.613L78.4461 228.223L82.5406 229.715L86.8212 230.461H90.9158L96.3131 229.715L101.71 227.291L106.177 224.308L109.713 220.578L113.25 214.985L115.297 209.577Z"/>
</mask>
<path d="M115.297 209.577V166.692L113.622 169.303L112.877 170.981L112.505 172.659V176.948V195.593V203.051V206.221L112.319 209.577L111.388 211.815L109.713 214.985L108.411 217.222L106.736 219.273L104.502 221.697L102.269 223.375L100.222 224.68L98.3604 225.613L96.3131 226.545L93.8936 227.104L90.9158 227.291L87.3796 227.104H84.5879L82.1684 226.359L80.6794 225.613L78.0738 224.308L76.2127 223.375L73.9793 221.697L72.6765 220.392L71.3737 218.9L70.0709 217.409L68.2097 214.798L67.4653 213.12L66.7208 211.256L66.3486 209.205L65.7902 207.526L65.0458 205.662L64.4874 204.73L62.9985 203.797L61.3235 203.238H60.0207L58.7178 203.611L57.2289 204.73L56.2984 206.221L55.9261 207.899L55.74 209.95L55.5539 212.001L55.3678 214.425L54.8094 216.663L54.065 218.527L52.9483 220.765L51.2732 223.189L49.7843 224.867L48.4815 226.359L46.2481 228.223L44.387 229.715L41.9675 231.02L39.1758 231.952L36.1979 232.698L33.7784 232.885H30.6144L27.2644 232.325L24.8449 231.766L21.867 230.461L19.6337 229.155L16.8419 227.104L14.2363 224.68L12.5613 222.07L11.4446 220.392L10.3279 217.968L9.58343 216.103L9.02509 213.68L8.28062 211.442L7.53616 208.832L7.16393 206.967L6.7917 205.289L6.41947 203.797L5.86112 202.679L5.30278 202.306L4.55832 202.492L3.99998 203.238V204.543L4.18609 205.662L4.74443 208.272L5.67501 211.628L6.60558 215.544L7.53616 218.527L8.83897 221.511L10.7001 224.308L12.5613 226.731L14.9808 229.155L17.4003 230.834L20.7503 232.885L23.5421 234.19L26.3338 235.309L29.1255 235.681H32.6617L35.0812 235.495L37.5007 235.122L39.9202 234.563L41.9675 233.817L43.4564 233.257L45.1314 232.325L46.8065 231.393L48.1093 230.647L49.226 229.715L50.7149 228.223L52.2038 226.545L53.5066 224.68L54.8094 222.816L55.74 221.324L56.4845 219.46L57.2289 217.782L57.7873 216.103L58.1595 214.798L58.3456 212.747L58.5317 210.883L58.7178 208.832L59.0901 207.526L60.0207 206.408L61.3235 206.221L62.0679 206.594L62.9985 207.713L63.3707 209.018L63.9291 211.442L64.6735 213.493L66.1625 216.663L68.2097 219.833L70.8153 222.816L74.1654 225.613L78.4461 228.223L82.5406 229.715L86.8212 230.461H90.9158L96.3131 229.715L101.71 227.291L106.177 224.308L109.713 220.578L113.25 214.985L115.297 209.577Z" stroke="#39424A" stroke-width="8" mask="url(#path-2-outside-2)"/>
</g>
<g opacity="0.5">
<mask id="path-3-outside-3" maskUnits="userSpaceOnUse" x="-0.330811" y="244.802" width="120" height="87" fill="black">
<rect fill="white" x="-0.330811" y="244.802" width="120" height="87"/>
<path d="M115.669 301.687V258.802L113.994 261.413L113.25 263.091L112.877 264.769V269.057V287.703V295.161V298.331L112.691 301.687L111.761 303.925L110.086 307.095L108.783 309.332L107.108 311.383L104.875 313.807L102.641 315.485L100.594 316.79L98.7327 317.723L96.6854 318.655L94.2659 319.214L91.2881 319.401L87.7519 319.214H84.9602L82.5407 318.468L81.0518 317.723L78.4461 316.417L76.585 315.485L74.3516 313.807L73.0488 312.502L71.746 311.01L70.4432 309.518L68.582 306.908L67.8376 305.23L67.0931 303.365L66.7209 301.314L66.1625 299.636L65.4181 297.772L64.8597 296.839L63.3708 295.907L61.6958 295.348H60.393L59.0902 295.721L57.6012 296.839L56.6707 298.331L56.2984 300.009L56.1123 302.06L55.9262 304.111L55.7401 306.535L55.1817 308.773L54.4373 310.637L53.3206 312.875L51.6456 315.299L50.1566 316.977L48.8538 318.468L46.6204 320.333L44.7593 321.825L42.3398 323.13L39.5481 324.062L36.5702 324.808L34.1507 324.994H30.9868L27.6367 324.435L25.2172 323.876L22.2393 322.57L20.006 321.265L17.2142 319.214L14.6086 316.79L12.9336 314.18L11.8169 312.502L10.7002 310.078L9.95574 308.213L9.3974 305.789L8.65294 303.552L7.90848 300.941L7.53625 299.077L7.16402 297.399L6.79179 295.907L6.23344 294.788L5.67509 294.415L4.93063 294.602L4.37229 295.348V296.653L4.5584 297.772L5.11674 300.382L6.04733 303.738L6.9779 307.654L7.90848 310.637L9.21128 313.621L11.0724 316.417L12.9336 318.841L15.3531 321.265L17.7726 322.943L21.1227 324.994L23.9144 326.3L26.7061 327.418L29.4978 327.791H33.034L35.4535 327.605L37.873 327.232L40.2925 326.673L42.3398 325.927L43.8287 325.367L45.5038 324.435L47.1788 323.503L48.4816 322.757L49.5983 321.825L51.0872 320.333L52.5761 318.655L53.8789 316.79L55.1817 314.926L56.1123 313.434L56.8568 311.57L57.6012 309.891L58.1596 308.213L58.5318 306.908L58.7179 304.857L58.904 302.993L59.0902 300.941L59.4624 299.636L60.393 298.518L61.6958 298.331L62.4402 298.704L63.3708 299.823L63.743 301.128L64.3014 303.552L65.0458 305.603L66.5348 308.773L68.582 311.942L71.1877 314.926L74.5377 317.723L78.8184 320.333L82.9129 321.825L87.1936 322.57H91.2881L96.6854 321.825L102.083 319.401L106.55 316.417L110.086 312.688L113.622 307.095L115.669 301.687Z"/>
</mask>
<path d="M115.669 301.687V258.802L113.994 261.413L113.25 263.091L112.877 264.769V269.057V287.703V295.161V298.331L112.691 301.687L111.761 303.925L110.086 307.095L108.783 309.332L107.108 311.383L104.875 313.807L102.641 315.485L100.594 316.79L98.7327 317.723L96.6854 318.655L94.2659 319.214L91.2881 319.401L87.7519 319.214H84.9602L82.5407 318.468L81.0518 317.723L78.4461 316.417L76.585 315.485L74.3516 313.807L73.0488 312.502L71.746 311.01L70.4432 309.518L68.582 306.908L67.8376 305.23L67.0931 303.365L66.7209 301.314L66.1625 299.636L65.4181 297.772L64.8597 296.839L63.3708 295.907L61.6958 295.348H60.393L59.0902 295.721L57.6012 296.839L56.6707 298.331L56.2984 300.009L56.1123 302.06L55.9262 304.111L55.7401 306.535L55.1817 308.773L54.4373 310.637L53.3206 312.875L51.6456 315.299L50.1566 316.977L48.8538 318.468L46.6204 320.333L44.7593 321.825L42.3398 323.13L39.5481 324.062L36.5702 324.808L34.1507 324.994H30.9868L27.6367 324.435L25.2172 323.876L22.2393 322.57L20.006 321.265L17.2142 319.214L14.6086 316.79L12.9336 314.18L11.8169 312.502L10.7002 310.078L9.95574 308.213L9.3974 305.789L8.65294 303.552L7.90848 300.941L7.53625 299.077L7.16402 297.399L6.79179 295.907L6.23344 294.788L5.67509 294.415L4.93063 294.602L4.37229 295.348V296.653L4.5584 297.772L5.11674 300.382L6.04733 303.738L6.9779 307.654L7.90848 310.637L9.21128 313.621L11.0724 316.417L12.9336 318.841L15.3531 321.265L17.7726 322.943L21.1227 324.994L23.9144 326.3L26.7061 327.418L29.4978 327.791H33.034L35.4535 327.605L37.873 327.232L40.2925 326.673L42.3398 325.927L43.8287 325.367L45.5038 324.435L47.1788 323.503L48.4816 322.757L49.5983 321.825L51.0872 320.333L52.5761 318.655L53.8789 316.79L55.1817 314.926L56.1123 313.434L56.8568 311.57L57.6012 309.891L58.1596 308.213L58.5318 306.908L58.7179 304.857L58.904 302.993L59.0902 300.941L59.4624 299.636L60.393 298.518L61.6958 298.331L62.4402 298.704L63.3708 299.823L63.743 301.128L64.3014 303.552L65.0458 305.603L66.5348 308.773L68.582 311.942L71.1877 314.926L74.5377 317.723L78.8184 320.333L82.9129 321.825L87.1936 322.57H91.2881L96.6854 321.825L102.083 319.401L106.55 316.417L110.086 312.688L113.622 307.095L115.669 301.687Z" stroke="#39424A" stroke-width="8" mask="url(#path-3-outside-3)"/>
</g>
<g opacity="0.5">
<mask id="path-4-outside-4" maskUnits="userSpaceOnUse" x="-0.516968" y="335.42" width="120" height="87" fill="black">
<rect fill="white" x="-0.516968" y="335.42" width="120" height="87"/>
<path d="M115.483 392.305V349.42L113.808 352.03L113.064 353.708L112.691 355.387V359.675V378.321V385.779V388.949L112.505 392.305L111.575 394.542L109.9 397.712L108.597 399.95L106.922 402.001L104.688 404.425L102.455 406.103L100.408 407.408L98.5465 408.34L96.4993 409.273L94.0798 409.832L91.1019 410.018L87.5658 409.832H84.774L82.3545 409.086L80.8656 408.34L78.26 407.035L76.3988 406.103L74.1655 404.425L72.8627 403.12L71.5598 401.628L70.257 400.136L68.3959 397.526L67.6514 395.848L66.907 393.983L66.5347 391.932L65.9764 390.254L65.2319 388.389L64.6736 387.457L63.1847 386.525L61.5096 385.965H60.2068L58.904 386.338L57.4151 387.457L56.4845 388.949L56.1123 390.627L55.9262 392.678L55.7401 394.729L55.5539 397.153L54.9956 399.39L54.2511 401.255L53.1344 403.492L51.4594 405.916L49.9705 407.594L48.6677 409.086L46.4343 410.951L44.5731 412.442L42.1536 413.748L39.3619 414.68L36.3841 415.426L33.9646 415.612H30.8006L27.4505 415.053L25.031 414.493L22.0532 413.188L19.8198 411.883L17.0281 409.832L14.4225 407.408L12.7474 404.798L11.6307 403.12L10.5141 400.696L9.76959 398.831L9.21125 396.407L8.46679 394.17L7.72233 391.559L7.3501 389.695L6.97787 388.016L6.60564 386.525L6.04729 385.406L5.48895 385.033L4.74448 385.22L4.18614 385.965V387.271L4.37225 388.389L4.9306 391L5.86118 394.356L6.79176 398.272L7.72233 401.255L9.02513 404.238L10.8863 407.035L12.7474 409.459L15.1669 411.883L17.5864 413.561L20.9365 415.612L23.7282 416.917L26.52 418.036L29.3117 418.409H32.8479L35.2674 418.223L37.6869 417.85L40.1064 417.29L42.1536 416.544L43.6426 415.985L45.3176 415.053L46.9926 414.12L48.2954 413.375L49.4121 412.442L50.9011 410.951L52.39 409.273L53.6928 407.408L54.9956 405.543L55.9262 404.052L56.6706 402.187L57.4151 400.509L57.9734 398.831L58.3457 397.526L58.5318 395.475L58.7179 393.61L58.904 391.559L59.2762 390.254L60.2068 389.135L61.5096 388.949L62.2541 389.322L63.1847 390.44L63.5569 391.746L64.1152 394.17L64.8597 396.221L66.3486 399.39L68.3959 402.56L71.0015 405.543L74.3516 408.34L78.6322 410.951L82.7268 412.442L87.0074 413.188H91.1019L96.4993 412.442L101.897 410.018L106.363 407.035L109.9 403.306L113.436 397.712L115.483 392.305Z"/>
</mask>
<path d="M115.483 392.305V349.42L113.808 352.03L113.064 353.708L112.691 355.387V359.675V378.321V385.779V388.949L112.505 392.305L111.575 394.542L109.9 397.712L108.597 399.95L106.922 402.001L104.688 404.425L102.455 406.103L100.408 407.408L98.5465 408.34L96.4993 409.273L94.0798 409.832L91.1019 410.018L87.5658 409.832H84.774L82.3545 409.086L80.8656 408.34L78.26 407.035L76.3988 406.103L74.1655 404.425L72.8627 403.12L71.5598 401.628L70.257 400.136L68.3959 397.526L67.6514 395.848L66.907 393.983L66.5347 391.932L65.9764 390.254L65.2319 388.389L64.6736 387.457L63.1847 386.525L61.5096 385.965H60.2068L58.904 386.338L57.4151 387.457L56.4845 388.949L56.1123 390.627L55.9262 392.678L55.7401 394.729L55.5539 397.153L54.9956 399.39L54.2511 401.255L53.1344 403.492L51.4594 405.916L49.9705 407.594L48.6677 409.086L46.4343 410.951L44.5731 412.442L42.1536 413.748L39.3619 414.68L36.3841 415.426L33.9646 415.612H30.8006L27.4505 415.053L25.031 414.493L22.0532 413.188L19.8198 411.883L17.0281 409.832L14.4225 407.408L12.7474 404.798L11.6307 403.12L10.5141 400.696L9.76959 398.831L9.21125 396.407L8.46679 394.17L7.72233 391.559L7.3501 389.695L6.97787 388.016L6.60564 386.525L6.04729 385.406L5.48895 385.033L4.74448 385.22L4.18614 385.965V387.271L4.37225 388.389L4.9306 391L5.86118 394.356L6.79176 398.272L7.72233 401.255L9.02513 404.238L10.8863 407.035L12.7474 409.459L15.1669 411.883L17.5864 413.561L20.9365 415.612L23.7282 416.917L26.52 418.036L29.3117 418.409H32.8479L35.2674 418.223L37.6869 417.85L40.1064 417.29L42.1536 416.544L43.6426 415.985L45.3176 415.053L46.9926 414.12L48.2954 413.375L49.4121 412.442L50.9011 410.951L52.39 409.273L53.6928 407.408L54.9956 405.543L55.9262 404.052L56.6706 402.187L57.4151 400.509L57.9734 398.831L58.3457 397.526L58.5318 395.475L58.7179 393.61L58.904 391.559L59.2762 390.254L60.2068 389.135L61.5096 388.949L62.2541 389.322L63.1847 390.44L63.5569 391.746L64.1152 394.17L64.8597 396.221L66.3486 399.39L68.3959 402.56L71.0015 405.543L74.3516 408.34L78.6322 410.951L82.7268 412.442L87.0074 413.188H91.1019L96.4993 412.442L101.897 410.018L106.363 407.035L109.9 403.306L113.436 397.712L115.483 392.305Z" stroke="#39424A" stroke-width="8" mask="url(#path-4-outside-4)"/>
</g>
<g opacity="0.5">
<mask id="path-5-outside-5" maskUnits="userSpaceOnUse" x="-0.516968" y="426.038" width="120" height="87" fill="black">
<rect fill="white" x="-0.516968" y="426.038" width="120" height="87"/>
<path d="M115.483 482.923V440.038L113.808 442.648L113.064 444.327L112.691 446.005V450.293V468.939V476.397V479.567L112.505 482.923L111.575 485.161L109.9 488.33L108.597 490.568L106.922 492.619L104.688 495.043L102.455 496.721L100.408 498.026L98.5465 498.958L96.4993 499.891L94.0798 500.45L91.1019 500.637L87.5658 500.45H84.774L82.3545 499.704L80.8656 498.958L78.26 497.653L76.3988 496.721L74.1655 495.043L72.8627 493.738L71.5598 492.246L70.257 490.754L68.3959 488.144L67.6514 486.466L66.907 484.601L66.5347 482.55L65.9764 480.872L65.2319 479.008L64.6736 478.075L63.1847 477.143L61.5096 476.584H60.2068L58.904 476.957L57.4151 478.075L56.4845 479.567L56.1123 481.245L55.9262 483.296L55.7401 485.347L55.5539 487.771L54.9956 490.009L54.2511 491.873L53.1344 494.111L51.4594 496.535L49.9705 498.213L48.6677 499.704L46.4343 501.569L44.5731 503.061L42.1536 504.366L39.3619 505.298L36.3841 506.044L33.9646 506.23H30.8006L27.4505 505.671L25.031 505.112L22.0532 503.806L19.8198 502.501L17.0281 500.45L14.4225 498.026L12.7474 495.416L11.6307 493.738L10.5141 491.314L9.76959 489.449L9.21125 487.025L8.46679 484.788L7.72233 482.177L7.3501 480.313L6.97787 478.635L6.60564 477.143L6.04729 476.024L5.48895 475.651L4.74448 475.838L4.18614 476.584V477.889L4.37225 479.008L4.9306 481.618L5.86118 484.974L6.79176 488.89L7.72233 491.873L9.02513 494.856L10.8863 497.653L12.7474 500.077L15.1669 502.501L17.5864 504.179L20.9365 506.23L23.7282 507.535L26.52 508.654L29.3117 509.027H32.8479L35.2674 508.841L37.6869 508.468L40.1064 507.908L42.1536 507.163L43.6426 506.603L45.3176 505.671L46.9926 504.739L48.2954 503.993L49.4121 503.061L50.9011 501.569L52.39 499.891L53.6928 498.026L54.9956 496.162L55.9262 494.67L56.6706 492.805L57.4151 491.127L57.9734 489.449L58.3457 488.144L58.5318 486.093L58.7179 484.228L58.904 482.177L59.2762 480.872L60.2068 479.753L61.5096 479.567L62.2541 479.94L63.1847 481.059L63.5569 482.364L64.1152 484.788L64.8597 486.839L66.3486 490.009L68.3959 493.178L71.0015 496.162L74.3516 498.958L78.6322 501.569L82.7268 503.061L87.0074 503.806H91.1019L96.4993 503.061L101.897 500.637L106.363 497.653L109.9 493.924L113.436 488.33L115.483 482.923Z"/>
</mask>
<path d="M115.483 482.923V440.038L113.808 442.648L113.064 444.327L112.691 446.005V450.293V468.939V476.397V479.567L112.505 482.923L111.575 485.161L109.9 488.33L108.597 490.568L106.922 492.619L104.688 495.043L102.455 496.721L100.408 498.026L98.5465 498.958L96.4993 499.891L94.0798 500.45L91.1019 500.637L87.5658 500.45H84.774L82.3545 499.704L80.8656 498.958L78.26 497.653L76.3988 496.721L74.1655 495.043L72.8627 493.738L71.5598 492.246L70.257 490.754L68.3959 488.144L67.6514 486.466L66.907 484.601L66.5347 482.55L65.9764 480.872L65.2319 479.008L64.6736 478.075L63.1847 477.143L61.5096 476.584H60.2068L58.904 476.957L57.4151 478.075L56.4845 479.567L56.1123 481.245L55.9262 483.296L55.7401 485.347L55.5539 487.771L54.9956 490.009L54.2511 491.873L53.1344 494.111L51.4594 496.535L49.9705 498.213L48.6677 499.704L46.4343 501.569L44.5731 503.061L42.1536 504.366L39.3619 505.298L36.3841 506.044L33.9646 506.23H30.8006L27.4505 505.671L25.031 505.112L22.0532 503.806L19.8198 502.501L17.0281 500.45L14.4225 498.026L12.7474 495.416L11.6307 493.738L10.5141 491.314L9.76959 489.449L9.21125 487.025L8.46679 484.788L7.72233 482.177L7.3501 480.313L6.97787 478.635L6.60564 477.143L6.04729 476.024L5.48895 475.651L4.74448 475.838L4.18614 476.584V477.889L4.37225 479.008L4.9306 481.618L5.86118 484.974L6.79176 488.89L7.72233 491.873L9.02513 494.856L10.8863 497.653L12.7474 500.077L15.1669 502.501L17.5864 504.179L20.9365 506.23L23.7282 507.535L26.52 508.654L29.3117 509.027H32.8479L35.2674 508.841L37.6869 508.468L40.1064 507.908L42.1536 507.163L43.6426 506.603L45.3176 505.671L46.9926 504.739L48.2954 503.993L49.4121 503.061L50.9011 501.569L52.39 499.891L53.6928 498.026L54.9956 496.162L55.9262 494.67L56.6706 492.805L57.4151 491.127L57.9734 489.449L58.3457 488.144L58.5318 486.093L58.7179 484.228L58.904 482.177L59.2762 480.872L60.2068 479.753L61.5096 479.567L62.2541 479.94L63.1847 481.059L63.5569 482.364L64.1152 484.788L64.8597 486.839L66.3486 490.009L68.3959 493.178L71.0015 496.162L74.3516 498.958L78.6322 501.569L82.7268 503.061L87.0074 503.806H91.1019L96.4993 503.061L101.897 500.637L106.363 497.653L109.9 493.924L113.436 488.33L115.483 482.923Z" stroke="#39424A" stroke-width="8" mask="url(#path-5-outside-5)"/>
</g>
<g opacity="0.5">
<mask id="path-6-outside-6" maskUnits="userSpaceOnUse" x="-0.516968" y="516.656" width="120" height="87" fill="black">
<rect fill="white" x="-0.516968" y="516.656" width="120" height="87"/>
<path d="M115.483 573.541V530.656L113.808 533.267L113.064 534.945L112.691 536.623V540.911V559.557V567.015V570.185L112.505 573.541L111.575 575.779L109.9 578.949L108.597 581.186L106.922 583.237L104.688 585.661L102.455 587.339L100.408 588.644L98.5465 589.577L96.4993 590.509L94.0798 591.068L91.1019 591.255L87.5658 591.068H84.774L82.3545 590.322L80.8656 589.577L78.26 588.271L76.3988 587.339L74.1655 585.661L72.8627 584.356L71.5598 582.864L70.257 581.372L68.3959 578.762L67.6514 577.084L66.907 575.219L66.5347 573.168L65.9764 571.49L65.2319 569.626L64.6736 568.693L63.1847 567.761L61.5096 567.202H60.2068L58.904 567.575L57.4151 568.693L56.4845 570.185L56.1123 571.863L55.9262 573.914L55.7401 575.965L55.5539 578.389L54.9956 580.627L54.2511 582.491L53.1344 584.729L51.4594 587.153L49.9705 588.831L48.6677 590.322L46.4343 592.187L44.5731 593.679L42.1536 594.984L39.3619 595.916L36.3841 596.662L33.9646 596.848H30.8006L27.4505 596.289L25.031 595.73L22.0532 594.424L19.8198 593.119L17.0281 591.068L14.4225 588.644L12.7474 586.034L11.6307 584.356L10.5141 581.932L9.76959 580.067L9.21125 577.643L8.46679 575.406L7.72233 572.795L7.3501 570.931L6.97787 569.253L6.60564 567.761L6.04729 566.642L5.48895 566.269L4.74448 566.456L4.18614 567.202V568.507L4.37225 569.626L4.9306 572.236L5.86118 575.592L6.79176 579.508L7.72233 582.491L9.02513 585.475L10.8863 588.271L12.7474 590.695L15.1669 593.119L17.5864 594.797L20.9365 596.848L23.7282 598.154L26.52 599.272L29.3117 599.645H32.8479L35.2674 599.459L37.6869 599.086L40.1064 598.527L42.1536 597.781L43.6426 597.221L45.3176 596.289L46.9926 595.357L48.2954 594.611L49.4121 593.679L50.9011 592.187L52.39 590.509L53.6928 588.644L54.9956 586.78L55.9262 585.288L56.6706 583.424L57.4151 581.745L57.9734 580.067L58.3457 578.762L58.5318 576.711L58.7179 574.847L58.904 572.795L59.2762 571.49L60.2068 570.372L61.5096 570.185L62.2541 570.558L63.1847 571.677L63.5569 572.982L64.1152 575.406L64.8597 577.457L66.3486 580.627L68.3959 583.796L71.0015 586.78L74.3516 589.577L78.6322 592.187L82.7268 593.679L87.0074 594.424H91.1019L96.4993 593.679L101.897 591.255L106.363 588.271L109.9 584.542L113.436 578.949L115.483 573.541Z"/>
</mask>
<path d="M115.483 573.541V530.656L113.808 533.267L113.064 534.945L112.691 536.623V540.911V559.557V567.015V570.185L112.505 573.541L111.575 575.779L109.9 578.949L108.597 581.186L106.922 583.237L104.688 585.661L102.455 587.339L100.408 588.644L98.5465 589.577L96.4993 590.509L94.0798 591.068L91.1019 591.255L87.5658 591.068H84.774L82.3545 590.322L80.8656 589.577L78.26 588.271L76.3988 587.339L74.1655 585.661L72.8627 584.356L71.5598 582.864L70.257 581.372L68.3959 578.762L67.6514 577.084L66.907 575.219L66.5347 573.168L65.9764 571.49L65.2319 569.626L64.6736 568.693L63.1847 567.761L61.5096 567.202H60.2068L58.904 567.575L57.4151 568.693L56.4845 570.185L56.1123 571.863L55.9262 573.914L55.7401 575.965L55.5539 578.389L54.9956 580.627L54.2511 582.491L53.1344 584.729L51.4594 587.153L49.9705 588.831L48.6677 590.322L46.4343 592.187L44.5731 593.679L42.1536 594.984L39.3619 595.916L36.3841 596.662L33.9646 596.848H30.8006L27.4505 596.289L25.031 595.73L22.0532 594.424L19.8198 593.119L17.0281 591.068L14.4225 588.644L12.7474 586.034L11.6307 584.356L10.5141 581.932L9.76959 580.067L9.21125 577.643L8.46679 575.406L7.72233 572.795L7.3501 570.931L6.97787 569.253L6.60564 567.761L6.04729 566.642L5.48895 566.269L4.74448 566.456L4.18614 567.202V568.507L4.37225 569.626L4.9306 572.236L5.86118 575.592L6.79176 579.508L7.72233 582.491L9.02513 585.475L10.8863 588.271L12.7474 590.695L15.1669 593.119L17.5864 594.797L20.9365 596.848L23.7282 598.154L26.52 599.272L29.3117 599.645H32.8479L35.2674 599.459L37.6869 599.086L40.1064 598.527L42.1536 597.781L43.6426 597.221L45.3176 596.289L46.9926 595.357L48.2954 594.611L49.4121 593.679L50.9011 592.187L52.39 590.509L53.6928 588.644L54.9956 586.78L55.9262 585.288L56.6706 583.424L57.4151 581.745L57.9734 580.067L58.3457 578.762L58.5318 576.711L58.7179 574.847L58.904 572.795L59.2762 571.49L60.2068 570.372L61.5096 570.185L62.2541 570.558L63.1847 571.677L63.5569 572.982L64.1152 575.406L64.8597 577.457L66.3486 580.627L68.3959 583.796L71.0015 586.78L74.3516 589.577L78.6322 592.187L82.7268 593.679L87.0074 594.424H91.1019L96.4993 593.679L101.897 591.255L106.363 588.271L109.9 584.542L113.436 578.949L115.483 573.541Z" stroke="#39424A" stroke-width="8" mask="url(#path-6-outside-6)"/>
</g>
<g opacity="0.5">
<mask id="path-7-outside-7" maskUnits="userSpaceOnUse" x="-0.516968" y="607.274" width="120" height="87" fill="black">
<rect fill="white" x="-0.516968" y="607.274" width="120" height="87"/>
<path d="M115.483 664.16V621.274L113.808 623.885L113.064 625.563L112.691 627.241V631.53V650.175V657.634V660.803L112.505 664.16L111.575 666.397L109.9 669.567L108.597 671.804L106.922 673.855L104.688 676.279L102.455 677.957L100.408 679.263L98.5465 680.195L96.4993 681.127L94.0798 681.686L91.1019 681.873L87.5658 681.686H84.774L82.3545 680.941L80.8656 680.195L78.26 678.89L76.3988 677.957L74.1655 676.279L72.8627 674.974L71.5598 673.482L70.257 671.991L68.3959 669.38L67.6514 667.702L66.907 665.838L66.5347 663.787L65.9764 662.108L65.2319 660.244L64.6736 659.312L63.1847 658.379L61.5096 657.82H60.2068L58.904 658.193L57.4151 659.312L56.4845 660.803L56.1123 662.481L55.9262 664.532L55.7401 666.583L55.5539 669.007L54.9956 671.245L54.2511 673.109L53.1344 675.347L51.4594 677.771L49.9705 679.449L48.6677 680.941L46.4343 682.805L44.5731 684.297L42.1536 685.602L39.3619 686.534L36.3841 687.28L33.9646 687.467H30.8006L27.4505 686.907L25.031 686.348L22.0532 685.043L19.8198 683.737L17.0281 681.686L14.4225 679.263L12.7474 676.652L11.6307 674.974L10.5141 672.55L9.76959 670.686L9.21125 668.262L8.46679 666.024L7.72233 663.414L7.3501 661.549L6.97787 659.871L6.60564 658.379L6.04729 657.261L5.48895 656.888L4.74448 657.074L4.18614 657.82V659.125L4.37225 660.244L4.9306 662.854L5.86118 666.211L6.79176 670.126L7.72233 673.109L9.02513 676.093L10.8863 678.89L12.7474 681.314L15.1669 683.737L17.5864 685.416L20.9365 687.467L23.7282 688.772L26.52 689.891L29.3117 690.263H32.8479L35.2674 690.077L37.6869 689.704L40.1064 689.145L42.1536 688.399L43.6426 687.84L45.3176 686.907L46.9926 685.975L48.2954 685.229L49.4121 684.297L50.9011 682.805L52.39 681.127L53.6928 679.263L54.9956 677.398L55.9262 675.906L56.6706 674.042L57.4151 672.364L57.9734 670.686L58.3457 669.38L58.5318 667.329L58.7179 665.465L58.904 663.414L59.2762 662.108L60.2068 660.99L61.5096 660.803L62.2541 661.176L63.1847 662.295L63.5569 663.6L64.1152 666.024L64.8597 668.075L66.3486 671.245L68.3959 674.415L71.0015 677.398L74.3516 680.195L78.6322 682.805L82.7268 684.297L87.0074 685.043H91.1019L96.4993 684.297L101.897 681.873L106.363 678.89L109.9 675.16L113.436 669.567L115.483 664.16Z"/>
</mask>
<path d="M115.483 664.16V621.274L113.808 623.885L113.064 625.563L112.691 627.241V631.53V650.175V657.634V660.803L112.505 664.16L111.575 666.397L109.9 669.567L108.597 671.804L106.922 673.855L104.688 676.279L102.455 677.957L100.408 679.263L98.5465 680.195L96.4993 681.127L94.0798 681.686L91.1019 681.873L87.5658 681.686H84.774L82.3545 680.941L80.8656 680.195L78.26 678.89L76.3988 677.957L74.1655 676.279L72.8627 674.974L71.5598 673.482L70.257 671.991L68.3959 669.38L67.6514 667.702L66.907 665.838L66.5347 663.787L65.9764 662.108L65.2319 660.244L64.6736 659.312L63.1847 658.379L61.5096 657.82H60.2068L58.904 658.193L57.4151 659.312L56.4845 660.803L56.1123 662.481L55.9262 664.532L55.7401 666.583L55.5539 669.007L54.9956 671.245L54.2511 673.109L53.1344 675.347L51.4594 677.771L49.9705 679.449L48.6677 680.941L46.4343 682.805L44.5731 684.297L42.1536 685.602L39.3619 686.534L36.3841 687.28L33.9646 687.467H30.8006L27.4505 686.907L25.031 686.348L22.0532 685.043L19.8198 683.737L17.0281 681.686L14.4225 679.263L12.7474 676.652L11.6307 674.974L10.5141 672.55L9.76959 670.686L9.21125 668.262L8.46679 666.024L7.72233 663.414L7.3501 661.549L6.97787 659.871L6.60564 658.379L6.04729 657.261L5.48895 656.888L4.74448 657.074L4.18614 657.82V659.125L4.37225 660.244L4.9306 662.854L5.86118 666.211L6.79176 670.126L7.72233 673.109L9.02513 676.093L10.8863 678.89L12.7474 681.314L15.1669 683.737L17.5864 685.416L20.9365 687.467L23.7282 688.772L26.52 689.891L29.3117 690.263H32.8479L35.2674 690.077L37.6869 689.704L40.1064 689.145L42.1536 688.399L43.6426 687.84L45.3176 686.907L46.9926 685.975L48.2954 685.229L49.4121 684.297L50.9011 682.805L52.39 681.127L53.6928 679.263L54.9956 677.398L55.9262 675.906L56.6706 674.042L57.4151 672.364L57.9734 670.686L58.3457 669.38L58.5318 667.329L58.7179 665.465L58.904 663.414L59.2762 662.108L60.2068 660.99L61.5096 660.803L62.2541 661.176L63.1847 662.295L63.5569 663.6L64.1152 666.024L64.8597 668.075L66.3486 671.245L68.3959 674.415L71.0015 677.398L74.3516 680.195L78.6322 682.805L82.7268 684.297L87.0074 685.043H91.1019L96.4993 684.297L101.897 681.873L106.363 678.89L109.9 675.16L113.436 669.567L115.483 664.16Z" stroke="#39424A" stroke-width="8" mask="url(#path-7-outside-7)"/>
</g>
<g opacity="0.5">
<mask id="path-8-outside-8" maskUnits="userSpaceOnUse" x="-0.516968" y="697.892" width="120" height="87" fill="black">
<rect fill="white" x="-0.516968" y="697.892" width="120" height="87"/>
<path d="M115.483 754.777V711.892L113.808 714.502L113.064 716.181L112.691 717.859V722.147V740.793V748.251V751.421L112.505 754.777L111.575 757.015L109.9 760.184L108.597 762.422L106.922 764.473L104.688 766.897L102.455 768.575L100.408 769.88L98.5465 770.812L96.4993 771.745L94.0798 772.304L91.1019 772.491L87.5658 772.304H84.774L82.3545 771.558L80.8656 770.812L78.26 769.507L76.3988 768.575L74.1655 766.897L72.8627 765.592L71.5598 764.1L70.257 762.608L68.3959 759.998L67.6514 758.32L66.907 756.455L66.5347 754.404L65.9764 752.726L65.2319 750.862L64.6736 749.929L63.1847 748.997L61.5096 748.438H60.2068L58.904 748.811L57.4151 749.929L56.4845 751.421L56.1123 753.099L55.9262 755.15L55.7401 757.201L55.5539 759.625L54.9956 761.863L54.2511 763.727L53.1344 765.965L51.4594 768.389L49.9705 770.067L48.6677 771.558L46.4343 773.423L44.5731 774.914L42.1536 776.22L39.3619 777.152L36.3841 777.898L33.9646 778.084H30.8006L27.4505 777.525L25.031 776.966L22.0532 775.66L19.8198 774.355L17.0281 772.304L14.4225 769.88L12.7474 767.27L11.6307 765.592L10.5141 763.168L9.76959 761.303L9.21125 758.879L8.46679 756.642L7.72233 754.031L7.3501 752.167L6.97787 750.489L6.60564 748.997L6.04729 747.878L5.48895 747.505L4.74448 747.692L4.18614 748.438V749.743L4.37225 750.862L4.9306 753.472L5.86118 756.828L6.79176 760.744L7.72233 763.727L9.02513 766.71L10.8863 769.507L12.7474 771.931L15.1669 774.355L17.5864 776.033L20.9365 778.084L23.7282 779.389L26.52 780.508L29.3117 780.881H32.8479L35.2674 780.695L37.6869 780.322L40.1064 779.762L42.1536 779.017L43.6426 778.457L45.3176 777.525L46.9926 776.593L48.2954 775.847L49.4121 774.914L50.9011 773.423L52.39 771.745L53.6928 769.88L54.9956 768.016L55.9262 766.524L56.6706 764.659L57.4151 762.981L57.9734 761.303L58.3457 759.998L58.5318 757.947L58.7179 756.082L58.904 754.031L59.2762 752.726L60.2068 751.607L61.5096 751.421L62.2541 751.794L63.1847 752.913L63.5569 754.218L64.1152 756.642L64.8597 758.693L66.3486 761.863L68.3959 765.032L71.0015 768.016L74.3516 770.812L78.6322 773.423L82.7268 774.914L87.0074 775.66H91.1019L96.4993 774.914L101.897 772.491L106.363 769.507L109.9 765.778L113.436 760.184L115.483 754.777Z"/>
</mask>
<path d="M115.483 754.777V711.892L113.808 714.502L113.064 716.181L112.691 717.859V722.147V740.793V748.251V751.421L112.505 754.777L111.575 757.015L109.9 760.184L108.597 762.422L106.922 764.473L104.688 766.897L102.455 768.575L100.408 769.88L98.5465 770.812L96.4993 771.745L94.0798 772.304L91.1019 772.491L87.5658 772.304H84.774L82.3545 771.558L80.8656 770.812L78.26 769.507L76.3988 768.575L74.1655 766.897L72.8627 765.592L71.5598 764.1L70.257 762.608L68.3959 759.998L67.6514 758.32L66.907 756.455L66.5347 754.404L65.9764 752.726L65.2319 750.862L64.6736 749.929L63.1847 748.997L61.5096 748.438H60.2068L58.904 748.811L57.4151 749.929L56.4845 751.421L56.1123 753.099L55.9262 755.15L55.7401 757.201L55.5539 759.625L54.9956 761.863L54.2511 763.727L53.1344 765.965L51.4594 768.389L49.9705 770.067L48.6677 771.558L46.4343 773.423L44.5731 774.914L42.1536 776.22L39.3619 777.152L36.3841 777.898L33.9646 778.084H30.8006L27.4505 777.525L25.031 776.966L22.0532 775.66L19.8198 774.355L17.0281 772.304L14.4225 769.88L12.7474 767.27L11.6307 765.592L10.5141 763.168L9.76959 761.303L9.21125 758.879L8.46679 756.642L7.72233 754.031L7.3501 752.167L6.97787 750.489L6.60564 748.997L6.04729 747.878L5.48895 747.505L4.74448 747.692L4.18614 748.438V749.743L4.37225 750.862L4.9306 753.472L5.86118 756.828L6.79176 760.744L7.72233 763.727L9.02513 766.71L10.8863 769.507L12.7474 771.931L15.1669 774.355L17.5864 776.033L20.9365 778.084L23.7282 779.389L26.52 780.508L29.3117 780.881H32.8479L35.2674 780.695L37.6869 780.322L40.1064 779.762L42.1536 779.017L43.6426 778.457L45.3176 777.525L46.9926 776.593L48.2954 775.847L49.4121 774.914L50.9011 773.423L52.39 771.745L53.6928 769.88L54.9956 768.016L55.9262 766.524L56.6706 764.659L57.4151 762.981L57.9734 761.303L58.3457 759.998L58.5318 757.947L58.7179 756.082L58.904 754.031L59.2762 752.726L60.2068 751.607L61.5096 751.421L62.2541 751.794L63.1847 752.913L63.5569 754.218L64.1152 756.642L64.8597 758.693L66.3486 761.863L68.3959 765.032L71.0015 768.016L74.3516 770.812L78.6322 773.423L82.7268 774.914L87.0074 775.66H91.1019L96.4993 774.914L101.897 772.491L106.363 769.507L109.9 765.778L113.436 760.184L115.483 754.777Z" stroke="#39424A" stroke-width="8" mask="url(#path-8-outside-8)"/>
</g>
<rect x="-2" y="2" width="11.2614" height="778" transform="matrix(-1 0 0 1 127 0)" stroke="#39424A" stroke-width="4"/>
</svg>
