<svg width="131" height="785" viewBox="0 0 131 785" fill="none" xmlns="http://www.w3.org/2000/svg">
<g opacity="0.5">
<mask id="path-1-outside-1" maskUnits="userSpaceOnUse" x="11.7031" y="62.4473" width="120" height="87" fill="black">
<rect fill="white" x="11.7031" y="62.4473" width="120" height="87"/>
<path d="M15.7031 119.332V76.4473L17.3781 79.0577L18.1226 80.7358L18.4948 82.4139V86.7024V105.348V112.806V115.976L18.6809 119.332L19.6115 121.57L21.2866 124.74L22.5894 126.977L24.2644 129.028L26.4978 131.452L28.7312 133.13L30.7784 134.435L32.6396 135.368L34.6869 136.3L37.1064 136.859L40.0842 137.046L43.6204 136.859H46.4121L48.8316 136.113L50.3205 135.368L52.9261 134.062L54.7873 133.13L57.0207 131.452L58.3235 130.147L59.6263 128.655L60.9291 127.164L62.7903 124.553L63.5347 122.875L64.2792 121.01L64.6514 118.959L65.2098 117.281L65.9542 115.417L66.5126 114.484L68.0015 113.552L69.6765 112.993H70.9793L72.2821 113.366L73.771 114.484L74.7016 115.976L75.0739 117.654L75.26 119.705L75.4461 121.756L75.6322 124.18L76.1905 126.418L76.935 128.282L78.0517 130.52L79.7267 132.944L81.2157 134.622L82.5185 136.113L84.7518 137.978L86.613 139.47L89.0325 140.775L91.8242 141.707L94.8021 142.453L97.2216 142.639H100.386L103.736 142.08L106.155 141.521L109.133 140.216L111.366 138.91L114.158 136.859L116.764 134.435L118.439 131.825L119.555 130.147L120.672 127.723L121.417 125.858L121.975 123.434L122.719 121.197L123.464 118.587L123.836 116.722L124.208 115.044L124.581 113.552L125.139 112.433L125.697 112.061L126.442 112.247L127 112.993V114.298L126.814 115.417L126.256 118.027L125.325 121.383L124.394 125.299L123.464 128.282L122.161 131.266L120.3 134.062L118.439 136.486L116.019 138.91L113.6 140.588L110.25 142.639L107.458 143.945L104.666 145.063L101.874 145.436H98.3383L95.9188 145.25L93.4993 144.877L91.0798 144.318L89.0325 143.572L87.5436 143.012L85.8685 142.08L84.1935 141.148L82.8907 140.402L81.774 139.47L80.2851 137.978L78.7962 136.3L77.4934 134.435L76.1905 132.571L75.26 131.079L74.5155 129.215L73.771 127.536L73.2127 125.858L72.8405 124.553L72.6544 122.502L72.4682 120.638L72.2821 118.587L71.9099 117.281L70.9793 116.163L69.6765 115.976L68.9321 116.349L68.0015 117.468L67.6292 118.773L67.0709 121.197L66.3264 123.248L64.8375 126.418L62.7903 129.587L60.1846 132.571L56.8346 135.368L52.5539 137.978L48.4594 139.47L44.1787 140.216H40.0842L34.6869 139.47L29.2895 137.046L24.8227 134.062L21.2866 130.333L17.7504 124.74L15.7031 119.332Z"/>
</mask>
<path d="M15.7031 119.332V76.4473L17.3781 79.0577L18.1226 80.7358L18.4948 82.4139V86.7024V105.348V112.806V115.976L18.6809 119.332L19.6115 121.57L21.2866 124.74L22.5894 126.977L24.2644 129.028L26.4978 131.452L28.7312 133.13L30.7784 134.435L32.6396 135.368L34.6869 136.3L37.1064 136.859L40.0842 137.046L43.6204 136.859H46.4121L48.8316 136.113L50.3205 135.368L52.9261 134.062L54.7873 133.13L57.0207 131.452L58.3235 130.147L59.6263 128.655L60.9291 127.164L62.7903 124.553L63.5347 122.875L64.2792 121.01L64.6514 118.959L65.2098 117.281L65.9542 115.417L66.5126 114.484L68.0015 113.552L69.6765 112.993H70.9793L72.2821 113.366L73.771 114.484L74.7016 115.976L75.0739 117.654L75.26 119.705L75.4461 121.756L75.6322 124.18L76.1905 126.418L76.935 128.282L78.0517 130.52L79.7267 132.944L81.2157 134.622L82.5185 136.113L84.7518 137.978L86.613 139.47L89.0325 140.775L91.8242 141.707L94.8021 142.453L97.2216 142.639H100.386L103.736 142.08L106.155 141.521L109.133 140.216L111.366 138.91L114.158 136.859L116.764 134.435L118.439 131.825L119.555 130.147L120.672 127.723L121.417 125.858L121.975 123.434L122.719 121.197L123.464 118.587L123.836 116.722L124.208 115.044L124.581 113.552L125.139 112.433L125.697 112.061L126.442 112.247L127 112.993V114.298L126.814 115.417L126.256 118.027L125.325 121.383L124.394 125.299L123.464 128.282L122.161 131.266L120.3 134.062L118.439 136.486L116.019 138.91L113.6 140.588L110.25 142.639L107.458 143.945L104.666 145.063L101.874 145.436H98.3383L95.9188 145.25L93.4993 144.877L91.0798 144.318L89.0325 143.572L87.5436 143.012L85.8685 142.08L84.1935 141.148L82.8907 140.402L81.774 139.47L80.2851 137.978L78.7962 136.3L77.4934 134.435L76.1905 132.571L75.26 131.079L74.5155 129.215L73.771 127.536L73.2127 125.858L72.8405 124.553L72.6544 122.502L72.4682 120.638L72.2821 118.587L71.9099 117.281L70.9793 116.163L69.6765 115.976L68.9321 116.349L68.0015 117.468L67.6292 118.773L67.0709 121.197L66.3264 123.248L64.8375 126.418L62.7903 129.587L60.1846 132.571L56.8346 135.368L52.5539 137.978L48.4594 139.47L44.1787 140.216H40.0842L34.6869 139.47L29.2895 137.046L24.8227 134.062L21.2866 130.333L17.7504 124.74L15.7031 119.332Z" stroke="#39424A" stroke-width="8" mask="url(#path-1-outside-1)"/>
</g>
<g opacity="0.5">
<mask id="path-2-outside-2" maskUnits="userSpaceOnUse" x="11.7031" y="152.692" width="120" height="87" fill="black">
<rect fill="white" x="11.7031" y="152.692" width="120" height="87"/>
<path d="M15.7031 209.577V166.692L17.3781 169.303L18.1226 170.981L18.4948 172.659V176.948V195.593V203.051V206.221L18.6809 209.577L19.6115 211.815L21.2866 214.985L22.5894 217.222L24.2644 219.273L26.4978 221.697L28.7312 223.375L30.7784 224.68L32.6396 225.613L34.6869 226.545L37.1064 227.104L40.0842 227.291L43.6204 227.104H46.4121L48.8316 226.359L50.3205 225.613L52.9261 224.308L54.7873 223.375L57.0207 221.697L58.3235 220.392L59.6263 218.9L60.9291 217.409L62.7903 214.798L63.5347 213.12L64.2792 211.256L64.6514 209.205L65.2098 207.526L65.9542 205.662L66.5126 204.73L68.0015 203.797L69.6765 203.238H70.9793L72.2821 203.611L73.771 204.73L74.7016 206.221L75.0739 207.899L75.26 209.95L75.4461 212.001L75.6322 214.425L76.1905 216.663L76.935 218.527L78.0517 220.765L79.7267 223.189L81.2157 224.867L82.5185 226.359L84.7518 228.223L86.613 229.715L89.0325 231.02L91.8242 231.952L94.8021 232.698L97.2216 232.885H100.386L103.736 232.325L106.155 231.766L109.133 230.461L111.366 229.155L114.158 227.104L116.764 224.68L118.439 222.07L119.555 220.392L120.672 217.968L121.417 216.103L121.975 213.68L122.719 211.442L123.464 208.832L123.836 206.967L124.208 205.289L124.581 203.797L125.139 202.679L125.697 202.306L126.442 202.492L127 203.238V204.543L126.814 205.662L126.256 208.272L125.325 211.628L124.394 215.544L123.464 218.527L122.161 221.511L120.3 224.308L118.439 226.731L116.019 229.155L113.6 230.834L110.25 232.885L107.458 234.19L104.666 235.309L101.874 235.681H98.3383L95.9188 235.495L93.4993 235.122L91.0798 234.563L89.0325 233.817L87.5436 233.257L85.8685 232.325L84.1935 231.393L82.8907 230.647L81.774 229.715L80.2851 228.223L78.7962 226.545L77.4934 224.68L76.1905 222.816L75.26 221.324L74.5155 219.46L73.771 217.782L73.2127 216.103L72.8405 214.798L72.6544 212.747L72.4682 210.883L72.2821 208.832L71.9099 207.526L70.9793 206.408L69.6765 206.221L68.9321 206.594L68.0015 207.713L67.6292 209.018L67.0709 211.442L66.3264 213.493L64.8375 216.663L62.7903 219.833L60.1846 222.816L56.8346 225.613L52.5539 228.223L48.4594 229.715L44.1787 230.461H40.0842L34.6869 229.715L29.2895 227.291L24.8227 224.308L21.2866 220.578L17.7504 214.985L15.7031 209.577Z"/>
</mask>
<path d="M15.7031 209.577V166.692L17.3781 169.303L18.1226 170.981L18.4948 172.659V176.948V195.593V203.051V206.221L18.6809 209.577L19.6115 211.815L21.2866 214.985L22.5894 217.222L24.2644 219.273L26.4978 221.697L28.7312 223.375L30.7784 224.68L32.6396 225.613L34.6869 226.545L37.1064 227.104L40.0842 227.291L43.6204 227.104H46.4121L48.8316 226.359L50.3205 225.613L52.9261 224.308L54.7873 223.375L57.0207 221.697L58.3235 220.392L59.6263 218.9L60.9291 217.409L62.7903 214.798L63.5347 213.12L64.2792 211.256L64.6514 209.205L65.2098 207.526L65.9542 205.662L66.5126 204.73L68.0015 203.797L69.6765 203.238H70.9793L72.2821 203.611L73.771 204.73L74.7016 206.221L75.0739 207.899L75.26 209.95L75.4461 212.001L75.6322 214.425L76.1905 216.663L76.935 218.527L78.0517 220.765L79.7267 223.189L81.2157 224.867L82.5185 226.359L84.7518 228.223L86.613 229.715L89.0325 231.02L91.8242 231.952L94.8021 232.698L97.2216 232.885H100.386L103.736 232.325L106.155 231.766L109.133 230.461L111.366 229.155L114.158 227.104L116.764 224.68L118.439 222.07L119.555 220.392L120.672 217.968L121.417 216.103L121.975 213.68L122.719 211.442L123.464 208.832L123.836 206.967L124.208 205.289L124.581 203.797L125.139 202.679L125.697 202.306L126.442 202.492L127 203.238V204.543L126.814 205.662L126.256 208.272L125.325 211.628L124.394 215.544L123.464 218.527L122.161 221.511L120.3 224.308L118.439 226.731L116.019 229.155L113.6 230.834L110.25 232.885L107.458 234.19L104.666 235.309L101.874 235.681H98.3383L95.9188 235.495L93.4993 235.122L91.0798 234.563L89.0325 233.817L87.5436 233.257L85.8685 232.325L84.1935 231.393L82.8907 230.647L81.774 229.715L80.2851 228.223L78.7962 226.545L77.4934 224.68L76.1905 222.816L75.26 221.324L74.5155 219.46L73.771 217.782L73.2127 216.103L72.8405 214.798L72.6544 212.747L72.4682 210.883L72.2821 208.832L71.9099 207.526L70.9793 206.408L69.6765 206.221L68.9321 206.594L68.0015 207.713L67.6292 209.018L67.0709 211.442L66.3264 213.493L64.8375 216.663L62.7903 219.833L60.1846 222.816L56.8346 225.613L52.5539 228.223L48.4594 229.715L44.1787 230.461H40.0842L34.6869 229.715L29.2895 227.291L24.8227 224.308L21.2866 220.578L17.7504 214.985L15.7031 209.577Z" stroke="#39424A" stroke-width="8" mask="url(#path-2-outside-2)"/>
</g>
<g opacity="0.5">
<mask id="path-3-outside-3" maskUnits="userSpaceOnUse" x="11.3309" y="244.802" width="120" height="87" fill="black">
<rect fill="white" x="11.3309" y="244.802" width="120" height="87"/>
<path d="M15.3309 301.687V258.802L17.0059 261.413L17.7504 263.091L18.1226 264.769V269.057V287.703V295.161V298.331L18.3087 301.687L19.2393 303.925L20.9143 307.095L22.2171 309.332L23.8922 311.383L26.1256 313.807L28.3589 315.485L30.4062 316.79L32.2674 317.723L34.3146 318.655L36.7341 319.214L39.712 319.401L43.2482 319.214H46.0399L48.4594 318.468L49.9483 317.723L52.5539 316.417L54.4151 315.485L56.6484 313.807L57.9513 312.502L59.2541 311.01L60.5569 309.518L62.418 306.908L63.1625 305.23L63.9069 303.365L64.2792 301.314L64.8375 299.636L65.582 297.772L66.1403 296.839L67.6292 295.907L69.3043 295.348H70.6071L71.9099 295.721L73.3988 296.839L74.3294 298.331L74.7016 300.009L74.8877 302.06L75.0739 304.111L75.26 306.535L75.8183 308.773L76.5628 310.637L77.6795 312.875L79.3545 315.299L80.8434 316.977L82.1462 318.468L84.3796 320.333L86.2408 321.825L88.6603 323.13L91.452 324.062L94.4298 324.808L96.8493 324.994H100.013L103.363 324.435L105.783 323.876L108.761 322.57L110.994 321.265L113.786 319.214L116.391 316.79L118.066 314.18L119.183 312.502L120.3 310.078L121.044 308.213L121.603 305.789L122.347 303.552L123.092 300.941L123.464 299.077L123.836 297.399L124.208 295.907L124.767 294.788L125.325 294.415L126.069 294.602L126.628 295.348V296.653L126.442 297.772L125.883 300.382L124.953 303.738L124.022 307.654L123.092 310.637L121.789 313.621L119.928 316.417L118.066 318.841L115.647 321.265L113.227 322.943L109.877 324.994L107.086 326.3L104.294 327.418L101.502 327.791H97.966L95.5465 327.605L93.127 327.232L90.7075 326.673L88.6603 325.927L87.1713 325.367L85.4963 324.435L83.8213 323.503L82.5185 322.757L81.4018 321.825L79.9128 320.333L78.4239 318.655L77.1211 316.79L75.8183 314.926L74.8877 313.434L74.1433 311.57L73.3988 309.891L72.8405 308.213L72.4682 306.908L72.2821 304.857L72.096 302.993L71.9099 300.941L71.5377 299.636L70.6071 298.518L69.3043 298.331L68.5598 298.704L67.6292 299.823L67.257 301.128L66.6987 303.552L65.9542 305.603L64.4653 308.773L62.418 311.942L59.8124 314.926L56.4623 317.723L52.1817 320.333L48.0872 321.825L43.8065 322.57H39.712L34.3146 321.825L28.9173 319.401L24.4505 316.417L20.9143 312.688L17.3781 307.095L15.3309 301.687Z"/>
</mask>
<path d="M15.3309 301.687V258.802L17.0059 261.413L17.7504 263.091L18.1226 264.769V269.057V287.703V295.161V298.331L18.3087 301.687L19.2393 303.925L20.9143 307.095L22.2171 309.332L23.8922 311.383L26.1256 313.807L28.3589 315.485L30.4062 316.79L32.2674 317.723L34.3146 318.655L36.7341 319.214L39.712 319.401L43.2482 319.214H46.0399L48.4594 318.468L49.9483 317.723L52.5539 316.417L54.4151 315.485L56.6484 313.807L57.9513 312.502L59.2541 311.01L60.5569 309.518L62.418 306.908L63.1625 305.23L63.9069 303.365L64.2792 301.314L64.8375 299.636L65.582 297.772L66.1403 296.839L67.6292 295.907L69.3043 295.348H70.6071L71.9099 295.721L73.3988 296.839L74.3294 298.331L74.7016 300.009L74.8877 302.06L75.0739 304.111L75.26 306.535L75.8183 308.773L76.5628 310.637L77.6795 312.875L79.3545 315.299L80.8434 316.977L82.1462 318.468L84.3796 320.333L86.2408 321.825L88.6603 323.13L91.452 324.062L94.4298 324.808L96.8493 324.994H100.013L103.363 324.435L105.783 323.876L108.761 322.57L110.994 321.265L113.786 319.214L116.391 316.79L118.066 314.18L119.183 312.502L120.3 310.078L121.044 308.213L121.603 305.789L122.347 303.552L123.092 300.941L123.464 299.077L123.836 297.399L124.208 295.907L124.767 294.788L125.325 294.415L126.069 294.602L126.628 295.348V296.653L126.442 297.772L125.883 300.382L124.953 303.738L124.022 307.654L123.092 310.637L121.789 313.621L119.928 316.417L118.066 318.841L115.647 321.265L113.227 322.943L109.877 324.994L107.086 326.3L104.294 327.418L101.502 327.791H97.966L95.5465 327.605L93.127 327.232L90.7075 326.673L88.6603 325.927L87.1713 325.367L85.4963 324.435L83.8213 323.503L82.5185 322.757L81.4018 321.825L79.9128 320.333L78.4239 318.655L77.1211 316.79L75.8183 314.926L74.8877 313.434L74.1433 311.57L73.3988 309.891L72.8405 308.213L72.4682 306.908L72.2821 304.857L72.096 302.993L71.9099 300.941L71.5377 299.636L70.6071 298.518L69.3043 298.331L68.5598 298.704L67.6292 299.823L67.257 301.128L66.6987 303.552L65.9542 305.603L64.4653 308.773L62.418 311.942L59.8124 314.926L56.4623 317.723L52.1817 320.333L48.0872 321.825L43.8065 322.57H39.712L34.3146 321.825L28.9173 319.401L24.4505 316.417L20.9143 312.688L17.3781 307.095L15.3309 301.687Z" stroke="#39424A" stroke-width="8" mask="url(#path-3-outside-3)"/>
</g>
<g opacity="0.5">
<mask id="path-4-outside-4" maskUnits="userSpaceOnUse" x="11.517" y="335.42" width="120" height="87" fill="black">
<rect fill="white" x="11.517" y="335.42" width="120" height="87"/>
<path d="M15.517 392.305V349.42L17.192 352.03L17.9365 353.708L18.3087 355.387V359.675V378.321V385.779V388.949L18.4948 392.305L19.4254 394.542L21.1004 397.712L22.4032 399.95L24.0783 402.001L26.3117 404.425L28.5451 406.103L30.5923 407.408L32.4535 408.34L34.5007 409.273L36.9202 409.832L39.8981 410.018L43.4343 409.832H46.226L48.6455 409.086L50.1344 408.34L52.74 407.035L54.6012 406.103L56.8346 404.425L58.1374 403.12L59.4402 401.628L60.743 400.136L62.6041 397.526L63.3486 395.848L64.0931 393.983L64.4653 391.932L65.0236 390.254L65.7681 388.389L66.3264 387.457L67.8154 386.525L69.4904 385.965H70.7932L72.096 386.338L73.5849 387.457L74.5155 388.949L74.8877 390.627L75.0739 392.678L75.26 394.729L75.4461 397.153L76.0044 399.39L76.7489 401.255L77.8656 403.492L79.5406 405.916L81.0295 407.594L82.3323 409.086L84.5657 410.951L86.4269 412.442L88.8464 413.748L91.6381 414.68L94.6159 415.426L97.0354 415.612H100.199L103.549 415.053L105.969 414.493L108.947 413.188L111.18 411.883L113.972 409.832L116.578 407.408L118.253 404.798L119.369 403.12L120.486 400.696L121.23 398.831L121.789 396.407L122.533 394.17L123.278 391.559L123.65 389.695L124.022 388.016L124.394 386.525L124.953 385.406L125.511 385.033L126.256 385.22L126.814 385.965V387.271L126.628 388.389L126.069 391L125.139 394.356L124.208 398.272L123.278 401.255L121.975 404.238L120.114 407.035L118.253 409.459L115.833 411.883L113.414 413.561L110.064 415.612L107.272 416.917L104.48 418.036L101.688 418.409H98.1521L95.7326 418.223L93.3131 417.85L90.8936 417.29L88.8464 416.544L87.3575 415.985L85.6824 415.053L84.0074 414.12L82.7046 413.375L81.5879 412.442L80.099 410.951L78.61 409.273L77.3072 407.408L76.0044 405.543L75.0739 404.052L74.3294 402.187L73.5849 400.509L73.0266 398.831L72.6544 397.526L72.4682 395.475L72.2821 393.61L72.096 391.559L71.7238 390.254L70.7932 389.135L69.4904 388.949L68.7459 389.322L67.8154 390.44L67.4431 391.746L66.8848 394.17L66.1403 396.221L64.6514 399.39L62.6041 402.56L59.9985 405.543L56.6484 408.34L52.3678 410.951L48.2733 412.442L43.9926 413.188H39.8981L34.5007 412.442L29.1034 410.018L24.6366 407.035L21.1004 403.306L17.5643 397.712L15.517 392.305Z"/>
</mask>
<path d="M15.517 392.305V349.42L17.192 352.03L17.9365 353.708L18.3087 355.387V359.675V378.321V385.779V388.949L18.4948 392.305L19.4254 394.542L21.1004 397.712L22.4032 399.95L24.0783 402.001L26.3117 404.425L28.5451 406.103L30.5923 407.408L32.4535 408.34L34.5007 409.273L36.9202 409.832L39.8981 410.018L43.4343 409.832H46.226L48.6455 409.086L50.1344 408.34L52.74 407.035L54.6012 406.103L56.8346 404.425L58.1374 403.12L59.4402 401.628L60.743 400.136L62.6041 397.526L63.3486 395.848L64.0931 393.983L64.4653 391.932L65.0236 390.254L65.7681 388.389L66.3264 387.457L67.8154 386.525L69.4904 385.965H70.7932L72.096 386.338L73.5849 387.457L74.5155 388.949L74.8877 390.627L75.0739 392.678L75.26 394.729L75.4461 397.153L76.0044 399.39L76.7489 401.255L77.8656 403.492L79.5406 405.916L81.0295 407.594L82.3323 409.086L84.5657 410.951L86.4269 412.442L88.8464 413.748L91.6381 414.68L94.6159 415.426L97.0354 415.612H100.199L103.549 415.053L105.969 414.493L108.947 413.188L111.18 411.883L113.972 409.832L116.578 407.408L118.253 404.798L119.369 403.12L120.486 400.696L121.23 398.831L121.789 396.407L122.533 394.17L123.278 391.559L123.65 389.695L124.022 388.016L124.394 386.525L124.953 385.406L125.511 385.033L126.256 385.22L126.814 385.965V387.271L126.628 388.389L126.069 391L125.139 394.356L124.208 398.272L123.278 401.255L121.975 404.238L120.114 407.035L118.253 409.459L115.833 411.883L113.414 413.561L110.064 415.612L107.272 416.917L104.48 418.036L101.688 418.409H98.1521L95.7326 418.223L93.3131 417.85L90.8936 417.29L88.8464 416.544L87.3575 415.985L85.6824 415.053L84.0074 414.12L82.7046 413.375L81.5879 412.442L80.099 410.951L78.61 409.273L77.3072 407.408L76.0044 405.543L75.0739 404.052L74.3294 402.187L73.5849 400.509L73.0266 398.831L72.6544 397.526L72.4682 395.475L72.2821 393.61L72.096 391.559L71.7238 390.254L70.7932 389.135L69.4904 388.949L68.7459 389.322L67.8154 390.44L67.4431 391.746L66.8848 394.17L66.1403 396.221L64.6514 399.39L62.6041 402.56L59.9985 405.543L56.6484 408.34L52.3678 410.951L48.2733 412.442L43.9926 413.188H39.8981L34.5007 412.442L29.1034 410.018L24.6366 407.035L21.1004 403.306L17.5643 397.712L15.517 392.305Z" stroke="#39424A" stroke-width="8" mask="url(#path-4-outside-4)"/>
</g>
<g opacity="0.5">
<mask id="path-5-outside-5" maskUnits="userSpaceOnUse" x="11.517" y="426.038" width="120" height="87" fill="black">
<rect fill="white" x="11.517" y="426.038" width="120" height="87"/>
<path d="M15.517 482.923V440.038L17.192 442.648L17.9365 444.327L18.3087 446.005V450.293V468.939V476.397V479.567L18.4948 482.923L19.4254 485.161L21.1004 488.33L22.4032 490.568L24.0783 492.619L26.3117 495.043L28.5451 496.721L30.5923 498.026L32.4535 498.958L34.5007 499.891L36.9202 500.45L39.8981 500.637L43.4343 500.45H46.226L48.6455 499.704L50.1344 498.958L52.74 497.653L54.6012 496.721L56.8346 495.043L58.1374 493.738L59.4402 492.246L60.743 490.754L62.6041 488.144L63.3486 486.466L64.0931 484.601L64.4653 482.55L65.0236 480.872L65.7681 479.008L66.3264 478.075L67.8154 477.143L69.4904 476.584H70.7932L72.096 476.957L73.5849 478.075L74.5155 479.567L74.8877 481.245L75.0739 483.296L75.26 485.347L75.4461 487.771L76.0044 490.009L76.7489 491.873L77.8656 494.111L79.5406 496.535L81.0295 498.213L82.3323 499.704L84.5657 501.569L86.4269 503.061L88.8464 504.366L91.6381 505.298L94.6159 506.044L97.0354 506.23H100.199L103.549 505.671L105.969 505.112L108.947 503.806L111.18 502.501L113.972 500.45L116.578 498.026L118.253 495.416L119.369 493.738L120.486 491.314L121.23 489.449L121.789 487.025L122.533 484.788L123.278 482.177L123.65 480.313L124.022 478.635L124.394 477.143L124.953 476.024L125.511 475.651L126.256 475.838L126.814 476.584V477.889L126.628 479.008L126.069 481.618L125.139 484.974L124.208 488.89L123.278 491.873L121.975 494.856L120.114 497.653L118.253 500.077L115.833 502.501L113.414 504.179L110.064 506.23L107.272 507.535L104.48 508.654L101.688 509.027H98.1521L95.7326 508.841L93.3131 508.468L90.8936 507.908L88.8464 507.163L87.3575 506.603L85.6824 505.671L84.0074 504.739L82.7046 503.993L81.5879 503.061L80.099 501.569L78.61 499.891L77.3072 498.026L76.0044 496.162L75.0739 494.67L74.3294 492.805L73.5849 491.127L73.0266 489.449L72.6544 488.144L72.4682 486.093L72.2821 484.228L72.096 482.177L71.7238 480.872L70.7932 479.753L69.4904 479.567L68.7459 479.94L67.8154 481.059L67.4431 482.364L66.8848 484.788L66.1403 486.839L64.6514 490.009L62.6041 493.178L59.9985 496.162L56.6484 498.958L52.3678 501.569L48.2733 503.061L43.9926 503.806H39.8981L34.5007 503.061L29.1034 500.637L24.6366 497.653L21.1004 493.924L17.5643 488.33L15.517 482.923Z"/>
</mask>
<path d="M15.517 482.923V440.038L17.192 442.648L17.9365 444.327L18.3087 446.005V450.293V468.939V476.397V479.567L18.4948 482.923L19.4254 485.161L21.1004 488.33L22.4032 490.568L24.0783 492.619L26.3117 495.043L28.5451 496.721L30.5923 498.026L32.4535 498.958L34.5007 499.891L36.9202 500.45L39.8981 500.637L43.4343 500.45H46.226L48.6455 499.704L50.1344 498.958L52.74 497.653L54.6012 496.721L56.8346 495.043L58.1374 493.738L59.4402 492.246L60.743 490.754L62.6041 488.144L63.3486 486.466L64.0931 484.601L64.4653 482.55L65.0236 480.872L65.7681 479.008L66.3264 478.075L67.8154 477.143L69.4904 476.584H70.7932L72.096 476.957L73.5849 478.075L74.5155 479.567L74.8877 481.245L75.0739 483.296L75.26 485.347L75.4461 487.771L76.0044 490.009L76.7489 491.873L77.8656 494.111L79.5406 496.535L81.0295 498.213L82.3323 499.704L84.5657 501.569L86.4269 503.061L88.8464 504.366L91.6381 505.298L94.6159 506.044L97.0354 506.23H100.199L103.549 505.671L105.969 505.112L108.947 503.806L111.18 502.501L113.972 500.45L116.578 498.026L118.253 495.416L119.369 493.738L120.486 491.314L121.23 489.449L121.789 487.025L122.533 484.788L123.278 482.177L123.65 480.313L124.022 478.635L124.394 477.143L124.953 476.024L125.511 475.651L126.256 475.838L126.814 476.584V477.889L126.628 479.008L126.069 481.618L125.139 484.974L124.208 488.89L123.278 491.873L121.975 494.856L120.114 497.653L118.253 500.077L115.833 502.501L113.414 504.179L110.064 506.23L107.272 507.535L104.48 508.654L101.688 509.027H98.1521L95.7326 508.841L93.3131 508.468L90.8936 507.908L88.8464 507.163L87.3575 506.603L85.6824 505.671L84.0074 504.739L82.7046 503.993L81.5879 503.061L80.099 501.569L78.61 499.891L77.3072 498.026L76.0044 496.162L75.0739 494.67L74.3294 492.805L73.5849 491.127L73.0266 489.449L72.6544 488.144L72.4682 486.093L72.2821 484.228L72.096 482.177L71.7238 480.872L70.7932 479.753L69.4904 479.567L68.7459 479.94L67.8154 481.059L67.4431 482.364L66.8848 484.788L66.1403 486.839L64.6514 490.009L62.6041 493.178L59.9985 496.162L56.6484 498.958L52.3678 501.569L48.2733 503.061L43.9926 503.806H39.8981L34.5007 503.061L29.1034 500.637L24.6366 497.653L21.1004 493.924L17.5643 488.33L15.517 482.923Z" stroke="#39424A" stroke-width="8" mask="url(#path-5-outside-5)"/>
</g>
<g opacity="0.5">
<mask id="path-6-outside-6" maskUnits="userSpaceOnUse" x="11.517" y="516.656" width="120" height="87" fill="black">
<rect fill="white" x="11.517" y="516.656" width="120" height="87"/>
<path d="M15.517 573.541V530.656L17.192 533.267L17.9365 534.945L18.3087 536.623V540.911V559.557V567.015V570.185L18.4948 573.541L19.4254 575.779L21.1004 578.949L22.4032 581.186L24.0783 583.237L26.3117 585.661L28.5451 587.339L30.5923 588.644L32.4535 589.577L34.5007 590.509L36.9202 591.068L39.8981 591.255L43.4343 591.068H46.226L48.6455 590.322L50.1344 589.577L52.74 588.271L54.6012 587.339L56.8346 585.661L58.1374 584.356L59.4402 582.864L60.743 581.372L62.6041 578.762L63.3486 577.084L64.0931 575.219L64.4653 573.168L65.0236 571.49L65.7681 569.626L66.3264 568.693L67.8154 567.761L69.4904 567.202H70.7932L72.096 567.575L73.5849 568.693L74.5155 570.185L74.8877 571.863L75.0739 573.914L75.26 575.965L75.4461 578.389L76.0044 580.627L76.7489 582.491L77.8656 584.729L79.5406 587.153L81.0295 588.831L82.3323 590.322L84.5657 592.187L86.4269 593.679L88.8464 594.984L91.6381 595.916L94.6159 596.662L97.0354 596.848H100.199L103.549 596.289L105.969 595.73L108.947 594.424L111.18 593.119L113.972 591.068L116.578 588.644L118.253 586.034L119.369 584.356L120.486 581.932L121.23 580.067L121.789 577.643L122.533 575.406L123.278 572.795L123.65 570.931L124.022 569.253L124.394 567.761L124.953 566.642L125.511 566.269L126.256 566.456L126.814 567.202V568.507L126.628 569.626L126.069 572.236L125.139 575.592L124.208 579.508L123.278 582.491L121.975 585.475L120.114 588.271L118.253 590.695L115.833 593.119L113.414 594.797L110.064 596.848L107.272 598.154L104.48 599.272L101.688 599.645H98.1521L95.7326 599.459L93.3131 599.086L90.8936 598.527L88.8464 597.781L87.3575 597.221L85.6824 596.289L84.0074 595.357L82.7046 594.611L81.5879 593.679L80.099 592.187L78.61 590.509L77.3072 588.644L76.0044 586.78L75.0739 585.288L74.3294 583.424L73.5849 581.745L73.0266 580.067L72.6544 578.762L72.4682 576.711L72.2821 574.847L72.096 572.795L71.7238 571.49L70.7932 570.372L69.4904 570.185L68.7459 570.558L67.8154 571.677L67.4431 572.982L66.8848 575.406L66.1403 577.457L64.6514 580.627L62.6041 583.796L59.9985 586.78L56.6484 589.577L52.3678 592.187L48.2733 593.679L43.9926 594.424H39.8981L34.5007 593.679L29.1034 591.255L24.6366 588.271L21.1004 584.542L17.5643 578.949L15.517 573.541Z"/>
</mask>
<path d="M15.517 573.541V530.656L17.192 533.267L17.9365 534.945L18.3087 536.623V540.911V559.557V567.015V570.185L18.4948 573.541L19.4254 575.779L21.1004 578.949L22.4032 581.186L24.0783 583.237L26.3117 585.661L28.5451 587.339L30.5923 588.644L32.4535 589.577L34.5007 590.509L36.9202 591.068L39.8981 591.255L43.4343 591.068H46.226L48.6455 590.322L50.1344 589.577L52.74 588.271L54.6012 587.339L56.8346 585.661L58.1374 584.356L59.4402 582.864L60.743 581.372L62.6041 578.762L63.3486 577.084L64.0931 575.219L64.4653 573.168L65.0236 571.49L65.7681 569.626L66.3264 568.693L67.8154 567.761L69.4904 567.202H70.7932L72.096 567.575L73.5849 568.693L74.5155 570.185L74.8877 571.863L75.0739 573.914L75.26 575.965L75.4461 578.389L76.0044 580.627L76.7489 582.491L77.8656 584.729L79.5406 587.153L81.0295 588.831L82.3323 590.322L84.5657 592.187L86.4269 593.679L88.8464 594.984L91.6381 595.916L94.6159 596.662L97.0354 596.848H100.199L103.549 596.289L105.969 595.73L108.947 594.424L111.18 593.119L113.972 591.068L116.578 588.644L118.253 586.034L119.369 584.356L120.486 581.932L121.23 580.067L121.789 577.643L122.533 575.406L123.278 572.795L123.65 570.931L124.022 569.253L124.394 567.761L124.953 566.642L125.511 566.269L126.256 566.456L126.814 567.202V568.507L126.628 569.626L126.069 572.236L125.139 575.592L124.208 579.508L123.278 582.491L121.975 585.475L120.114 588.271L118.253 590.695L115.833 593.119L113.414 594.797L110.064 596.848L107.272 598.154L104.48 599.272L101.688 599.645H98.1521L95.7326 599.459L93.3131 599.086L90.8936 598.527L88.8464 597.781L87.3575 597.221L85.6824 596.289L84.0074 595.357L82.7046 594.611L81.5879 593.679L80.099 592.187L78.61 590.509L77.3072 588.644L76.0044 586.78L75.0739 585.288L74.3294 583.424L73.5849 581.745L73.0266 580.067L72.6544 578.762L72.4682 576.711L72.2821 574.847L72.096 572.795L71.7238 571.49L70.7932 570.372L69.4904 570.185L68.7459 570.558L67.8154 571.677L67.4431 572.982L66.8848 575.406L66.1403 577.457L64.6514 580.627L62.6041 583.796L59.9985 586.78L56.6484 589.577L52.3678 592.187L48.2733 593.679L43.9926 594.424H39.8981L34.5007 593.679L29.1034 591.255L24.6366 588.271L21.1004 584.542L17.5643 578.949L15.517 573.541Z" stroke="#39424A" stroke-width="8" mask="url(#path-6-outside-6)"/>
</g>
<g opacity="0.5">
<mask id="path-7-outside-7" maskUnits="userSpaceOnUse" x="11.517" y="607.274" width="120" height="87" fill="black">
<rect fill="white" x="11.517" y="607.274" width="120" height="87"/>
<path d="M15.517 664.16V621.274L17.192 623.885L17.9365 625.563L18.3087 627.241V631.53V650.175V657.634V660.803L18.4948 664.16L19.4254 666.397L21.1004 669.567L22.4032 671.804L24.0783 673.855L26.3117 676.279L28.5451 677.957L30.5923 679.263L32.4535 680.195L34.5007 681.127L36.9202 681.686L39.8981 681.873L43.4343 681.686H46.226L48.6455 680.941L50.1344 680.195L52.74 678.89L54.6012 677.957L56.8346 676.279L58.1374 674.974L59.4402 673.482L60.743 671.991L62.6041 669.38L63.3486 667.702L64.0931 665.838L64.4653 663.787L65.0236 662.108L65.7681 660.244L66.3264 659.312L67.8154 658.379L69.4904 657.82H70.7932L72.096 658.193L73.5849 659.312L74.5155 660.803L74.8877 662.481L75.0739 664.532L75.26 666.583L75.4461 669.007L76.0044 671.245L76.7489 673.109L77.8656 675.347L79.5406 677.771L81.0295 679.449L82.3323 680.941L84.5657 682.805L86.4269 684.297L88.8464 685.602L91.6381 686.534L94.6159 687.28L97.0354 687.467H100.199L103.549 686.907L105.969 686.348L108.947 685.043L111.18 683.737L113.972 681.686L116.578 679.263L118.253 676.652L119.369 674.974L120.486 672.55L121.23 670.686L121.789 668.262L122.533 666.024L123.278 663.414L123.65 661.549L124.022 659.871L124.394 658.379L124.953 657.261L125.511 656.888L126.256 657.074L126.814 657.82V659.125L126.628 660.244L126.069 662.854L125.139 666.211L124.208 670.126L123.278 673.109L121.975 676.093L120.114 678.89L118.253 681.314L115.833 683.737L113.414 685.416L110.064 687.467L107.272 688.772L104.48 689.891L101.688 690.263H98.1521L95.7326 690.077L93.3131 689.704L90.8936 689.145L88.8464 688.399L87.3575 687.84L85.6824 686.907L84.0074 685.975L82.7046 685.229L81.5879 684.297L80.099 682.805L78.61 681.127L77.3072 679.263L76.0044 677.398L75.0739 675.906L74.3294 674.042L73.5849 672.364L73.0266 670.686L72.6544 669.38L72.4682 667.329L72.2821 665.465L72.096 663.414L71.7238 662.108L70.7932 660.99L69.4904 660.803L68.7459 661.176L67.8154 662.295L67.4431 663.6L66.8848 666.024L66.1403 668.075L64.6514 671.245L62.6041 674.415L59.9985 677.398L56.6484 680.195L52.3678 682.805L48.2733 684.297L43.9926 685.043H39.8981L34.5007 684.297L29.1034 681.873L24.6366 678.89L21.1004 675.16L17.5643 669.567L15.517 664.16Z"/>
</mask>
<path d="M15.517 664.16V621.274L17.192 623.885L17.9365 625.563L18.3087 627.241V631.53V650.175V657.634V660.803L18.4948 664.16L19.4254 666.397L21.1004 669.567L22.4032 671.804L24.0783 673.855L26.3117 676.279L28.5451 677.957L30.5923 679.263L32.4535 680.195L34.5007 681.127L36.9202 681.686L39.8981 681.873L43.4343 681.686H46.226L48.6455 680.941L50.1344 680.195L52.74 678.89L54.6012 677.957L56.8346 676.279L58.1374 674.974L59.4402 673.482L60.743 671.991L62.6041 669.38L63.3486 667.702L64.0931 665.838L64.4653 663.787L65.0236 662.108L65.7681 660.244L66.3264 659.312L67.8154 658.379L69.4904 657.82H70.7932L72.096 658.193L73.5849 659.312L74.5155 660.803L74.8877 662.481L75.0739 664.532L75.26 666.583L75.4461 669.007L76.0044 671.245L76.7489 673.109L77.8656 675.347L79.5406 677.771L81.0295 679.449L82.3323 680.941L84.5657 682.805L86.4269 684.297L88.8464 685.602L91.6381 686.534L94.6159 687.28L97.0354 687.467H100.199L103.549 686.907L105.969 686.348L108.947 685.043L111.18 683.737L113.972 681.686L116.578 679.263L118.253 676.652L119.369 674.974L120.486 672.55L121.23 670.686L121.789 668.262L122.533 666.024L123.278 663.414L123.65 661.549L124.022 659.871L124.394 658.379L124.953 657.261L125.511 656.888L126.256 657.074L126.814 657.82V659.125L126.628 660.244L126.069 662.854L125.139 666.211L124.208 670.126L123.278 673.109L121.975 676.093L120.114 678.89L118.253 681.314L115.833 683.737L113.414 685.416L110.064 687.467L107.272 688.772L104.48 689.891L101.688 690.263H98.1521L95.7326 690.077L93.3131 689.704L90.8936 689.145L88.8464 688.399L87.3575 687.84L85.6824 686.907L84.0074 685.975L82.7046 685.229L81.5879 684.297L80.099 682.805L78.61 681.127L77.3072 679.263L76.0044 677.398L75.0739 675.906L74.3294 674.042L73.5849 672.364L73.0266 670.686L72.6544 669.38L72.4682 667.329L72.2821 665.465L72.096 663.414L71.7238 662.108L70.7932 660.99L69.4904 660.803L68.7459 661.176L67.8154 662.295L67.4431 663.6L66.8848 666.024L66.1403 668.075L64.6514 671.245L62.6041 674.415L59.9985 677.398L56.6484 680.195L52.3678 682.805L48.2733 684.297L43.9926 685.043H39.8981L34.5007 684.297L29.1034 681.873L24.6366 678.89L21.1004 675.16L17.5643 669.567L15.517 664.16Z" stroke="#39424A" stroke-width="8" mask="url(#path-7-outside-7)"/>
</g>
<g opacity="0.5">
<mask id="path-8-outside-8" maskUnits="userSpaceOnUse" x="11.517" y="697.892" width="120" height="87" fill="black">
<rect fill="white" x="11.517" y="697.892" width="120" height="87"/>
<path d="M15.517 754.777V711.892L17.192 714.502L17.9365 716.181L18.3087 717.859V722.147V740.793V748.251V751.421L18.4948 754.777L19.4254 757.015L21.1004 760.184L22.4032 762.422L24.0783 764.473L26.3117 766.897L28.5451 768.575L30.5923 769.88L32.4535 770.812L34.5007 771.745L36.9202 772.304L39.8981 772.491L43.4343 772.304H46.226L48.6455 771.558L50.1344 770.812L52.74 769.507L54.6012 768.575L56.8346 766.897L58.1374 765.592L59.4402 764.1L60.743 762.608L62.6041 759.998L63.3486 758.32L64.0931 756.455L64.4653 754.404L65.0236 752.726L65.7681 750.862L66.3264 749.929L67.8154 748.997L69.4904 748.438H70.7932L72.096 748.811L73.5849 749.929L74.5155 751.421L74.8877 753.099L75.0739 755.15L75.26 757.201L75.4461 759.625L76.0044 761.863L76.7489 763.727L77.8656 765.965L79.5406 768.389L81.0295 770.067L82.3323 771.558L84.5657 773.423L86.4269 774.914L88.8464 776.22L91.6381 777.152L94.6159 777.898L97.0354 778.084H100.199L103.549 777.525L105.969 776.966L108.947 775.66L111.18 774.355L113.972 772.304L116.578 769.88L118.253 767.27L119.369 765.592L120.486 763.168L121.23 761.303L121.789 758.879L122.533 756.642L123.278 754.031L123.65 752.167L124.022 750.489L124.394 748.997L124.953 747.878L125.511 747.505L126.256 747.692L126.814 748.438V749.743L126.628 750.862L126.069 753.472L125.139 756.828L124.208 760.744L123.278 763.727L121.975 766.71L120.114 769.507L118.253 771.931L115.833 774.355L113.414 776.033L110.064 778.084L107.272 779.389L104.48 780.508L101.688 780.881H98.1521L95.7326 780.695L93.3131 780.322L90.8936 779.762L88.8464 779.017L87.3575 778.457L85.6824 777.525L84.0074 776.593L82.7046 775.847L81.5879 774.914L80.099 773.423L78.61 771.745L77.3072 769.88L76.0044 768.016L75.0739 766.524L74.3294 764.659L73.5849 762.981L73.0266 761.303L72.6544 759.998L72.4682 757.947L72.2821 756.082L72.096 754.031L71.7238 752.726L70.7932 751.607L69.4904 751.421L68.7459 751.794L67.8154 752.913L67.4431 754.218L66.8848 756.642L66.1403 758.693L64.6514 761.863L62.6041 765.032L59.9985 768.016L56.6484 770.812L52.3678 773.423L48.2733 774.914L43.9926 775.66H39.8981L34.5007 774.914L29.1034 772.491L24.6366 769.507L21.1004 765.778L17.5643 760.184L15.517 754.777Z"/>
</mask>
<path d="M15.517 754.777V711.892L17.192 714.502L17.9365 716.181L18.3087 717.859V722.147V740.793V748.251V751.421L18.4948 754.777L19.4254 757.015L21.1004 760.184L22.4032 762.422L24.0783 764.473L26.3117 766.897L28.5451 768.575L30.5923 769.88L32.4535 770.812L34.5007 771.745L36.9202 772.304L39.8981 772.491L43.4343 772.304H46.226L48.6455 771.558L50.1344 770.812L52.74 769.507L54.6012 768.575L56.8346 766.897L58.1374 765.592L59.4402 764.1L60.743 762.608L62.6041 759.998L63.3486 758.32L64.0931 756.455L64.4653 754.404L65.0236 752.726L65.7681 750.862L66.3264 749.929L67.8154 748.997L69.4904 748.438H70.7932L72.096 748.811L73.5849 749.929L74.5155 751.421L74.8877 753.099L75.0739 755.15L75.26 757.201L75.4461 759.625L76.0044 761.863L76.7489 763.727L77.8656 765.965L79.5406 768.389L81.0295 770.067L82.3323 771.558L84.5657 773.423L86.4269 774.914L88.8464 776.22L91.6381 777.152L94.6159 777.898L97.0354 778.084H100.199L103.549 777.525L105.969 776.966L108.947 775.66L111.18 774.355L113.972 772.304L116.578 769.88L118.253 767.27L119.369 765.592L120.486 763.168L121.23 761.303L121.789 758.879L122.533 756.642L123.278 754.031L123.65 752.167L124.022 750.489L124.394 748.997L124.953 747.878L125.511 747.505L126.256 747.692L126.814 748.438V749.743L126.628 750.862L126.069 753.472L125.139 756.828L124.208 760.744L123.278 763.727L121.975 766.71L120.114 769.507L118.253 771.931L115.833 774.355L113.414 776.033L110.064 778.084L107.272 779.389L104.48 780.508L101.688 780.881H98.1521L95.7326 780.695L93.3131 780.322L90.8936 779.762L88.8464 779.017L87.3575 778.457L85.6824 777.525L84.0074 776.593L82.7046 775.847L81.5879 774.914L80.099 773.423L78.61 771.745L77.3072 769.88L76.0044 768.016L75.0739 766.524L74.3294 764.659L73.5849 762.981L73.0266 761.303L72.6544 759.998L72.4682 757.947L72.2821 756.082L72.096 754.031L71.7238 752.726L70.7932 751.607L69.4904 751.421L68.7459 751.794L67.8154 752.913L67.4431 754.218L66.8848 756.642L66.1403 758.693L64.6514 761.863L62.6041 765.032L59.9985 768.016L56.6484 770.812L52.3678 773.423L48.2733 774.914L43.9926 775.66H39.8981L34.5007 774.914L29.1034 772.491L24.6366 769.507L21.1004 765.778L17.5643 760.184L15.517 754.777Z" stroke="#39424A" stroke-width="8" mask="url(#path-8-outside-8)"/>
</g>
<rect x="2" y="2" width="11.2614" height="778" stroke="#39424A" stroke-width="4"/>
</svg>
