<svg width="95" height="85" fill="none" xmlns="http://www.w3.org/2000/svg"><path d="M13.742 78.865v-9.1l-3.331 6.626h-1.96L5.12 69.766v9.1H1.549V63.591h3.876l4.006 7.98 4.028-7.98h3.854v15.273h-3.57zm18.494-3.097v3.097H21.371V63.593h10.67v3.097h-7.099v2.97h6.097v2.86h-6.097v3.249h7.294zm15.038-9.078h-4.703v12.175h-3.57V66.69h-4.726v-3.097h13v3.097zm2.898 12.175V63.593h3.55v5.915h1.219l4.311-5.916h3.963l-5.53 7.38 6.01 7.894H59.36l-4.529-6.152h-1.11v6.153h-3.55zm22.318.13c-1.146 0-2.191-.216-3.135-.646a7.982 7.982 0 01-2.417-1.764 8.065 8.065 0 01-1.567-2.495 7.88 7.88 0 01-.545-2.883c0-1.004.189-1.965.566-2.883a8.122 8.122 0 011.612-2.474 7.588 7.588 0 012.46-1.72c.944-.417 1.974-.625 3.092-.625 1.147 0 2.185.223 3.114.667a7.227 7.227 0 012.417 1.764 7.997 7.997 0 011.567 2.517c.363.918.545 1.858.545 2.819a7.42 7.42 0 01-.588 2.904 7.934 7.934 0 01-1.612 2.474 7.784 7.784 0 01-2.438 1.72c-.93.417-1.953.625-3.07.625zm-4.027-7.745c0 .789.152 1.535.457 2.237a4.146 4.146 0 001.371 1.7c.61.444 1.35.667 2.221.667.9 0 1.648-.23 2.243-.689a4.106 4.106 0 001.35-1.742 5.612 5.612 0 00.457-2.216 5.2 5.2 0 00-.479-2.216 3.97 3.97 0 00-1.371-1.7c-.596-.43-1.329-.645-2.2-.645-.9 0-1.654.23-2.264.689a4.187 4.187 0 00-1.35 1.72 5.693 5.693 0 00-.435 2.195zm14.887 7.615V63.593h6.598c.74 0 1.416.15 2.025.451a4.871 4.871 0 011.612 1.183c.45.488.798 1.04 1.045 1.657.247.617.37 1.24.37 1.871 0 .89-.21 1.729-.631 2.517a5.163 5.163 0 01-1.72 1.937c-.74.487-1.605.731-2.592.731h-3.135v4.927H83.35zm3.572-8.002h2.918c.42 0 .783-.18 1.088-.538.305-.359.457-.882.457-1.57 0-.703-.18-1.22-.544-1.55-.348-.344-.726-.516-1.132-.516h-2.787v4.174z" fill="#F9A34F"/><path d="M24.1 0L1.55 58.688h16.09l9.1-24.111 16.22 24.11h17.013L24.101 0z" fill="#fff"/><path d="M70.679 0L95 58.688H78.345l-10.31-24.321-16.39 24.32H34.329L70.68 0z" fill="#fff"/><path d="M34.33 58.688l12.953-20.885 12.69 20.885H34.33z" fill="#F9A34F"/></svg>